<svg version="1.1" viewBox="0.0 0.0 600.0 371.0" fill="none" stroke="none" stroke-linecap="square" stroke-miterlimit="10" width="600" height="371" xmlns:xlink="http://www.w3.org/1999/xlink" xmlns="http://www.w3.org/2000/svg"><path fill="#ffffff" d="M0 0L600.0 0L600.0 371.0L0 371.0L0 0Z" fill-rule="nonzero"/><path stroke="#333333" stroke-width="1.0" stroke-linecap="butt" d="M98.5 332.5L581.5 332.5" fill-rule="nonzero"/><path stroke="#cccccc" stroke-width="1.0" stroke-linecap="butt" d="M98.5 262.5L581.5 262.5" fill-rule="nonzero"/><path stroke="#cccccc" stroke-width="1.0" stroke-linecap="butt" d="M98.5 192.5L581.5 192.5" fill-rule="nonzero"/><path stroke="#cccccc" stroke-width="1.0" stroke-linecap="butt" d="M98.5 122.5L581.5 122.5" fill-rule="nonzero"/><path stroke="#cccccc" stroke-width="1.0" stroke-linecap="butt" d="M98.5 51.5L581.5 51.5" fill-rule="nonzero"/><clipPath id="id_0"><path d="M98.55 51.916668L581.45 51.916668L581.45 332.45L98.55 332.45L98.55 51.916668Z" clip-rule="nonzero"/></clipPath><path stroke="#000000" stroke-width="2.0" stroke-linecap="butt" stroke-opacity="0.0" clip-path="url(#id_0)" d="M339.0 332.0L225.0 332.0L225.0 101.0C225.0 99.89543 225.89543 99.0 227.0 99.0L337.0 99.0C338.10458 99.0 339.0 99.89543 339.0 101.0Z" fill-rule="nonzero"/><path fill="#4285f4" clip-path="url(#id_0)" d="M339.0 332.0L225.0 332.0L225.0 101.0C225.0 99.89543 225.89543 99.0 227.0 99.0L337.0 99.0C338.10458 99.0 339.0 99.89543 339.0 101.0Z" fill-rule="nonzero"/><path stroke="#000000" stroke-width="2.0" stroke-linecap="butt" stroke-opacity="0.0" clip-path="url(#id_0)" d="M455.0 332.0L341.0 332.0L341.0 66.0C341.0 64.89543 341.89542 64.0 343.0 64.0L453.0 64.0C454.10458 64.0 455.0 64.89543 455.0 66.0Z" fill-rule="nonzero"/><path fill="#ea4335" clip-path="url(#id_0)" d="M455.0 332.0L341.0 332.0L341.0 66.0C341.0 64.89543 341.89542 64.0 343.0 64.0L453.0 64.0C454.10458 64.0 455.0 64.89543 455.0 66.0Z" fill-rule="nonzero"/><path stroke="#4285f4" stroke-width="3.0" stroke-linejoin="round" stroke-linecap="round" d="M266.875 106.92535L266.96875 106.92535L266.96875 107.84722L266.875 107.84722Q266.01562 107.84722 265.42188 108.12847Q264.84375 108.40972 264.5 108.87847Q264.17188 109.3316 264.01562 109.92535Q263.875 110.50347 263.875 111.09722L263.875 112.34722Q263.875 112.90972 264.0 113.34722Q264.14062 113.78472 264.375 114.09722Q264.60938 114.3941 264.90625 114.55035Q265.20312 114.69097 265.51562 114.69097Q265.89062 114.69097 266.1875 114.55035Q266.48438 114.40972 266.6875 114.1441Q266.89062 113.87847 266.98438 113.53472Q267.09375 113.17535 267.09375 112.73785Q267.09375 112.36285 267.0 112.00347Q266.90625 111.6441 266.71875 111.37847Q266.53125 111.09722 266.23438 110.94097Q265.9375 110.7691 265.54688 110.7691Q265.09375 110.7691 264.70312 110.98785Q264.3125 111.2066 264.0625 111.56597Q263.8125 111.92535 263.78125 112.3316L263.20312 112.3316Q263.29688 111.67535 263.51562 111.2066Q263.73438 110.73785 264.07812 110.44097Q264.42188 110.1441 264.82812 110.0191Q265.25 109.87847 265.71875 109.87847Q266.35938 109.87847 266.8125 110.12847Q267.28125 110.36285 267.57812 110.7691Q267.89062 111.15972 268.03125 111.65972Q268.17188 112.15972 268.17188 112.69097Q268.17188 113.28472 268.0 113.81597Q267.82812 114.34722 267.48438 114.75347Q267.15625 115.1441 266.65625 115.37847Q266.17188 115.59722 265.51562 115.59722Q264.82812 115.59722 264.3125 115.31597Q263.79688 115.0191 263.45312 114.55035Q263.125 114.06597 262.95312 113.48785Q262.78125 112.90972 262.78125 112.31597L262.78125 111.80035Q262.78125 110.8941 262.95312 110.03472Q263.14062 109.15972 263.59375 108.4566Q264.04688 107.75347 264.84375 107.34722Q265.64062 106.92535 266.875 106.92535ZM273.875 106.92535L273.96875 106.92535L273.96875 107.84722L273.875 107.84722Q273.01562 107.84722 272.42188 108.12847Q271.84375 108.40972 271.5 108.87847Q271.17188 109.3316 271.01562 109.92535Q270.875 110.50347 270.875 111.09722L270.875 112.34722Q270.875 112.90972 271.0 113.34722Q271.14062 113.78472 271.375 114.09722Q271.60938 114.3941 271.90625 114.55035Q272.20312 114.69097 272.51562 114.69097Q272.89062 114.69097 273.1875 114.55035Q273.48438 114.40972 273.6875 114.1441Q273.89062 113.87847 273.98438 113.53472Q274.09375 113.17535 274.09375 112.73785Q274.09375 112.36285 274.0 112.00347Q273.90625 111.6441 273.71875 111.37847Q273.53125 111.09722 273.23438 110.94097Q272.9375 110.7691 272.54688 110.7691Q272.09375 110.7691 271.70312 110.98785Q271.3125 111.2066 271.0625 111.56597Q270.8125 111.92535 270.78125 112.3316L270.20312 112.3316Q270.29688 111.67535 270.51562 111.2066Q270.73438 110.73785 271.07812 110.44097Q271.42188 110.1441 271.82812 110.0191Q272.25 109.87847 272.71875 109.87847Q273.35938 109.87847 273.8125 110.12847Q274.28125 110.36285 274.57812 110.7691Q274.89062 111.15972 275.03125 111.65972Q275.17188 112.15972 275.17188 112.69097Q275.17188 113.28472 275.0 113.81597Q274.82812 114.34722 274.48438 114.75347Q274.15625 115.1441 273.65625 115.37847Q273.17188 115.59722 272.51562 115.59722Q271.82812 115.59722 271.3125 115.31597Q270.79688 115.0191 270.45312 114.55035Q270.125 114.06597 269.95312 113.48785Q269.78125 112.90972 269.78125 112.31597L269.78125 111.80035Q269.78125 110.8941 269.95312 110.03472Q270.14062 109.15972 270.59375 108.4566Q271.04688 107.75347 271.84375 107.34722Q272.64062 106.92535 273.875 106.92535ZM276.84375 114.8941Q276.84375 114.62847 277.01562 114.44097Q277.1875 114.23785 277.51562 114.23785Q277.84375 114.23785 278.01562 114.44097Q278.1875 114.62847 278.1875 114.8941Q278.1875 115.15972 278.01562 115.36285Q277.84375 115.55035 277.51562 115.55035Q277.1875 115.55035 277.01562 115.36285Q276.84375 115.15972 276.84375 114.8941ZM283.875 106.92535L283.96875 106.92535L283.96875 107.84722L283.875 107.84722Q283.01562 107.84722 282.42188 108.12847Q281.84375 108.40972 281.5 108.87847Q281.17188 109.3316 281.01562 109.92535Q280.875 110.50347 280.875 111.09722L280.875 112.34722Q280.875 112.90972 281.0 113.34722Q281.14062 113.78472 281.375 114.09722Q281.60938 114.3941 281.90625 114.55035Q282.20312 114.69097 282.51562 114.69097Q282.89062 114.69097 283.1875 114.55035Q283.48438 114.40972 283.6875 114.1441Q283.89062 113.87847 283.98438 113.53472Q284.09375 113.17535 284.09375 112.73785Q284.09375 112.36285 284.0 112.00347Q283.90625 111.6441 283.71875 111.37847Q283.53125 111.09722 283.23438 110.94097Q282.9375 110.7691 282.54688 110.7691Q282.09375 110.7691 281.70312 110.98785Q281.3125 111.2066 281.0625 111.56597Q280.8125 111.92535 280.78125 112.3316L280.20312 112.3316Q280.29688 111.67535 280.51562 111.2066Q280.73438 110.73785 281.07812 110.44097Q281.42188 110.1441 281.82812 110.0191Q282.25 109.87847 282.71875 109.87847Q283.35938 109.87847 283.8125 110.12847Q284.28125 110.36285 284.57812 110.7691Q284.89062 111.15972 285.03125 111.65972Q285.17188 112.15972 285.17188 112.69097Q285.17188 113.28472 285.0 113.81597Q284.82812 114.34722 284.48438 114.75347Q284.15625 115.1441 283.65625 115.37847Q283.17188 115.59722 282.51562 115.59722Q281.82812 115.59722 281.3125 115.31597Q280.79688 115.0191 280.45312 114.55035Q280.125 114.06597 279.95312 113.48785Q279.78125 112.90972 279.78125 112.31597L279.78125 111.80035Q279.78125 110.8941 279.95312 110.03472Q280.14062 109.15972 280.59375 108.4566Q281.04688 107.75347 281.84375 107.34722Q282.64062 106.92535 283.875 106.92535ZM292.21875 106.94097L292.21875 107.55035L288.6875 115.47222L287.54688 115.47222L291.07812 107.8316L286.45312 107.8316L286.45312 106.94097L292.21875 106.94097ZM293.60938 109.03472L293.60938 108.5816Q293.60938 108.09722 293.8125 107.7066Q294.03125 107.30035 294.42188 107.06597Q294.82812 106.81597 295.35938 106.81597Q295.90625 106.81597 296.29688 107.06597Q296.6875 107.30035 296.89062 107.7066Q297.10938 108.09722 297.10938 108.5816L297.10938 109.03472Q297.10938 109.50347 296.90625 109.90972Q296.70312 110.30035 296.3125 110.55035Q295.92188 110.78472 295.375 110.78472Q294.82812 110.78472 294.42188 110.55035Q294.03125 110.30035 293.8125 109.90972Q293.60938 109.50347 293.60938 109.03472ZM294.4375 108.5816L294.4375 109.03472Q294.4375 109.30035 294.53125 109.55035Q294.64062 109.78472 294.84375 109.94097Q295.0625 110.0816 295.375 110.0816Q295.6875 110.0816 295.89062 109.94097Q296.09375 109.78472 296.1875 109.55035Q296.29688 109.30035 296.29688 109.03472L296.29688 108.5816Q296.29688 108.30035 296.1875 108.06597Q296.09375 107.81597 295.875 107.67535Q295.67188 107.5191 295.35938 107.5191Q295.04688 107.5191 294.84375 107.67535Q294.64062 107.81597 294.53125 108.06597Q294.4375 108.30035 294.4375 108.5816ZM297.76562 113.8316L297.76562 113.37847Q297.76562 112.8941 297.96875 112.50347Q298.1875 112.09722 298.57812 111.86285Q298.98438 111.62847 299.51562 111.62847Q300.0625 111.62847 300.45312 111.86285Q300.84375 112.09722 301.04688 112.50347Q301.26562 112.8941 301.26562 113.37847L301.26562 113.8316Q301.26562 114.31597 301.0625 114.72222Q300.85938 115.11285 300.46875 115.36285Q300.07812 115.59722 299.53125 115.59722Q298.98438 115.59722 298.59375 115.36285Q298.20312 115.11285 297.98438 114.72222Q297.76562 114.31597 297.76562 113.8316ZM298.57812 113.37847L298.57812 113.8316Q298.57812 114.11285 298.6875 114.36285Q298.79688 114.59722 299.0 114.75347Q299.21875 114.8941 299.53125 114.8941Q299.84375 114.8941 300.04688 114.75347Q300.26562 114.59722 300.35938 114.36285Q300.45312 114.11285 300.45312 113.8316L300.45312 113.37847Q300.45312 113.09722 300.34375 112.86285Q300.25 112.62847 300.04688 112.48785Q299.84375 112.3316 299.51562 112.3316Q299.20312 112.3316 299.0 112.48785Q298.79688 112.62847 298.6875 112.86285Q298.57812 113.09722 298.57812 113.37847ZM299.78125 108.15972L295.625 114.81597L295.01562 114.44097L299.17188 107.7691L299.78125 108.15972Z" fill-rule="nonzero"/><path fill="#ffffff" d="M266.875 106.92535L266.96875 106.92535L266.96875 107.84722L266.875 107.84722Q266.01562 107.84722 265.42188 108.12847Q264.84375 108.40972 264.5 108.87847Q264.17188 109.3316 264.01562 109.92535Q263.875 110.50347 263.875 111.09722L263.875 112.34722Q263.875 112.90972 264.0 113.34722Q264.14062 113.78472 264.375 114.09722Q264.60938 114.3941 264.90625 114.55035Q265.20312 114.69097 265.51562 114.69097Q265.89062 114.69097 266.1875 114.55035Q266.48438 114.40972 266.6875 114.1441Q266.89062 113.87847 266.98438 113.53472Q267.09375 113.17535 267.09375 112.73785Q267.09375 112.36285 267.0 112.00347Q266.90625 111.6441 266.71875 111.37847Q266.53125 111.09722 266.23438 110.94097Q265.9375 110.7691 265.54688 110.7691Q265.09375 110.7691 264.70312 110.98785Q264.3125 111.2066 264.0625 111.56597Q263.8125 111.92535 263.78125 112.3316L263.20312 112.3316Q263.29688 111.67535 263.51562 111.2066Q263.73438 110.73785 264.07812 110.44097Q264.42188 110.1441 264.82812 110.0191Q265.25 109.87847 265.71875 109.87847Q266.35938 109.87847 266.8125 110.12847Q267.28125 110.36285 267.57812 110.7691Q267.89062 111.15972 268.03125 111.65972Q268.17188 112.15972 268.17188 112.69097Q268.17188 113.28472 268.0 113.81597Q267.82812 114.34722 267.48438 114.75347Q267.15625 115.1441 266.65625 115.37847Q266.17188 115.59722 265.51562 115.59722Q264.82812 115.59722 264.3125 115.31597Q263.79688 115.0191 263.45312 114.55035Q263.125 114.06597 262.95312 113.48785Q262.78125 112.90972 262.78125 112.31597L262.78125 111.80035Q262.78125 110.8941 262.95312 110.03472Q263.14062 109.15972 263.59375 108.4566Q264.04688 107.75347 264.84375 107.34722Q265.64062 106.92535 266.875 106.92535ZM273.875 106.92535L273.96875 106.92535L273.96875 107.84722L273.875 107.84722Q273.01562 107.84722 272.42188 108.12847Q271.84375 108.40972 271.5 108.87847Q271.17188 109.3316 271.01562 109.92535Q270.875 110.50347 270.875 111.09722L270.875 112.34722Q270.875 112.90972 271.0 113.34722Q271.14062 113.78472 271.375 114.09722Q271.60938 114.3941 271.90625 114.55035Q272.20312 114.69097 272.51562 114.69097Q272.89062 114.69097 273.1875 114.55035Q273.48438 114.40972 273.6875 114.1441Q273.89062 113.87847 273.98438 113.53472Q274.09375 113.17535 274.09375 112.73785Q274.09375 112.36285 274.0 112.00347Q273.90625 111.6441 273.71875 111.37847Q273.53125 111.09722 273.23438 110.94097Q272.9375 110.7691 272.54688 110.7691Q272.09375 110.7691 271.70312 110.98785Q271.3125 111.2066 271.0625 111.56597Q270.8125 111.92535 270.78125 112.3316L270.20312 112.3316Q270.29688 111.67535 270.51562 111.2066Q270.73438 110.73785 271.07812 110.44097Q271.42188 110.1441 271.82812 110.0191Q272.25 109.87847 272.71875 109.87847Q273.35938 109.87847 273.8125 110.12847Q274.28125 110.36285 274.57812 110.7691Q274.89062 111.15972 275.03125 111.65972Q275.17188 112.15972 275.17188 112.69097Q275.17188 113.28472 275.0 113.81597Q274.82812 114.34722 274.48438 114.75347Q274.15625 115.1441 273.65625 115.37847Q273.17188 115.59722 272.51562 115.59722Q271.82812 115.59722 271.3125 115.31597Q270.79688 115.0191 270.45312 114.55035Q270.125 114.06597 269.95312 113.48785Q269.78125 112.90972 269.78125 112.31597L269.78125 111.80035Q269.78125 110.8941 269.95312 110.03472Q270.14062 109.15972 270.59375 108.4566Q271.04688 107.75347 271.84375 107.34722Q272.64062 106.92535 273.875 106.92535ZM276.84375 114.8941Q276.84375 114.62847 277.01562 114.44097Q277.1875 114.23785 277.51562 114.23785Q277.84375 114.23785 278.01562 114.44097Q278.1875 114.62847 278.1875 114.8941Q278.1875 115.15972 278.01562 115.36285Q277.84375 115.55035 277.51562 115.55035Q277.1875 115.55035 277.01562 115.36285Q276.84375 115.15972 276.84375 114.8941ZM283.875 106.92535L283.96875 106.92535L283.96875 107.84722L283.875 107.84722Q283.01562 107.84722 282.42188 108.12847Q281.84375 108.40972 281.5 108.87847Q281.17188 109.3316 281.01562 109.92535Q280.875 110.50347 280.875 111.09722L280.875 112.34722Q280.875 112.90972 281.0 113.34722Q281.14062 113.78472 281.375 114.09722Q281.60938 114.3941 281.90625 114.55035Q282.20312 114.69097 282.51562 114.69097Q282.89062 114.69097 283.1875 114.55035Q283.48438 114.40972 283.6875 114.1441Q283.89062 113.87847 283.98438 113.53472Q284.09375 113.17535 284.09375 112.73785Q284.09375 112.36285 284.0 112.00347Q283.90625 111.6441 283.71875 111.37847Q283.53125 111.09722 283.23438 110.94097Q282.9375 110.7691 282.54688 110.7691Q282.09375 110.7691 281.70312 110.98785Q281.3125 111.2066 281.0625 111.56597Q280.8125 111.92535 280.78125 112.3316L280.20312 112.3316Q280.29688 111.67535 280.51562 111.2066Q280.73438 110.73785 281.07812 110.44097Q281.42188 110.1441 281.82812 110.0191Q282.25 109.87847 282.71875 109.87847Q283.35938 109.87847 283.8125 110.12847Q284.28125 110.36285 284.57812 110.7691Q284.89062 111.15972 285.03125 111.65972Q285.17188 112.15972 285.17188 112.69097Q285.17188 113.28472 285.0 113.81597Q284.82812 114.34722 284.48438 114.75347Q284.15625 115.1441 283.65625 115.37847Q283.17188 115.59722 282.51562 115.59722Q281.82812 115.59722 281.3125 115.31597Q280.79688 115.0191 280.45312 114.55035Q280.125 114.06597 279.95312 113.48785Q279.78125 112.90972 279.78125 112.31597L279.78125 111.80035Q279.78125 110.8941 279.95312 110.03472Q280.14062 109.15972 280.59375 108.4566Q281.04688 107.75347 281.84375 107.34722Q282.64062 106.92535 283.875 106.92535ZM292.21875 106.94097L292.21875 107.55035L288.6875 115.47222L287.54688 115.47222L291.07812 107.8316L286.45312 107.8316L286.45312 106.94097L292.21875 106.94097ZM293.60938 109.03472L293.60938 108.5816Q293.60938 108.09722 293.8125 107.7066Q294.03125 107.30035 294.42188 107.06597Q294.82812 106.81597 295.35938 106.81597Q295.90625 106.81597 296.29688 107.06597Q296.6875 107.30035 296.89062 107.7066Q297.10938 108.09722 297.10938 108.5816L297.10938 109.03472Q297.10938 109.50347 296.90625 109.90972Q296.70312 110.30035 296.3125 110.55035Q295.92188 110.78472 295.375 110.78472Q294.82812 110.78472 294.42188 110.55035Q294.03125 110.30035 293.8125 109.90972Q293.60938 109.50347 293.60938 109.03472ZM294.4375 108.5816L294.4375 109.03472Q294.4375 109.30035 294.53125 109.55035Q294.64062 109.78472 294.84375 109.94097Q295.0625 110.0816 295.375 110.0816Q295.6875 110.0816 295.89062 109.94097Q296.09375 109.78472 296.1875 109.55035Q296.29688 109.30035 296.29688 109.03472L296.29688 108.5816Q296.29688 108.30035 296.1875 108.06597Q296.09375 107.81597 295.875 107.67535Q295.67188 107.5191 295.35938 107.5191Q295.04688 107.5191 294.84375 107.67535Q294.64062 107.81597 294.53125 108.06597Q294.4375 108.30035 294.4375 108.5816ZM297.76562 113.8316L297.76562 113.37847Q297.76562 112.8941 297.96875 112.50347Q298.1875 112.09722 298.57812 111.86285Q298.98438 111.62847 299.51562 111.62847Q300.0625 111.62847 300.45312 111.86285Q300.84375 112.09722 301.04688 112.50347Q301.26562 112.8941 301.26562 113.37847L301.26562 113.8316Q301.26562 114.31597 301.0625 114.72222Q300.85938 115.11285 300.46875 115.36285Q300.07812 115.59722 299.53125 115.59722Q298.98438 115.59722 298.59375 115.36285Q298.20312 115.11285 297.98438 114.72222Q297.76562 114.31597 297.76562 113.8316ZM298.57812 113.37847L298.57812 113.8316Q298.57812 114.11285 298.6875 114.36285Q298.79688 114.59722 299.0 114.75347Q299.21875 114.8941 299.53125 114.8941Q299.84375 114.8941 300.04688 114.75347Q300.26562 114.59722 300.35938 114.36285Q300.45312 114.11285 300.45312 113.8316L300.45312 113.37847Q300.45312 113.09722 300.34375 112.86285Q300.25 112.62847 300.04688 112.48785Q299.84375 112.3316 299.51562 112.3316Q299.20312 112.3316 299.0 112.48785Q298.79688 112.62847 298.6875 112.86285Q298.57812 113.09722 298.57812 113.37847ZM299.78125 108.15972L295.625 114.81597L295.01562 114.44097L299.17188 107.7691L299.78125 108.15972Z" fill-rule="nonzero"/><path stroke="#ea4335" stroke-width="3.0" stroke-linejoin="round" stroke-linecap="round" d="M384.21875 71.874306L384.21875 72.48368L380.6875 80.405556L379.54688 80.405556L383.07812 72.76493L378.45312 72.76493L378.45312 71.874306L384.21875 71.874306ZM389.875 71.85868L389.96875 71.85868L389.96875 72.780556L389.875 72.780556Q389.01562 72.780556 388.42188 73.061806Q387.84375 73.343056 387.5 73.811806Q387.17188 74.26493 387.01562 74.85868Q386.875 75.436806 386.875 76.030556L386.875 77.280556Q386.875 77.843056 387.0 78.280556Q387.14062 78.718056 387.375 79.030556Q387.60938 79.32743 387.90625 79.48368Q388.20312 79.624306 388.51562 79.624306Q388.89062 79.624306 389.1875 79.48368Q389.48438 79.343056 389.6875 79.07743Q389.89062 78.811806 389.98438 78.468056Q390.09375 78.10868 390.09375 77.67118Q390.09375 77.29618 390.0 76.936806Q389.90625 76.57743 389.71875 76.311806Q389.53125 76.030556 389.23438 75.874306Q388.9375 75.70243 388.54688 75.70243Q388.09375 75.70243 387.70312 75.92118Q387.3125 76.13993 387.0625 76.499306Q386.8125 76.85868 386.78125 77.26493L386.20312 77.26493Q386.29688 76.60868 386.51562 76.13993Q386.73438 75.67118 387.07812 75.374306Q387.42188 75.07743 387.82812 74.95243Q388.25 74.811806 388.71875 74.811806Q389.35938 74.811806 389.8125 75.061806Q390.28125 75.29618 390.57812 75.70243Q390.89062 76.093056 391.03125 76.593056Q391.17188 77.093056 391.17188 77.624306Q391.17188 78.218056 391.0 78.749306Q390.82812 79.280556 390.48438 79.686806Q390.15625 80.07743 389.65625 80.311806Q389.17188 80.530556 388.51562 80.530556Q387.82812 80.530556 387.3125 80.249306Q386.79688 79.95243 386.45312 79.48368Q386.125 78.999306 385.95312 78.42118Q385.78125 77.843056 385.78125 77.249306L385.78125 76.73368Q385.78125 75.82743 385.95312 74.968056Q386.14062 74.093056 386.59375 73.38993Q387.04688 72.686806 387.84375 72.280556Q388.64062 71.85868 389.875 71.85868ZM392.84375 79.82743Q392.84375 79.561806 393.01562 79.374306Q393.1875 79.17118 393.51562 79.17118Q393.84375 79.17118 394.01562 79.374306Q394.1875 79.561806 394.1875 79.82743Q394.1875 80.093056 394.01562 80.29618Q393.84375 80.48368 393.51562 80.48368Q393.1875 80.48368 393.01562 80.29618Q392.84375 80.093056 392.84375 79.82743ZM399.875 71.85868L399.96875 71.85868L399.96875 72.780556L399.875 72.780556Q399.01562 72.780556 398.42188 73.061806Q397.84375 73.343056 397.5 73.811806Q397.17188 74.26493 397.01562 74.85868Q396.875 75.436806 396.875 76.030556L396.875 77.280556Q396.875 77.843056 397.0 78.280556Q397.14062 78.718056 397.375 79.030556Q397.60938 79.32743 397.90625 79.48368Q398.20312 79.624306 398.51562 79.624306Q398.89062 79.624306 399.1875 79.48368Q399.48438 79.343056 399.6875 79.07743Q399.89062 78.811806 399.98438 78.468056Q400.09375 78.10868 400.09375 77.67118Q400.09375 77.29618 400.0 76.936806Q399.90625 76.57743 399.71875 76.311806Q399.53125 76.030556 399.23438 75.874306Q398.9375 75.70243 398.54688 75.70243Q398.09375 75.70243 397.70312 75.92118Q397.3125 76.13993 397.0625 76.499306Q396.8125 76.85868 396.78125 77.26493L396.20312 77.26493Q396.29688 76.60868 396.51562 76.13993Q396.73438 75.67118 397.07812 75.374306Q397.42188 75.07743 397.82812 74.95243Q398.25 74.811806 398.71875 74.811806Q399.35938 74.811806 399.8125 75.061806Q400.28125 75.29618 400.57812 75.70243Q400.89062 76.093056 401.03125 76.593056Q401.17188 77.093056 401.17188 77.624306Q401.17188 78.218056 401.0 78.749306Q400.82812 79.280556 400.48438 79.686806Q400.15625 80.07743 399.65625 80.311806Q399.17188 80.530556 398.51562 80.530556Q397.82812 80.530556 397.3125 80.249306Q396.79688 79.95243 396.45312 79.48368Q396.125 78.999306 395.95312 78.42118Q395.78125 77.843056 395.78125 77.249306L395.78125 76.73368Q395.78125 75.82743 395.95312 74.968056Q396.14062 74.093056 396.59375 73.38993Q397.04688 72.686806 397.84375 72.280556Q398.64062 71.85868 399.875 71.85868ZM408.21875 71.874306L408.21875 72.48368L404.6875 80.405556L403.54688 80.405556L407.07812 72.76493L402.45312 72.76493L402.45312 71.874306L408.21875 71.874306ZM409.60938 73.968056L409.60938 73.51493Q409.60938 73.030556 409.8125 72.63993Q410.03125 72.23368 410.42188 71.999306Q410.82812 71.749306 411.35938 71.749306Q411.90625 71.749306 412.29688 71.999306Q412.6875 72.23368 412.89062 72.63993Q413.10938 73.030556 413.10938 73.51493L413.10938 73.968056Q413.10938 74.436806 412.90625 74.843056Q412.70312 75.23368 412.3125 75.48368Q411.92188 75.718056 411.375 75.718056Q410.82812 75.718056 410.42188 75.48368Q410.03125 75.23368 409.8125 74.843056Q409.60938 74.436806 409.60938 73.968056ZM410.4375 73.51493L410.4375 73.968056Q410.4375 74.23368 410.53125 74.48368Q410.64062 74.718056 410.84375 74.874306Q411.0625 75.01493 411.375 75.01493Q411.6875 75.01493 411.89062 74.874306Q412.09375 74.718056 412.1875 74.48368Q412.29688 74.23368 412.29688 73.968056L412.29688 73.51493Q412.29688 73.23368 412.1875 72.999306Q412.09375 72.749306 411.875 72.60868Q411.67188 72.45243 411.35938 72.45243Q411.04688 72.45243 410.84375 72.60868Q410.64062 72.749306 410.53125 72.999306Q410.4375 73.23368 410.4375 73.51493ZM413.76562 78.76493L413.76562 78.311806Q413.76562 77.82743 413.96875 77.436806Q414.1875 77.030556 414.57812 76.79618Q414.98438 76.561806 415.51562 76.561806Q416.0625 76.561806 416.45312 76.79618Q416.84375 77.030556 417.04688 77.436806Q417.26562 77.82743 417.26562 78.311806L417.26562 78.76493Q417.26562 79.249306 417.0625 79.655556Q416.85938 80.04618 416.46875 80.29618Q416.07812 80.530556 415.53125 80.530556Q414.98438 80.530556 414.59375 80.29618Q414.20312 80.04618 413.98438 79.655556Q413.76562 79.249306 413.76562 78.76493ZM414.57812 78.311806L414.57812 78.76493Q414.57812 79.04618 414.6875 79.29618Q414.79688 79.530556 415.0 79.686806Q415.21875 79.82743 415.53125 79.82743Q415.84375 79.82743 416.04688 79.686806Q416.26562 79.530556 416.35938 79.29618Q416.45312 79.04618 416.45312 78.76493L416.45312 78.311806Q416.45312 78.030556 416.34375 77.79618Q416.25 77.561806 416.04688 77.42118Q415.84375 77.26493 415.51562 77.26493Q415.20312 77.26493 415.0 77.42118Q414.79688 77.561806 414.6875 77.79618Q414.57812 78.030556 414.57812 78.311806ZM415.78125 73.093056L411.625 79.749306L411.01562 79.374306L415.17188 72.70243L415.78125 73.093056Z" fill-rule="nonzero"/><path fill="#ffffff" d="M384.21875 71.874306L384.21875 72.48368L380.6875 80.405556L379.54688 80.405556L383.07812 72.76493L378.45312 72.76493L378.45312 71.874306L384.21875 71.874306ZM389.875 71.85868L389.96875 71.85868L389.96875 72.780556L389.875 72.780556Q389.01562 72.780556 388.42188 73.061806Q387.84375 73.343056 387.5 73.811806Q387.17188 74.26493 387.01562 74.85868Q386.875 75.436806 386.875 76.030556L386.875 77.280556Q386.875 77.843056 387.0 78.280556Q387.14062 78.718056 387.375 79.030556Q387.60938 79.32743 387.90625 79.48368Q388.20312 79.624306 388.51562 79.624306Q388.89062 79.624306 389.1875 79.48368Q389.48438 79.343056 389.6875 79.07743Q389.89062 78.811806 389.98438 78.468056Q390.09375 78.10868 390.09375 77.67118Q390.09375 77.29618 390.0 76.936806Q389.90625 76.57743 389.71875 76.311806Q389.53125 76.030556 389.23438 75.874306Q388.9375 75.70243 388.54688 75.70243Q388.09375 75.70243 387.70312 75.92118Q387.3125 76.13993 387.0625 76.499306Q386.8125 76.85868 386.78125 77.26493L386.20312 77.26493Q386.29688 76.60868 386.51562 76.13993Q386.73438 75.67118 387.07812 75.374306Q387.42188 75.07743 387.82812 74.95243Q388.25 74.811806 388.71875 74.811806Q389.35938 74.811806 389.8125 75.061806Q390.28125 75.29618 390.57812 75.70243Q390.89062 76.093056 391.03125 76.593056Q391.17188 77.093056 391.17188 77.624306Q391.17188 78.218056 391.0 78.749306Q390.82812 79.280556 390.48438 79.686806Q390.15625 80.07743 389.65625 80.311806Q389.17188 80.530556 388.51562 80.530556Q387.82812 80.530556 387.3125 80.249306Q386.79688 79.95243 386.45312 79.48368Q386.125 78.999306 385.95312 78.42118Q385.78125 77.843056 385.78125 77.249306L385.78125 76.73368Q385.78125 75.82743 385.95312 74.968056Q386.14062 74.093056 386.59375 73.38993Q387.04688 72.686806 387.84375 72.280556Q388.64062 71.85868 389.875 71.85868ZM392.84375 79.82743Q392.84375 79.561806 393.01562 79.374306Q393.1875 79.17118 393.51562 79.17118Q393.84375 79.17118 394.01562 79.374306Q394.1875 79.561806 394.1875 79.82743Q394.1875 80.093056 394.01562 80.29618Q393.84375 80.48368 393.51562 80.48368Q393.1875 80.48368 393.01562 80.29618Q392.84375 80.093056 392.84375 79.82743ZM399.875 71.85868L399.96875 71.85868L399.96875 72.780556L399.875 72.780556Q399.01562 72.780556 398.42188 73.061806Q397.84375 73.343056 397.5 73.811806Q397.17188 74.26493 397.01562 74.85868Q396.875 75.436806 396.875 76.030556L396.875 77.280556Q396.875 77.843056 397.0 78.280556Q397.14062 78.718056 397.375 79.030556Q397.60938 79.32743 397.90625 79.48368Q398.20312 79.624306 398.51562 79.624306Q398.89062 79.624306 399.1875 79.48368Q399.48438 79.343056 399.6875 79.07743Q399.89062 78.811806 399.98438 78.468056Q400.09375 78.10868 400.09375 77.67118Q400.09375 77.29618 400.0 76.936806Q399.90625 76.57743 399.71875 76.311806Q399.53125 76.030556 399.23438 75.874306Q398.9375 75.70243 398.54688 75.70243Q398.09375 75.70243 397.70312 75.92118Q397.3125 76.13993 397.0625 76.499306Q396.8125 76.85868 396.78125 77.26493L396.20312 77.26493Q396.29688 76.60868 396.51562 76.13993Q396.73438 75.67118 397.07812 75.374306Q397.42188 75.07743 397.82812 74.95243Q398.25 74.811806 398.71875 74.811806Q399.35938 74.811806 399.8125 75.061806Q400.28125 75.29618 400.57812 75.70243Q400.89062 76.093056 401.03125 76.593056Q401.17188 77.093056 401.17188 77.624306Q401.17188 78.218056 401.0 78.749306Q400.82812 79.280556 400.48438 79.686806Q400.15625 80.07743 399.65625 80.311806Q399.17188 80.530556 398.51562 80.530556Q397.82812 80.530556 397.3125 80.249306Q396.79688 79.95243 396.45312 79.48368Q396.125 78.999306 395.95312 78.42118Q395.78125 77.843056 395.78125 77.249306L395.78125 76.73368Q395.78125 75.82743 395.95312 74.968056Q396.14062 74.093056 396.59375 73.38993Q397.04688 72.686806 397.84375 72.280556Q398.64062 71.85868 399.875 71.85868ZM408.21875 71.874306L408.21875 72.48368L404.6875 80.405556L403.54688 80.405556L407.07812 72.76493L402.45312 72.76493L402.45312 71.874306L408.21875 71.874306ZM409.60938 73.968056L409.60938 73.51493Q409.60938 73.030556 409.8125 72.63993Q410.03125 72.23368 410.42188 71.999306Q410.82812 71.749306 411.35938 71.749306Q411.90625 71.749306 412.29688 71.999306Q412.6875 72.23368 412.89062 72.63993Q413.10938 73.030556 413.10938 73.51493L413.10938 73.968056Q413.10938 74.436806 412.90625 74.843056Q412.70312 75.23368 412.3125 75.48368Q411.92188 75.718056 411.375 75.718056Q410.82812 75.718056 410.42188 75.48368Q410.03125 75.23368 409.8125 74.843056Q409.60938 74.436806 409.60938 73.968056ZM410.4375 73.51493L410.4375 73.968056Q410.4375 74.23368 410.53125 74.48368Q410.64062 74.718056 410.84375 74.874306Q411.0625 75.01493 411.375 75.01493Q411.6875 75.01493 411.89062 74.874306Q412.09375 74.718056 412.1875 74.48368Q412.29688 74.23368 412.29688 73.968056L412.29688 73.51493Q412.29688 73.23368 412.1875 72.999306Q412.09375 72.749306 411.875 72.60868Q411.67188 72.45243 411.35938 72.45243Q411.04688 72.45243 410.84375 72.60868Q410.64062 72.749306 410.53125 72.999306Q410.4375 73.23368 410.4375 73.51493ZM413.76562 78.76493L413.76562 78.311806Q413.76562 77.82743 413.96875 77.436806Q414.1875 77.030556 414.57812 76.79618Q414.98438 76.561806 415.51562 76.561806Q416.0625 76.561806 416.45312 76.79618Q416.84375 77.030556 417.04688 77.436806Q417.26562 77.82743 417.26562 78.311806L417.26562 78.76493Q417.26562 79.249306 417.0625 79.655556Q416.85938 80.04618 416.46875 80.29618Q416.07812 80.530556 415.53125 80.530556Q414.98438 80.530556 414.59375 80.29618Q414.20312 80.04618 413.98438 79.655556Q413.76562 79.249306 413.76562 78.76493ZM414.57812 78.311806L414.57812 78.76493Q414.57812 79.04618 414.6875 79.29618Q414.79688 79.530556 415.0 79.686806Q415.21875 79.82743 415.53125 79.82743Q415.84375 79.82743 416.04688 79.686806Q416.26562 79.530556 416.35938 79.29618Q416.45312 79.04618 416.45312 78.76493L416.45312 78.311806Q416.45312 78.030556 416.34375 77.79618Q416.25 77.561806 416.04688 77.42118Q415.84375 77.26493 415.51562 77.26493Q415.20312 77.26493 415.0 77.42118Q414.79688 77.561806 414.6875 77.79618Q414.57812 78.030556 414.57812 78.311806ZM415.78125 73.093056L411.625 79.749306L411.01562 79.374306L415.17188 72.70243L415.78125 73.093056Z" fill-rule="nonzero"/><path fill="#000000" d="M27.112513 251.83958L26.971888 250.80833Q27.956263 250.77708 28.315638 250.44896Q28.675013 250.12083 28.675013 249.52708Q28.675013 249.10521 28.487513 248.79271Q28.284388 248.48021 27.956263 248.37083Q27.612513 248.24583 26.878138 248.24583L20.956263 248.24583L20.956263 247.12083L26.815638 247.12083Q27.893763 247.12083 28.487513 247.38646Q29.081263 247.63646 29.393763 248.19896Q29.690638 248.76146 29.690638 249.52708Q29.690638 250.65208 29.050013 251.26146Q28.393763 251.85521 27.112513 251.83958ZM29.550013 241.30833L28.628138 241.30833Q29.690638 242.04271 29.690638 243.29271Q29.690638 243.83958 29.487513 244.32396Q29.268763 244.79271 28.956263 245.02708Q28.628138 245.26146 28.159388 245.35521Q27.862513 245.41771 27.175013 245.41771L23.331263 245.41771L23.331263 244.35521L26.784388 244.35521Q27.596888 244.35521 27.893763 244.29271Q28.300013 244.19896 28.550013 243.88646Q28.784388 243.55833 28.784388 243.07396Q28.784388 242.60521 28.550013 242.19896Q28.300013 241.77708 27.878138 241.60521Q27.456263 241.41771 26.659388 241.41771L23.331263 241.41771L23.331263 240.37083L29.550013 240.37083L29.550013 241.30833ZM29.550013 234.35521L28.768763 234.35521Q29.690638 234.94896 29.690638 236.08958Q29.690638 236.83958 29.284388 237.46458Q28.862513 238.08958 28.128138 238.43333Q27.393763 238.77708 26.440638 238.77708Q25.518763 238.77708 24.753138 238.46458Q23.987513 238.15208 23.596888 237.52708Q23.190638 236.90208 23.190638 236.13646Q23.190638 235.57396 23.425013 235.13646Q23.659388 234.69896 24.034388 234.41771L20.956263 234.41771L20.956263 233.37083L29.550013 233.37083L29.550013 234.35521ZM26.440638 237.68333Q27.643763 237.68333 28.237513 237.18333Q28.815638 236.68333 28.815638 235.99583Q28.815638 235.30833 28.253138 234.82396Q27.690638 234.33958 26.534388 234.33958Q25.253138 234.33958 24.659388 234.83958Q24.065638 235.32396 24.065638 236.04271Q24.065638 236.74583 24.643763 237.21458Q25.206263 237.68333 26.440638 237.68333ZM30.065638 231.58958L30.221888 230.55833Q30.690638 230.49583 30.909388 230.19896Q31.206263 229.80833 31.206263 229.13646Q31.206263 228.40208 30.909388 228.01146Q30.612513 227.60521 30.096888 227.46458Q29.768763 227.37083 28.737513 227.38646Q29.550013 228.07396 29.550013 229.10521Q29.550013 230.38646 28.628138 231.08958Q27.690638 231.79271 26.409388 231.79271Q25.518763 231.79271 24.768763 231.48021Q24.003138 231.15208 23.596888 230.54271Q23.190638 229.93333 23.190638 229.10521Q23.190638 227.99583 24.081263 227.27708L23.331263 227.27708L23.331263 226.30833L28.706263 226.30833Q30.159388 226.30833 30.768763 226.60521Q31.378138 226.90208 31.721888 227.54271Q32.08126 228.18333 32.08126 229.12083Q32.08126 230.23021 31.581263 230.91771Q31.081263 231.60521 30.065638 231.58958ZM26.331263 230.71458Q27.550013 230.71458 28.112513 230.23021Q28.675013 229.74583 28.675013 229.01146Q28.675013 228.27708 28.112513 227.79271Q27.550013 227.29271 26.362513 227.29271Q25.221888 227.29271 24.643763 227.80833Q24.065638 228.30833 24.065638 229.02708Q24.065638 229.73021 24.643763 230.23021Q25.206263 230.71458 26.331263 230.71458ZM27.550013 220.13646L27.675013 219.04271Q28.628138 219.29271 29.159388 219.99583Q29.690638 220.69896 29.690638 221.77708Q29.690638 223.13646 28.846888 223.94896Q28.003138 224.74583 26.487513 224.74583Q24.925013 224.74583 24.065638 223.93333Q23.190638 223.12083 23.190638 221.83958Q23.190638 220.58958 24.034388 219.80833Q24.878138 219.01146 26.425013 219.01146Q26.518763 219.01146 26.706263 219.01146L26.706263 223.65208Q27.737513 223.58958 28.284388 223.07396Q28.815638 222.55833 28.815638 221.77708Q28.815638 221.19896 28.518763 220.79271Q28.206263 220.37083 27.550013 220.13646ZM25.846888 223.58958L25.846888 220.12083Q25.050013 220.18333 24.659388 220.51146Q24.050013 221.02708 24.050013 221.82396Q24.050013 222.55833 24.534388 223.05833Q25.018763 223.54271 25.846888 223.58958ZM29.550013 215.19896L20.956263 211.90208L20.956263 210.68333L29.550013 207.16771L29.550013 208.44896L26.940638 209.46458L26.940638 213.04271L29.550013 213.99583L29.550013 215.19896ZM26.018763 212.71458L26.018763 209.80833L23.643763 210.69896Q22.565638 211.12083 21.862513 211.30833Q22.690638 211.48021 23.503138 211.77708L26.018763 212.71458ZM27.268763 203.32396L27.409388 202.29271Q28.471888 202.46458 29.081263 203.16771Q29.690638 203.87083 29.690638 204.88646Q29.690638 206.16771 28.862513 206.94896Q28.018763 207.71458 26.456263 207.71458Q25.456263 207.71458 24.706263 207.38646Q23.940638 207.04271 23.565638 206.37083Q23.190638 205.68333 23.190638 204.87083Q23.190638 203.87083 23.706263 203.23021Q24.206263 202.57396 25.159388 202.38646L25.315638 203.41771Q24.690638 203.55833 24.378138 203.93333Q24.050013 204.30833 24.050013 204.83958Q24.050013 205.63646 24.628138 206.13646Q25.190638 206.63646 26.425013 206.63646Q27.690638 206.63646 28.253138 206.15208Q28.815638 205.66771 28.815638 204.90208Q28.815638 204.27708 28.440638 203.87083Q28.065638 203.44896 27.268763 203.32396ZM27.268763 197.32396L27.409388 196.29271Q28.471888 196.46458 29.081263 197.16771Q29.690638 197.87083 29.690638 198.88646Q29.690638 200.16771 28.862513 200.94896Q28.018763 201.71458 26.456263 201.71458Q25.456263 201.71458 24.706263 201.38646Q23.940638 201.04271 23.565638 200.37083Q23.190638 199.68333 23.190638 198.87083Q23.190638 197.87083 23.706263 197.23021Q24.206263 196.57396 25.159388 196.38646L25.315638 197.41771Q24.690638 197.55833 24.378138 197.93333Q24.050013 198.30833 24.050013 198.83958Q24.050013 199.63646 24.628138 200.13646Q25.190638 200.63646 26.425013 200.63646Q27.690638 200.63646 28.253138 200.15208Q28.815638 199.66771 28.815638 198.90208Q28.815638 198.27708 28.440638 197.87083Q28.065638 197.44896 27.268763 197.32396ZM29.550013 191.30833L28.628138 191.30833Q29.690638 192.04271 29.690638 193.29271Q29.690638 193.83958 29.487513 194.32396Q29.268763 194.79271 28.956263 195.02708Q28.628138 195.26146 28.159388 195.35521Q27.862513 195.41771 27.175013 195.41771L23.331263 195.41771L23.331263 194.35521L26.784388 194.35521Q27.596888 194.35521 27.893763 194.29271Q28.300013 194.19896 28.550013 193.88646Q28.784388 193.55833 28.784388 193.07396Q28.784388 192.60521 28.550013 192.19896Q28.300013 191.77708 27.878138 191.60521Q27.456263 191.41771 26.659388 191.41771L23.331263 191.41771L23.331263 190.37083L29.550013 190.37083L29.550013 191.30833ZM29.550013 188.40208L23.331263 188.40208L23.331263 187.44896L24.268763 187.44896Q23.612513 187.08958 23.409388 186.79271Q23.190638 186.48021 23.190638 186.10521Q23.190638 185.57396 23.518763 185.02708L24.503138 185.38646Q24.268763 185.77708 24.268763 186.15208Q24.268763 186.51146 24.487513 186.79271Q24.690638 187.05833 25.065638 187.16771Q25.628138 187.35521 26.284388 187.35521L29.550013 187.35521L29.550013 188.40208ZM28.784388 180.32396Q29.284388 180.91771 29.487513 181.46458Q29.690638 181.99583 29.690638 182.62083Q29.690638 183.65208 29.190638 184.19896Q28.690638 184.74583 27.909388 184.74583Q27.456263 184.74583 27.081263 184.54271Q26.690638 184.33958 26.471888 183.99583Q26.237513 183.65208 26.128138 183.23021Q26.034388 182.93333 25.956263 182.29271Q25.815638 181.02708 25.596888 180.41771Q25.378138 180.41771 25.331263 180.41771Q24.675013 180.41771 24.409388 180.71458Q24.065638 181.12083 24.065638 181.91771Q24.065638 182.65208 24.331263 183.01146Q24.581263 183.37083 25.237513 183.54271L25.096888 184.57396Q24.440638 184.43333 24.034388 184.10521Q23.628138 183.77708 23.409388 183.16771Q23.190638 182.55833 23.190638 181.76146Q23.190638 180.96458 23.378138 180.46458Q23.565638 179.96458 23.846888 179.73021Q24.128138 179.49583 24.565638 179.40208Q24.831263 179.35521 25.534388 179.35521L26.940638 179.35521Q28.409388 179.35521 28.800013 179.29271Q29.190638 179.21458 29.550013 179.01146L29.550013 180.12083Q29.221888 180.27708 28.784388 180.32396ZM26.425013 180.41771Q26.659388 180.99583 26.831263 182.13646Q26.925013 182.79271 27.050013 183.05833Q27.159388 183.32396 27.378138 183.48021Q27.596888 183.62083 27.878138 183.62083Q28.300013 183.62083 28.581263 183.30833Q28.862513 182.98021 28.862513 182.37083Q28.862513 181.76146 28.596888 181.29271Q28.331263 180.80833 27.862513 180.58958Q27.503138 180.41771 26.815638 180.41771L26.425013 180.41771ZM27.268763 173.32396L27.409388 172.29271Q28.471888 172.46458 29.081263 173.16771Q29.690638 173.87083 29.690638 174.88646Q29.690638 176.16771 28.862513 176.94896Q28.018763 177.71458 26.456263 177.71458Q25.456263 177.71458 24.706263 177.38646Q23.940638 177.04271 23.565638 176.37083Q23.190638 175.68333 23.190638 174.87083Q23.190638 173.87083 23.706263 173.23021Q24.206263 172.57396 25.159388 172.38646L25.315638 173.41771Q24.690638 173.55833 24.378138 173.93333Q24.050013 174.30833 24.050013 174.83958Q24.050013 175.63646 24.628138 176.13646Q25.190638 176.63646 26.425013 176.63646Q27.690638 176.63646 28.253138 176.15208Q28.815638 175.66771 28.815638 174.90208Q28.815638 174.27708 28.440638 173.87083Q28.065638 173.44896 27.268763 173.32396ZM31.940638 171.43333L30.956263 171.55833Q31.050013 171.21458 31.050013 170.94896Q31.050013 170.60521 30.925013 170.40208Q30.815638 170.18333 30.612513 170.04271Q30.440638 169.94896 29.815638 169.71458Q29.737513 169.69896 29.565638 169.62083L23.331263 171.99583L23.331263 170.85521L26.925013 169.55833Q27.612513 169.30833 28.378138 169.10521Q27.643763 168.91771 26.956263 168.66771L23.331263 167.33958L23.331263 166.29271L29.659388 168.65208Q30.675013 169.04271 31.065638 169.24583Q31.596888 169.52708 31.831263 169.90208Q32.08126 170.26146 32.08126 170.76146Q32.08126 171.05833 31.940638 171.43333ZM32.08126 161.37083Q30.971888 162.24583 29.503138 162.85521Q28.018763 163.44896 26.440638 163.44896Q25.050013 163.44896 23.768763 163.01146Q22.284388 162.48021 20.815638 161.37083L20.815638 160.62083Q22.034388 161.32396 22.550013 161.55833Q23.362513 161.91771 24.237513 162.12083Q25.331263 162.37083 26.440638 162.37083Q29.268763 162.37083 32.08126 160.62083L32.08126 161.37083ZM23.018763 159.48021Q22.096888 159.48021 21.456263 159.02708Q20.815638 158.55833 20.815638 157.68333Q20.815638 156.87083 21.393763 156.33958Q21.971888 155.80833 23.081263 155.80833Q24.175013 155.80833 24.768763 156.35521Q25.346888 156.88646 25.346888 157.66771Q25.346888 158.44896 24.768763 158.96458Q24.190638 159.48021 23.018763 159.48021ZM21.534388 157.65208Q21.534388 158.04271 21.878138 158.30833Q22.221888 158.55833 23.128138 158.55833Q23.956263 158.55833 24.300013 158.30833Q24.628138 158.04271 24.628138 157.65208Q24.628138 157.24583 24.284388 156.99583Q23.940638 156.73021 23.050013 156.73021Q22.206263 156.73021 21.878138 156.99583Q21.534388 157.26146 21.534388 157.65208ZM29.862513 157.65208L20.815638 152.94896L20.815638 152.08958L29.862513 156.77708L29.862513 157.65208ZM27.534388 153.93333Q26.612513 153.93333 25.971888 153.48021Q25.331263 153.01146 25.331263 152.12083Q25.331263 151.30833 25.909388 150.77708Q26.471888 150.24583 27.596888 150.24583Q28.690638 150.24583 29.284388 150.79271Q29.862513 151.32396 29.862513 152.12083Q29.862513 152.88646 29.284388 153.41771Q28.706263 153.93333 27.534388 153.93333ZM26.050013 152.08958Q26.050013 152.49583 26.393763 152.76146Q26.737513 153.01146 27.643763 153.01146Q28.456263 153.01146 28.800013 152.74583Q29.143763 152.48021 29.143763 152.08958Q29.143763 151.69896 28.800013 151.43333Q28.456263 151.16771 27.550013 151.16771Q26.721888 151.16771 26.393763 151.43333Q26.050013 151.69896 26.050013 152.08958ZM32.08126 147.69896L32.08126 148.44896Q29.268763 146.69896 26.440638 146.69896Q25.346888 146.69896 24.253138 146.94896Q23.378138 147.15208 22.565638 147.51146Q22.050013 147.74583 20.815638 148.44896L20.815638 147.69896Q22.284388 146.60521 23.768763 146.07396Q25.050013 145.62083 26.440638 145.62083Q28.018763 145.62083 29.503138 146.23021Q30.971888 146.83958 32.08126 147.69896Z" fill-rule="nonzero"/><path fill="#000000" d="M58.05 332.21564Q58.05 330.6844 58.3625 329.7625Q58.675 328.825 59.284374 328.325Q59.909374 327.825 60.846874 327.825Q61.534374 327.825 62.05 328.10626Q62.58125 328.3875 62.925 328.91876Q63.26875 329.4344 63.45625 330.1844Q63.64375 330.9344 63.64375 332.21564Q63.64375 333.73126 63.33125 334.65314Q63.034374 335.575 62.409374 336.09064Q61.8 336.59064 60.846874 336.59064Q59.6125 336.59064 58.89375 335.7Q58.05 334.6375 58.05 332.21564ZM59.128124 332.21564Q59.128124 334.325 59.628124 335.02814Q60.128124 335.73126 60.846874 335.73126Q61.58125 335.73126 62.065624 335.02814Q62.565624 334.325 62.565624 332.21564Q62.565624 330.09064 62.065624 329.40314Q61.58125 328.7 60.83125 328.7Q60.1125 328.7 59.675 329.3094Q59.128124 330.09064 59.128124 332.21564ZM65.64375 336.45L65.64375 335.2469L66.84688 335.2469L66.84688 336.45L65.64375 336.45ZM68.05 332.21564Q68.05 330.6844 68.3625 329.7625Q68.675 328.825 69.28438 328.325Q69.90938 327.825 70.84688 327.825Q71.53438 327.825 72.05 328.10626Q72.58125 328.3875 72.925 328.91876Q73.26875 329.4344 73.45625 330.1844Q73.64375 330.9344 73.64375 332.21564Q73.64375 333.73126 73.33125 334.65314Q73.03438 335.575 72.40938 336.09064Q71.8 336.59064 70.84688 336.59064Q69.6125 336.59064 68.89375 335.7Q68.05 334.6375 68.05 332.21564ZM69.12813 332.21564Q69.12813 334.325 69.62813 335.02814Q70.12813 335.73126 70.84688 335.73126Q71.58125 335.73126 72.06563 335.02814Q72.56563 334.325 72.56563 332.21564Q72.56563 330.09064 72.06563 329.40314Q71.58125 328.7 70.83125 328.7Q70.1125 328.7 69.675 329.3094Q69.12813 330.09064 69.12813 332.21564ZM75.05 332.21564Q75.05 330.6844 75.3625 329.7625Q75.675 328.825 76.28438 328.325Q76.90938 327.825 77.84688 327.825Q78.53438 327.825 79.05 328.10626Q79.58125 328.3875 79.925 328.91876Q80.26875 329.4344 80.45625 330.1844Q80.64375 330.9344 80.64375 332.21564Q80.64375 333.73126 80.33125 334.65314Q80.03438 335.575 79.40938 336.09064Q78.8 336.59064 77.84688 336.59064Q76.6125 336.59064 75.89375 335.7Q75.05 334.6375 75.05 332.21564ZM76.12813 332.21564Q76.12813 334.325 76.62813 335.02814Q77.12813 335.73126 77.84688 335.73126Q78.58125 335.73126 79.06563 335.02814Q79.56563 334.325 79.56563 332.21564Q79.56563 330.09064 79.06563 329.40314Q78.58125 328.7 77.83125 328.7Q77.1125 328.7 76.675 329.3094Q76.12813 330.09064 76.12813 332.21564ZM82.25313 329.91876Q82.25313 328.9969 82.70625 328.35626Q83.175 327.71564 84.05 327.71564Q84.8625 327.71564 85.39375 328.29376Q85.925 328.8719 85.925 329.98126Q85.925 331.075 85.37813 331.66876Q84.84688 332.2469 84.06563 332.2469Q83.28438 332.2469 82.76875 331.66876Q82.25313 331.09064 82.25313 329.91876ZM84.08125 328.4344Q83.69063 328.4344 83.425 328.77814Q83.175 329.1219 83.175 330.02814Q83.175 330.85626 83.425 331.2Q83.69063 331.52814 84.08125 331.52814Q84.4875 331.52814 84.7375 331.1844Q85.00313 330.84064 85.00313 329.95Q85.00313 329.10626 84.7375 328.77814Q84.47188 328.4344 84.08125 328.4344ZM84.08125 336.7625L88.78438 327.71564L89.64375 327.71564L84.95625 336.7625L84.08125 336.7625ZM87.8 334.4344Q87.8 333.5125 88.25313 332.8719Q88.72188 332.23126 89.6125 332.23126Q90.425 332.23126 90.95625 332.8094Q91.4875 333.3719 91.4875 334.4969Q91.4875 335.59064 90.94063 336.1844Q90.40938 336.7625 89.6125 336.7625Q88.84688 336.7625 88.31563 336.1844Q87.8 335.60626 87.8 334.4344ZM89.64375 332.95Q89.2375 332.95 88.97188 333.29376Q88.72188 333.6375 88.72188 334.54376Q88.72188 335.35626 88.9875 335.7Q89.25313 336.04376 89.64375 336.04376Q90.03438 336.04376 90.3 335.7Q90.56563 335.35626 90.56563 334.45Q90.56563 333.6219 90.3 333.29376Q90.03438 332.95 89.64375 332.95Z" fill-rule="nonzero"/><path fill="#000000" d="M56.596874 265.30106L56.596874 266.31668L50.909374 266.31668Q50.909374 265.94168 51.034374 265.5823Q51.253124 265.00418 51.721874 264.44168Q52.20625 263.87918 53.1125 263.1448Q54.51875 261.98856 55.003124 261.31668Q55.503124 260.6448 55.503124 260.05106Q55.503124 259.42606 55.05 259.00418Q54.596874 258.56668 53.878124 258.56668Q53.1125 258.56668 52.659374 259.0198Q52.20625 259.47293 52.190624 260.28543L51.1125 260.17606Q51.221874 258.9573 51.940624 258.3323Q52.675 257.69168 53.909374 257.69168Q55.14375 257.69168 55.8625 258.37918Q56.58125 259.06668 56.58125 260.0823Q56.58125 260.59793 56.3625 261.09793Q56.159374 261.5823 55.659374 262.1448Q55.175 262.69168 54.05 263.6448Q53.096874 264.44168 52.815624 264.73856Q52.55 265.0198 52.378124 265.30106L56.596874 265.30106ZM58.05 262.0823Q58.05 260.55106 58.3625 259.62918Q58.675 258.69168 59.284374 258.19168Q59.909374 257.69168 60.846874 257.69168Q61.534374 257.69168 62.05 257.97293Q62.58125 258.25418 62.925 258.78543Q63.26875 259.30106 63.45625 260.05106Q63.64375 260.80106 63.64375 262.0823Q63.64375 263.59793 63.33125 264.5198Q63.034374 265.44168 62.409374 265.9573Q61.8 266.4573 60.846874 266.4573Q59.6125 266.4573 58.89375 265.56668Q58.05 264.50418 58.05 262.0823ZM59.128124 262.0823Q59.128124 264.19168 59.628124 264.8948Q60.128124 265.59793 60.846874 265.59793Q61.58125 265.59793 62.065624 264.8948Q62.565624 264.19168 62.565624 262.0823Q62.565624 259.9573 62.065624 259.2698Q61.58125 258.56668 60.83125 258.56668Q60.1125 258.56668 59.675 259.17606Q59.128124 259.9573 59.128124 262.0823ZM65.64375 266.31668L65.64375 265.11356L66.84688 265.11356L66.84688 266.31668L65.64375 266.31668ZM68.05 262.0823Q68.05 260.55106 68.3625 259.62918Q68.675 258.69168 69.28438 258.19168Q69.90938 257.69168 70.84688 257.69168Q71.53438 257.69168 72.05 257.97293Q72.58125 258.25418 72.925 258.78543Q73.26875 259.30106 73.45625 260.05106Q73.64375 260.80106 73.64375 262.0823Q73.64375 263.59793 73.33125 264.5198Q73.03438 265.44168 72.40938 265.9573Q71.8 266.4573 70.84688 266.4573Q69.6125 266.4573 68.89375 265.56668Q68.05 264.50418 68.05 262.0823ZM69.12813 262.0823Q69.12813 264.19168 69.62813 264.8948Q70.12813 265.59793 70.84688 265.59793Q71.58125 265.59793 72.06563 264.8948Q72.56563 264.19168 72.56563 262.0823Q72.56563 259.9573 72.06563 259.2698Q71.58125 258.56668 70.83125 258.56668Q70.1125 258.56668 69.675 259.17606Q69.12813 259.9573 69.12813 262.0823ZM75.05 262.0823Q75.05 260.55106 75.3625 259.62918Q75.675 258.69168 76.28438 258.19168Q76.90938 257.69168 77.84688 257.69168Q78.53438 257.69168 79.05 257.97293Q79.58125 258.25418 79.925 258.78543Q80.26875 259.30106 80.45625 260.05106Q80.64375 260.80106 80.64375 262.0823Q80.64375 263.59793 80.33125 264.5198Q80.03438 265.44168 79.40938 265.9573Q78.8 266.4573 77.84688 266.4573Q76.6125 266.4573 75.89375 265.56668Q75.05 264.50418 75.05 262.0823ZM76.12813 262.0823Q76.12813 264.19168 76.62813 264.8948Q77.12813 265.59793 77.84688 265.59793Q78.58125 265.59793 79.06563 264.8948Q79.56563 264.19168 79.56563 262.0823Q79.56563 259.9573 79.06563 259.2698Q78.58125 258.56668 77.83125 258.56668Q77.1125 258.56668 76.675 259.17606Q76.12813 259.9573 76.12813 262.0823ZM82.25313 259.78543Q82.25313 258.86356 82.70625 258.22293Q83.175 257.5823 84.05 257.5823Q84.8625 257.5823 85.39375 258.16043Q85.925 258.73856 85.925 259.84793Q85.925 260.94168 85.37813 261.53543Q84.84688 262.11356 84.06563 262.11356Q83.28438 262.11356 82.76875 261.53543Q82.25313 260.9573 82.25313 259.78543ZM84.08125 258.30106Q83.69063 258.30106 83.425 258.6448Q83.175 258.98856 83.175 259.8948Q83.175 260.72293 83.425 261.06668Q83.69063 261.3948 84.08125 261.3948Q84.4875 261.3948 84.7375 261.05106Q85.00313 260.7073 85.00313 259.81668Q85.00313 258.97293 84.7375 258.6448Q84.47188 258.30106 84.08125 258.30106ZM84.08125 266.62918L88.78438 257.5823L89.64375 257.5823L84.95625 266.62918L84.08125 266.62918ZM87.8 264.30106Q87.8 263.37918 88.25313 262.73856Q88.72188 262.09793 89.6125 262.09793Q90.425 262.09793 90.95625 262.67606Q91.4875 263.23856 91.4875 264.36356Q91.4875 265.4573 90.94063 266.05106Q90.40938 266.62918 89.6125 266.62918Q88.84688 266.62918 88.31563 266.05106Q87.8 265.47293 87.8 264.30106ZM89.64375 262.81668Q89.2375 262.81668 88.97188 263.16043Q88.72188 263.50418 88.72188 264.41043Q88.72188 265.22293 88.9875 265.56668Q89.25313 265.91043 89.64375 265.91043Q90.03438 265.91043 90.3 265.56668Q90.56563 265.22293 90.56563 264.31668Q90.56563 263.48856 90.3 263.16043Q90.03438 262.81668 89.64375 262.81668Z" fill-rule="nonzero"/><path fill="#000000" d="M54.425 196.18333L54.425 194.12083L50.70625 194.12083L50.70625 193.15208L54.628124 187.58958L55.4875 187.58958L55.4875 193.15208L56.64375 193.15208L56.64375 194.12083L55.4875 194.12083L55.4875 196.18333L54.425 196.18333ZM54.425 193.15208L54.425 189.29271L51.7375 193.15208L54.425 193.15208ZM58.05 191.94896Q58.05 190.41771 58.3625 189.49583Q58.675 188.55833 59.284374 188.05833Q59.909374 187.55833 60.846874 187.55833Q61.534374 187.55833 62.05 187.83958Q62.58125 188.12083 62.925 188.65208Q63.26875 189.16771 63.45625 189.91771Q63.64375 190.66771 63.64375 191.94896Q63.64375 193.46458 63.33125 194.38646Q63.034374 195.30833 62.409374 195.82396Q61.8 196.32396 60.846874 196.32396Q59.6125 196.32396 58.89375 195.43333Q58.05 194.37083 58.05 191.94896ZM59.128124 191.94896Q59.128124 194.05833 59.628124 194.76146Q60.128124 195.46458 60.846874 195.46458Q61.58125 195.46458 62.065624 194.76146Q62.565624 194.05833 62.565624 191.94896Q62.565624 189.82396 62.065624 189.13646Q61.58125 188.43333 60.83125 188.43333Q60.1125 188.43333 59.675 189.04271Q59.128124 189.82396 59.128124 191.94896ZM65.64375 196.18333L65.64375 194.98021L66.84688 194.98021L66.84688 196.18333L65.64375 196.18333ZM68.05 191.94896Q68.05 190.41771 68.3625 189.49583Q68.675 188.55833 69.28438 188.05833Q69.90938 187.55833 70.84688 187.55833Q71.53438 187.55833 72.05 187.83958Q72.58125 188.12083 72.925 188.65208Q73.26875 189.16771 73.45625 189.91771Q73.64375 190.66771 73.64375 191.94896Q73.64375 193.46458 73.33125 194.38646Q73.03438 195.30833 72.40938 195.82396Q71.8 196.32396 70.84688 196.32396Q69.6125 196.32396 68.89375 195.43333Q68.05 194.37083 68.05 191.94896ZM69.12813 191.94896Q69.12813 194.05833 69.62813 194.76146Q70.12813 195.46458 70.84688 195.46458Q71.58125 195.46458 72.06563 194.76146Q72.56563 194.05833 72.56563 191.94896Q72.56563 189.82396 72.06563 189.13646Q71.58125 188.43333 70.83125 188.43333Q70.1125 188.43333 69.675 189.04271Q69.12813 189.82396 69.12813 191.94896ZM75.05 191.94896Q75.05 190.41771 75.3625 189.49583Q75.675 188.55833 76.28438 188.05833Q76.90938 187.55833 77.84688 187.55833Q78.53438 187.55833 79.05 187.83958Q79.58125 188.12083 79.925 188.65208Q80.26875 189.16771 80.45625 189.91771Q80.64375 190.66771 80.64375 191.94896Q80.64375 193.46458 80.33125 194.38646Q80.03438 195.30833 79.40938 195.82396Q78.8 196.32396 77.84688 196.32396Q76.6125 196.32396 75.89375 195.43333Q75.05 194.37083 75.05 191.94896ZM76.12813 191.94896Q76.12813 194.05833 76.62813 194.76146Q77.12813 195.46458 77.84688 195.46458Q78.58125 195.46458 79.06563 194.76146Q79.56563 194.05833 79.56563 191.94896Q79.56563 189.82396 79.06563 189.13646Q78.58125 188.43333 77.83125 188.43333Q77.1125 188.43333 76.675 189.04271Q76.12813 189.82396 76.12813 191.94896ZM82.25313 189.65208Q82.25313 188.73021 82.70625 188.08958Q83.175 187.44896 84.05 187.44896Q84.8625 187.44896 85.39375 188.02708Q85.925 188.60521 85.925 189.71458Q85.925 190.80833 85.37813 191.40208Q84.84688 191.98021 84.06563 191.98021Q83.28438 191.98021 82.76875 191.40208Q82.25313 190.82396 82.25313 189.65208ZM84.08125 188.16771Q83.69063 188.16771 83.425 188.51146Q83.175 188.85521 83.175 189.76146Q83.175 190.58958 83.425 190.93333Q83.69063 191.26146 84.08125 191.26146Q84.4875 191.26146 84.7375 190.91771Q85.00313 190.57396 85.00313 189.68333Q85.00313 188.83958 84.7375 188.51146Q84.47188 188.16771 84.08125 188.16771ZM84.08125 196.49583L88.78438 187.44896L89.64375 187.44896L84.95625 196.49583L84.08125 196.49583ZM87.8 194.16771Q87.8 193.24583 88.25313 192.60521Q88.72188 191.96458 89.6125 191.96458Q90.425 191.96458 90.95625 192.54271Q91.4875 193.10521 91.4875 194.23021Q91.4875 195.32396 90.94063 195.91771Q90.40938 196.49583 89.6125 196.49583Q88.84688 196.49583 88.31563 195.91771Q87.8 195.33958 87.8 194.16771ZM89.64375 192.68333Q89.2375 192.68333 88.97188 193.02708Q88.72188 193.37083 88.72188 194.27708Q88.72188 195.08958 88.9875 195.43333Q89.25313 195.77708 89.64375 195.77708Q90.03438 195.77708 90.3 195.43333Q90.56563 195.08958 90.56563 194.18333Q90.56563 193.35521 90.3 193.02708Q90.03438 192.68333 89.64375 192.68333Z" fill-rule="nonzero"/><path fill="#000000" d="M56.51875 119.56563L55.471874 119.64375Q55.33125 119.01875 55.08125 118.7375Q54.64375 118.28438 54.01875 118.28438Q53.51875 118.28438 53.128124 118.56563Q52.64375 118.94063 52.346874 119.64375Q52.065624 120.33125 52.05 121.6125Q52.425 121.03438 52.971874 120.75313Q53.534374 120.47188 54.14375 120.47188Q55.190624 120.47188 55.925 121.25313Q56.675 122.03438 56.675 123.25313Q56.675 124.06563 56.315624 124.76875Q55.971874 125.45625 55.3625 125.83125Q54.753124 126.19063 53.9875 126.19063Q52.659374 126.19063 51.83125 125.22188Q51.003124 124.25313 51.003124 122.03438Q51.003124 119.53438 51.925 118.40938Q52.721874 117.425 54.08125 117.425Q55.096874 117.425 55.7375 118.00313Q56.39375 118.56563 56.51875 119.56563ZM52.221874 123.26875Q52.221874 123.81563 52.440624 124.31563Q52.675 124.8 53.08125 125.06563Q53.503124 125.33125 53.971874 125.33125Q54.628124 125.33125 55.1125 124.8Q55.596874 124.25313 55.596874 123.33125Q55.596874 122.44063 55.1125 121.925Q54.64375 121.40938 53.925 121.40938Q53.20625 121.40938 52.70625 121.925Q52.221874 122.44063 52.221874 123.26875ZM58.05 121.81563Q58.05 120.28438 58.3625 119.3625Q58.675 118.425 59.284374 117.925Q59.909374 117.425 60.846874 117.425Q61.534374 117.425 62.05 117.70625Q62.58125 117.9875 62.925 118.51875Q63.26875 119.03438 63.45625 119.78438Q63.64375 120.53438 63.64375 121.81563Q63.64375 123.33125 63.33125 124.25313Q63.034374 125.175 62.409374 125.69063Q61.8 126.19063 60.846874 126.19063Q59.6125 126.19063 58.89375 125.3Q58.05 124.2375 58.05 121.81563ZM59.128124 121.81563Q59.128124 123.925 59.628124 124.62813Q60.128124 125.33125 60.846874 125.33125Q61.58125 125.33125 62.065624 124.62813Q62.565624 123.925 62.565624 121.81563Q62.565624 119.69063 62.065624 119.00313Q61.58125 118.3 60.83125 118.3Q60.1125 118.3 59.675 118.90938Q59.128124 119.69063 59.128124 121.81563ZM65.64375 126.05L65.64375 124.84688L66.84688 124.84688L66.84688 126.05L65.64375 126.05ZM68.05 121.81563Q68.05 120.28438 68.3625 119.3625Q68.675 118.425 69.28438 117.925Q69.90938 117.425 70.84688 117.425Q71.53438 117.425 72.05 117.70625Q72.58125 117.9875 72.925 118.51875Q73.26875 119.03438 73.45625 119.78438Q73.64375 120.53438 73.64375 121.81563Q73.64375 123.33125 73.33125 124.25313Q73.03438 125.175 72.40938 125.69063Q71.8 126.19063 70.84688 126.19063Q69.6125 126.19063 68.89375 125.3Q68.05 124.2375 68.05 121.81563ZM69.12813 121.81563Q69.12813 123.925 69.62813 124.62813Q70.12813 125.33125 70.84688 125.33125Q71.58125 125.33125 72.06563 124.62813Q72.56563 123.925 72.56563 121.81563Q72.56563 119.69063 72.06563 119.00313Q71.58125 118.3 70.83125 118.3Q70.1125 118.3 69.675 118.90938Q69.12813 119.69063 69.12813 121.81563ZM75.05 121.81563Q75.05 120.28438 75.3625 119.3625Q75.675 118.425 76.28438 117.925Q76.90938 117.425 77.84688 117.425Q78.53438 117.425 79.05 117.70625Q79.58125 117.9875 79.925 118.51875Q80.26875 119.03438 80.45625 119.78438Q80.64375 120.53438 80.64375 121.81563Q80.64375 123.33125 80.33125 124.25313Q80.03438 125.175 79.40938 125.69063Q78.8 126.19063 77.84688 126.19063Q76.6125 126.19063 75.89375 125.3Q75.05 124.2375 75.05 121.81563ZM76.12813 121.81563Q76.12813 123.925 76.62813 124.62813Q77.12813 125.33125 77.84688 125.33125Q78.58125 125.33125 79.06563 124.62813Q79.56563 123.925 79.56563 121.81563Q79.56563 119.69063 79.06563 119.00313Q78.58125 118.3 77.83125 118.3Q77.1125 118.3 76.675 118.90938Q76.12813 119.69063 76.12813 121.81563ZM82.25313 119.51875Q82.25313 118.59688 82.70625 117.95625Q83.175 117.31563 84.05 117.31563Q84.8625 117.31563 85.39375 117.89375Q85.925 118.47188 85.925 119.58125Q85.925 120.675 85.37813 121.26875Q84.84688 121.84688 84.06563 121.84688Q83.28438 121.84688 82.76875 121.26875Q82.25313 120.69063 82.25313 119.51875ZM84.08125 118.03438Q83.69063 118.03438 83.425 118.37813Q83.175 118.72188 83.175 119.62813Q83.175 120.45625 83.425 120.8Q83.69063 121.12813 84.08125 121.12813Q84.4875 121.12813 84.7375 120.78438Q85.00313 120.44063 85.00313 119.55Q85.00313 118.70625 84.7375 118.37813Q84.47188 118.03438 84.08125 118.03438ZM84.08125 126.3625L88.78438 117.31563L89.64375 117.31563L84.95625 126.3625L84.08125 126.3625ZM87.8 124.03438Q87.8 123.1125 88.25313 122.47188Q88.72188 121.83125 89.6125 121.83125Q90.425 121.83125 90.95625 122.40938Q91.4875 122.97188 91.4875 124.09688Q91.4875 125.19063 90.94063 125.78438Q90.40938 126.3625 89.6125 126.3625Q88.84688 126.3625 88.31563 125.78438Q87.8 125.20625 87.8 124.03438ZM89.64375 122.55Q89.2375 122.55 88.97188 122.89375Q88.72188 123.2375 88.72188 124.14375Q88.72188 124.95625 88.9875 125.3Q89.25313 125.64375 89.64375 125.64375Q90.03438 125.64375 90.3 125.3Q90.56563 124.95625 90.56563 124.05Q90.56563 123.22188 90.3 122.89375Q90.03438 122.55 89.64375 122.55Z" fill-rule="nonzero"/><path fill="#000000" d="M52.675 51.260418Q52.01875 51.010418 51.690624 50.572918Q51.378124 50.119793 51.378124 49.510418Q51.378124 48.572918 52.05 47.932293Q52.7375 47.291668 53.846874 47.291668Q54.971874 47.291668 55.659374 47.947918Q56.346874 48.604168 56.346874 49.541668Q56.346874 50.135418 56.034374 50.572918Q55.721874 51.010418 55.08125 51.260418Q55.878124 51.510418 56.284374 52.088543Q56.690624 52.666668 56.690624 53.463543Q56.690624 54.557293 55.909374 55.307293Q55.14375 56.057293 53.8625 56.057293Q52.596874 56.057293 51.815624 55.307293Q51.034374 54.557293 51.034374 53.432293Q51.034374 52.588543 51.45625 52.026043Q51.89375 51.463543 52.675 51.260418ZM52.45625 49.463543Q52.45625 50.072918 52.846874 50.463543Q53.253124 50.854168 53.878124 50.854168Q54.4875 50.854168 54.878124 50.479168Q55.26875 50.088543 55.26875 49.526043Q55.26875 48.947918 54.8625 48.557293Q54.45625 48.151043 53.8625 48.151043Q53.253124 48.151043 52.846874 48.541668Q52.45625 48.932293 52.45625 49.463543ZM52.128124 53.432293Q52.128124 53.885418 52.33125 54.307293Q52.55 54.729168 52.971874 54.963543Q53.39375 55.197918 53.878124 55.197918Q54.628124 55.197918 55.1125 54.713543Q55.6125 54.229168 55.6125 53.479168Q55.6125 52.713543 55.1125 52.213543Q54.6125 51.713543 53.846874 51.713543Q53.096874 51.713543 52.6125 52.213543Q52.128124 52.697918 52.128124 53.432293ZM58.05 51.682293Q58.05 50.151043 58.3625 49.229168Q58.675 48.291668 59.284374 47.791668Q59.909374 47.291668 60.846874 47.291668Q61.534374 47.291668 62.05 47.572918Q62.58125 47.854168 62.925 48.385418Q63.26875 48.901043 63.45625 49.651043Q63.64375 50.401043 63.64375 51.682293Q63.64375 53.197918 63.33125 54.119793Q63.034374 55.041668 62.409374 55.557293Q61.8 56.057293 60.846874 56.057293Q59.6125 56.057293 58.89375 55.166668Q58.05 54.104168 58.05 51.682293ZM59.128124 51.682293Q59.128124 53.791668 59.628124 54.494793Q60.128124 55.197918 60.846874 55.197918Q61.58125 55.197918 62.065624 54.494793Q62.565624 53.791668 62.565624 51.682293Q62.565624 49.557293 62.065624 48.869793Q61.58125 48.166668 60.83125 48.166668Q60.1125 48.166668 59.675 48.776043Q59.128124 49.557293 59.128124 51.682293ZM65.64375 55.916668L65.64375 54.713543L66.84688 54.713543L66.84688 55.916668L65.64375 55.916668ZM68.05 51.682293Q68.05 50.151043 68.3625 49.229168Q68.675 48.291668 69.28438 47.791668Q69.90938 47.291668 70.84688 47.291668Q71.53438 47.291668 72.05 47.572918Q72.58125 47.854168 72.925 48.385418Q73.26875 48.901043 73.45625 49.651043Q73.64375 50.401043 73.64375 51.682293Q73.64375 53.197918 73.33125 54.119793Q73.03438 55.041668 72.40938 55.557293Q71.8 56.057293 70.84688 56.057293Q69.6125 56.057293 68.89375 55.166668Q68.05 54.104168 68.05 51.682293ZM69.12813 51.682293Q69.12813 53.791668 69.62813 54.494793Q70.12813 55.197918 70.84688 55.197918Q71.58125 55.197918 72.06563 54.494793Q72.56563 53.791668 72.56563 51.682293Q72.56563 49.557293 72.06563 48.869793Q71.58125 48.166668 70.83125 48.166668Q70.1125 48.166668 69.675 48.776043Q69.12813 49.557293 69.12813 51.682293ZM75.05 51.682293Q75.05 50.151043 75.3625 49.229168Q75.675 48.291668 76.28438 47.791668Q76.90938 47.291668 77.84688 47.291668Q78.53438 47.291668 79.05 47.572918Q79.58125 47.854168 79.925 48.385418Q80.26875 48.901043 80.45625 49.651043Q80.64375 50.401043 80.64375 51.682293Q80.64375 53.197918 80.33125 54.119793Q80.03438 55.041668 79.40938 55.557293Q78.8 56.057293 77.84688 56.057293Q76.6125 56.057293 75.89375 55.166668Q75.05 54.104168 75.05 51.682293ZM76.12813 51.682293Q76.12813 53.791668 76.62813 54.494793Q77.12813 55.197918 77.84688 55.197918Q78.58125 55.197918 79.06563 54.494793Q79.56563 53.791668 79.56563 51.682293Q79.56563 49.557293 79.06563 48.869793Q78.58125 48.166668 77.83125 48.166668Q77.1125 48.166668 76.675 48.776043Q76.12813 49.557293 76.12813 51.682293ZM82.25313 49.385418Q82.25313 48.463543 82.70625 47.822918Q83.175 47.182293 84.05 47.182293Q84.8625 47.182293 85.39375 47.760418Q85.925 48.338543 85.925 49.447918Q85.925 50.541668 85.37813 51.135418Q84.84688 51.713543 84.06563 51.713543Q83.28438 51.713543 82.76875 51.135418Q82.25313 50.557293 82.25313 49.385418ZM84.08125 47.901043Q83.69063 47.901043 83.425 48.244793Q83.175 48.588543 83.175 49.494793Q83.175 50.322918 83.425 50.666668Q83.69063 50.994793 84.08125 50.994793Q84.4875 50.994793 84.7375 50.651043Q85.00313 50.307293 85.00313 49.416668Q85.00313 48.572918 84.7375 48.244793Q84.47188 47.901043 84.08125 47.901043ZM84.08125 56.229168L88.78438 47.182293L89.64375 47.182293L84.95625 56.229168L84.08125 56.229168ZM87.8 53.901043Q87.8 52.979168 88.25313 52.338543Q88.72188 51.697918 89.6125 51.697918Q90.425 51.697918 90.95625 52.276043Q91.4875 52.838543 91.4875 53.963543Q91.4875 55.057293 90.94063 55.651043Q90.40938 56.229168 89.6125 56.229168Q88.84688 56.229168 88.31563 55.651043Q87.8 55.072918 87.8 53.901043ZM89.64375 52.416668Q89.2375 52.416668 88.97188 52.760418Q88.72188 53.104168 88.72188 54.010418Q88.72188 54.822918 88.9875 55.166668Q89.25313 55.510418 89.64375 55.510418Q90.03438 55.510418 90.3 55.166668Q90.56563 54.822918 90.56563 53.916668Q90.56563 53.088543 90.3 52.760418Q90.03438 52.416668 89.64375 52.416668Z" fill-rule="nonzero"/><path fill="#000000" d="M283.26562 349.45L282.28125 349.45L282.28125 340.85626L283.34375 340.85626L283.34375 343.91876Q284.01562 343.09064 285.04688 343.09064Q285.625 343.09064 286.125 343.325Q286.64062 343.54376 286.96875 343.96564Q287.3125 344.3875 287.5 344.98126Q287.6875 345.575 287.6875 346.2469Q287.6875 347.84064 286.89062 348.71564Q286.09375 349.59064 285.0 349.59064Q283.89062 349.59064 283.26562 348.66876L283.26562 349.45ZM283.25 346.29376Q283.25 347.40314 283.5625 347.90314Q284.0625 348.71564 284.90625 348.71564Q285.59375 348.71564 286.09375 348.1219Q286.60938 347.52814 286.60938 346.325Q286.60938 345.10626 286.125 344.52814Q285.64062 343.95 284.95312 343.95Q284.26562 343.95 283.75 344.5594Q283.25 345.15314 283.25 346.29376ZM293.35938 348.6844Q292.76562 349.1844 292.21875 349.3875Q291.6875 349.59064 291.0625 349.59064Q290.03125 349.59064 289.48438 349.09064Q288.9375 348.59064 288.9375 347.8094Q288.9375 347.35626 289.14062 346.98126Q289.34375 346.59064 289.6875 346.3719Q290.03125 346.1375 290.45312 346.02814Q290.75 345.9344 291.39062 345.85626Q292.65625 345.71564 293.26562 345.4969Q293.26562 345.27814 293.26562 345.23126Q293.26562 344.575 292.96875 344.3094Q292.5625 343.96564 291.76562 343.96564Q291.03125 343.96564 290.67188 344.23126Q290.3125 344.48126 290.14062 345.1375L289.10938 344.9969Q289.25 344.34064 289.57812 343.9344Q289.90625 343.52814 290.51562 343.3094Q291.125 343.09064 291.92188 343.09064Q292.71875 343.09064 293.21875 343.27814Q293.71875 343.46564 293.95312 343.7469Q294.1875 344.02814 294.28125 344.46564Q294.32812 344.73126 294.32812 345.4344L294.32812 346.84064Q294.32812 348.3094 294.39062 348.7Q294.46875 349.09064 294.67188 349.45L293.5625 349.45Q293.40625 349.1219 293.35938 348.6844ZM293.26562 346.325Q292.6875 346.5594 291.54688 346.73126Q290.89062 346.825 290.625 346.95Q290.35938 347.0594 290.20312 347.27814Q290.0625 347.4969 290.0625 347.77814Q290.0625 348.2 290.375 348.48126Q290.70312 348.7625 291.3125 348.7625Q291.92188 348.7625 292.39062 348.4969Q292.875 348.23126 293.09375 347.7625Q293.26562 347.40314 293.26562 346.71564L293.26562 346.325ZM295.875 347.59064L296.90625 347.4344Q297.0 348.0594 297.39062 348.3875Q297.79688 348.71564 298.53125 348.71564Q299.25 348.71564 299.59375 348.4344Q299.95312 348.1375 299.95312 347.73126Q299.95312 347.3719 299.64062 347.16876Q299.42188 347.02814 298.5625 346.8094Q297.40625 346.5125 296.95312 346.3094Q296.51562 346.09064 296.28125 345.71564Q296.04688 345.34064 296.04688 344.8719Q296.04688 344.46564 296.23438 344.10626Q296.42188 343.7469 296.75 343.5125Q297.0 343.34064 297.42188 343.21564Q297.84375 343.09064 298.34375 343.09064Q299.0625 343.09064 299.60938 343.3094Q300.17188 343.5125 300.4375 343.8719Q300.70312 344.23126 300.79688 344.825L299.76562 344.96564Q299.70312 344.4969 299.35938 344.23126Q299.03125 343.95 298.40625 343.95Q297.6875 343.95 297.375 344.2Q297.0625 344.4344 297.0625 344.7625Q297.0625 344.96564 297.1875 345.1219Q297.32812 345.29376 297.59375 345.40314Q297.75 345.46564 298.53125 345.66876Q299.65625 345.98126 300.09375 346.16876Q300.53125 346.35626 300.78125 346.71564Q301.03125 347.075 301.03125 347.6219Q301.03125 348.15314 300.71875 348.6219Q300.42188 349.075 299.84375 349.34064Q299.26562 349.59064 298.53125 349.59064Q297.3125 349.59064 296.67188 349.09064Q296.04688 348.575 295.875 347.59064ZM307.54688 347.45L308.64062 347.575Q308.39062 348.52814 307.6875 349.0594Q306.98438 349.59064 305.90625 349.59064Q304.54688 349.59064 303.73438 348.7469Q302.9375 347.90314 302.9375 346.3875Q302.9375 344.825 303.75 343.96564Q304.5625 343.09064 305.84375 343.09064Q307.09375 343.09064 307.875 343.9344Q308.67188 344.77814 308.67188 346.325Q308.67188 346.41876 308.67188 346.60626L304.03125 346.60626Q304.09375 347.6375 304.60938 348.1844Q305.125 348.71564 305.90625 348.71564Q306.48438 348.71564 306.89062 348.41876Q307.3125 348.10626 307.54688 347.45ZM304.09375 345.7469L307.5625 345.7469Q307.5 344.95 307.17188 344.5594Q306.65625 343.95 305.85938 343.95Q305.125 343.95 304.625 344.4344Q304.14062 344.91876 304.09375 345.7469ZM310.26562 349.45L310.26562 340.85626L311.32812 340.85626L311.32812 349.45L310.26562 349.45ZM313.29688 342.075L313.29688 340.85626L314.35938 340.85626L314.35938 342.075L313.29688 342.075ZM313.29688 349.45L313.29688 343.23126L314.35938 343.23126L314.35938 349.45L313.29688 349.45ZM316.29688 349.45L316.29688 343.23126L317.23438 343.23126L317.23438 344.10626Q317.92188 343.09064 319.21875 343.09064Q319.78125 343.09064 320.25 343.29376Q320.73438 343.4969 320.96875 343.825Q321.20312 344.15314 321.29688 344.59064Q321.34375 344.8875 321.34375 345.6219L321.34375 349.45L320.29688 349.45L320.29688 345.66876Q320.29688 345.0125 320.17188 344.7Q320.04688 344.3875 319.73438 344.2Q319.42188 343.9969 319.0 343.9969Q318.32812 343.9969 317.82812 344.4344Q317.34375 344.85626 317.34375 346.04376L317.34375 349.45L316.29688 349.45ZM327.54688 347.45L328.64062 347.575Q328.39062 348.52814 327.6875 349.0594Q326.98438 349.59064 325.90625 349.59064Q324.54688 349.59064 323.73438 348.7469Q322.9375 347.90314 322.9375 346.3875Q322.9375 344.825 323.75 343.96564Q324.5625 343.09064 325.84375 343.09064Q327.09375 343.09064 327.875 343.9344Q328.67188 344.77814 328.67188 346.325Q328.67188 346.41876 328.67188 346.60626L324.03125 346.60626Q324.09375 347.6375 324.60938 348.1844Q325.125 348.71564 325.90625 348.71564Q326.48438 348.71564 326.89062 348.41876Q327.3125 348.10626 327.54688 347.45ZM324.09375 345.7469L327.5625 345.7469Q327.5 344.95 327.17188 344.5594Q326.65625 343.95 325.85938 343.95Q325.125 343.95 324.625 344.4344Q324.14062 344.91876 324.09375 345.7469ZM332.875 346.8719L332.875 345.8094L336.125 345.8094L336.125 346.8719L332.875 346.8719ZM345.54688 348.4344L345.54688 349.45L339.85938 349.45Q339.85938 349.075 339.98438 348.71564Q340.20312 348.1375 340.67188 347.575Q341.15625 347.0125 342.0625 346.27814Q343.46875 345.1219 343.95312 344.45Q344.45312 343.77814 344.45312 343.1844Q344.45312 342.5594 344.0 342.1375Q343.54688 341.7 342.82812 341.7Q342.0625 341.7 341.60938 342.15314Q341.15625 342.60626 341.14062 343.41876L340.0625 343.3094Q340.17188 342.09064 340.89062 341.46564Q341.625 340.825 342.85938 340.825Q344.09375 340.825 344.8125 341.5125Q345.53125 342.2 345.53125 343.21564Q345.53125 343.73126 345.3125 344.23126Q345.10938 344.71564 344.60938 345.27814Q344.125 345.825 343.0 346.77814Q342.04688 347.575 341.76562 347.8719Q341.5 348.15314 341.32812 348.4344L345.54688 348.4344ZM354.32812 349.45L354.32812 348.66876Q353.73438 349.59064 352.59375 349.59064Q351.84375 349.59064 351.21875 349.1844Q350.59375 348.7625 350.25 348.02814Q349.90625 347.29376 349.90625 346.34064Q349.90625 345.41876 350.21875 344.65314Q350.53125 343.8875 351.15625 343.4969Q351.78125 343.09064 352.54688 343.09064Q353.10938 343.09064 353.54688 343.325Q353.98438 343.5594 354.26562 343.9344L354.26562 340.85626L355.3125 340.85626L355.3125 349.45L354.32812 349.45ZM351.0 346.34064Q351.0 347.54376 351.5 348.1375Q352.0 348.71564 352.6875 348.71564Q353.375 348.71564 353.85938 348.15314Q354.34375 347.59064 354.34375 346.4344Q354.34375 345.15314 353.84375 344.5594Q353.35938 343.96564 352.64062 343.96564Q351.9375 343.96564 351.46875 344.54376Q351.0 345.10626 351.0 346.34064ZM361.54688 347.45L362.64062 347.575Q362.39062 348.52814 361.6875 349.0594Q360.98438 349.59064 359.90625 349.59064Q358.54688 349.59064 357.73438 348.7469Q356.9375 347.90314 356.9375 346.3875Q356.9375 344.825 357.75 343.96564Q358.5625 343.09064 359.84375 343.09064Q361.09375 343.09064 361.875 343.9344Q362.67188 344.77814 362.67188 346.325Q362.67188 346.41876 362.67188 346.60626L358.03125 346.60626Q358.09375 347.6375 358.60938 348.1844Q359.125 348.71564 359.90625 348.71564Q360.48438 348.71564 360.89062 348.41876Q361.3125 348.10626 361.54688 347.45ZM358.09375 345.7469L361.5625 345.7469Q361.5 344.95 361.17188 344.5594Q360.65625 343.95 359.85938 343.95Q359.125 343.95 358.625 344.4344Q358.14062 344.91876 358.09375 345.7469ZM365.26562 349.45L364.28125 349.45L364.28125 340.85626L365.34375 340.85626L365.34375 343.91876Q366.01562 343.09064 367.04688 343.09064Q367.625 343.09064 368.125 343.325Q368.64062 343.54376 368.96875 343.96564Q369.3125 344.3875 369.5 344.98126Q369.6875 345.575 369.6875 346.2469Q369.6875 347.84064 368.89062 348.71564Q368.09375 349.59064 367.0 349.59064Q365.89062 349.59064 365.26562 348.66876L365.26562 349.45ZM365.25 346.29376Q365.25 347.40314 365.5625 347.90314Q366.0625 348.71564 366.90625 348.71564Q367.59375 348.71564 368.09375 348.1219Q368.60938 347.52814 368.60938 346.325Q368.60938 345.10626 368.125 344.52814Q367.64062 343.95 366.95312 343.95Q366.26562 343.95 365.75 344.5594Q365.25 345.15314 365.25 346.29376ZM375.35938 348.6844Q374.76562 349.1844 374.21875 349.3875Q373.6875 349.59064 373.0625 349.59064Q372.03125 349.59064 371.48438 349.09064Q370.9375 348.59064 370.9375 347.8094Q370.9375 347.35626 371.14062 346.98126Q371.34375 346.59064 371.6875 346.3719Q372.03125 346.1375 372.45312 346.02814Q372.75 345.9344 373.39062 345.85626Q374.65625 345.71564 375.26562 345.4969Q375.26562 345.27814 375.26562 345.23126Q375.26562 344.575 374.96875 344.3094Q374.5625 343.96564 373.76562 343.96564Q373.03125 343.96564 372.67188 344.23126Q372.3125 344.48126 372.14062 345.1375L371.10938 344.9969Q371.25 344.34064 371.57812 343.9344Q371.90625 343.52814 372.51562 343.3094Q373.125 343.09064 373.92188 343.09064Q374.71875 343.09064 375.21875 343.27814Q375.71875 343.46564 375.95312 343.7469Q376.1875 344.02814 376.28125 344.46564Q376.32812 344.73126 376.32812 345.4344L376.32812 346.84064Q376.32812 348.3094 376.39062 348.7Q376.46875 349.09064 376.67188 349.45L375.5625 349.45Q375.40625 349.1219 375.35938 348.6844ZM375.26562 346.325Q374.6875 346.5594 373.54688 346.73126Q372.89062 346.825 372.625 346.95Q372.35938 347.0594 372.20312 347.27814Q372.0625 347.4969 372.0625 347.77814Q372.0625 348.2 372.375 348.48126Q372.70312 348.7625 373.3125 348.7625Q373.92188 348.7625 374.39062 348.4969Q374.875 348.23126 375.09375 347.7625Q375.26562 347.40314 375.26562 346.71564L375.26562 346.325ZM380.59375 348.5125L380.75 349.4344Q380.29688 349.52814 379.95312 349.52814Q379.375 349.52814 379.0625 349.35626Q378.75 349.16876 378.60938 348.8719Q378.48438 348.575 378.48438 347.6219L378.48438 344.04376L377.71875 344.04376L377.71875 343.23126L378.48438 343.23126L378.48438 341.6844L379.53125 341.0594L379.53125 343.23126L380.59375 343.23126L380.59375 344.04376L379.53125 344.04376L379.53125 347.6844Q379.53125 348.1375 379.57812 348.2625Q379.64062 348.3875 379.76562 348.46564Q379.89062 348.54376 380.125 348.54376Q380.3125 348.54376 380.59375 348.5125ZM385.54688 347.45L386.64062 347.575Q386.39062 348.52814 385.6875 349.0594Q384.98438 349.59064 383.90625 349.59064Q382.54688 349.59064 381.73438 348.7469Q380.9375 347.90314 380.9375 346.3875Q380.9375 344.825 381.75 343.96564Q382.5625 343.09064 383.84375 343.09064Q385.09375 343.09064 385.875 343.9344Q386.67188 344.77814 386.67188 346.325Q386.67188 346.41876 386.67188 346.60626L382.03125 346.60626Q382.09375 347.6375 382.60938 348.1844Q383.125 348.71564 383.90625 348.71564Q384.48438 348.71564 384.89062 348.41876Q385.3125 348.10626 385.54688 347.45ZM382.09375 345.7469L385.5625 345.7469Q385.5 344.95 385.17188 344.5594Q384.65625 343.95 383.85938 343.95Q383.125 343.95 382.625 344.4344Q382.14062 344.91876 382.09375 345.7469ZM388.28125 349.45L388.28125 343.23126L389.23438 343.23126L389.23438 344.16876Q389.59375 343.5125 389.89062 343.3094Q390.20312 343.09064 390.57812 343.09064Q391.10938 343.09064 391.65625 343.41876L391.29688 344.40314Q390.90625 344.16876 390.53125 344.16876Q390.17188 344.16876 389.89062 344.3875Q389.625 344.59064 389.51562 344.96564Q389.32812 345.52814 389.32812 346.1844L389.32812 349.45L388.28125 349.45ZM391.875 347.59064L392.90625 347.4344Q393.0 348.0594 393.39062 348.3875Q393.79688 348.71564 394.53125 348.71564Q395.25 348.71564 395.59375 348.4344Q395.95312 348.1375 395.95312 347.73126Q395.95312 347.3719 395.64062 347.16876Q395.42188 347.02814 394.5625 346.8094Q393.40625 346.5125 392.95312 346.3094Q392.51562 346.09064 392.28125 345.71564Q392.04688 345.34064 392.04688 344.8719Q392.04688 344.46564 392.23438 344.10626Q392.42188 343.7469 392.75 343.5125Q393.0 343.34064 393.42188 343.21564Q393.84375 343.09064 394.34375 343.09064Q395.0625 343.09064 395.60938 343.3094Q396.17188 343.5125 396.4375 343.8719Q396.70312 344.23126 396.79688 344.825L395.76562 344.96564Q395.70312 344.4969 395.35938 344.23126Q395.03125 343.95 394.40625 343.95Q393.6875 343.95 393.375 344.2Q393.0625 344.4344 393.0625 344.7625Q393.0625 344.96564 393.1875 345.1219Q393.32812 345.29376 393.59375 345.40314Q393.75 345.46564 394.53125 345.66876Q395.65625 345.98126 396.09375 346.16876Q396.53125 346.35626 396.78125 346.71564Q397.03125 347.075 397.03125 347.6219Q397.03125 348.15314 396.71875 348.6219Q396.42188 349.075 395.84375 349.34064Q395.26562 349.59064 394.53125 349.59064Q393.3125 349.59064 392.67188 349.09064Q392.04688 348.575 391.875 347.59064Z" fill-rule="nonzero"/><path fill="#4285f4" d="M212.0 20.55C212.0 19.997715 212.44771 19.55 213.0 19.55L223.0 19.55C223.55229 19.55 224.0 19.997715 224.0 20.55L224.0 30.55C224.0 31.102285 223.55229 31.55 223.0 31.55L213.0 31.55C212.44771 31.55 212.0 31.102285 212.0 30.55Z" fill-rule="nonzero"/><path fill="#1a1a1a" d="M232.59375 30.065624L233.625 30.221874Q233.6875 30.690624 233.98438 30.909374Q234.375 31.20625 235.04688 31.20625Q235.78125 31.20625 236.17188 30.909374Q236.57812 30.6125 236.71875 30.096874Q236.8125 29.76875 236.79688 28.7375Q236.10938 29.55 235.07812 29.55Q233.79688 29.55 233.09375 28.628124Q232.39062 27.690624 232.39062 26.409374Q232.39062 25.51875 232.70312 24.76875Q233.03125 24.003124 233.64062 23.596874Q234.25 23.190624 235.07812 23.190624Q236.1875 23.190624 236.90625 24.08125L236.90625 23.33125L237.875 23.33125L237.875 28.70625Q237.875 30.159374 237.57812 30.76875Q237.28125 31.378124 236.64062 31.721874Q236.0 32.08125 235.0625 32.08125Q233.95312 32.08125 233.26562 31.58125Q232.57812 31.08125 232.59375 30.065624ZM233.46875 26.33125Q233.46875 27.55 233.95312 28.1125Q234.4375 28.675 235.17188 28.675Q235.90625 28.675 236.39062 28.1125Q236.89062 27.55 236.89062 26.3625Q236.89062 25.221874 236.375 24.64375Q235.875 24.065624 235.15625 24.065624Q234.45312 24.065624 233.95312 24.64375Q233.46875 25.20625 233.46875 26.33125ZM239.79688 31.940624L239.79688 23.33125L240.75 23.33125L240.75 24.128124Q241.09375 23.659374 241.51562 23.425Q241.95312 23.190624 242.5625 23.190624Q243.35938 23.190624 243.96875 23.596874Q244.57812 24.003124 244.875 24.753124Q245.1875 25.503124 245.1875 26.39375Q245.1875 27.346874 244.84375 28.1125Q244.51562 28.878124 243.85938 29.284374Q243.20312 29.690624 242.48438 29.690624Q241.95312 29.690624 241.53125 29.471874Q241.10938 29.2375 240.84375 28.909374L240.84375 31.940624L239.79688 31.940624ZM240.75 26.471874Q240.75 27.675 241.23438 28.253124Q241.71875 28.815624 242.40625 28.815624Q243.10938 28.815624 243.60938 28.221874Q244.10938 27.628124 244.10938 26.378124Q244.10938 25.190624 243.625 24.6125Q243.14062 24.01875 242.45312 24.01875Q241.78125 24.01875 241.26562 24.64375Q240.75 25.26875 240.75 26.471874ZM249.09375 28.6125L249.25 29.534374Q248.79688 29.628124 248.45312 29.628124Q247.875 29.628124 247.5625 29.45625Q247.25 29.26875 247.10938 28.971874Q246.98438 28.675 246.98438 27.721874L246.98438 24.14375L246.21875 24.14375L246.21875 23.33125L246.98438 23.33125L246.98438 21.784374L248.03125 21.159374L248.03125 23.33125L249.09375 23.33125L249.09375 24.14375L248.03125 24.14375L248.03125 27.784374Q248.03125 28.2375 248.07812 28.3625Q248.14062 28.4875 248.26562 28.565624Q248.39062 28.64375 248.625 28.64375Q248.8125 28.64375 249.09375 28.6125ZM255.875 29.55L255.875 27.4875L252.15625 27.4875L252.15625 26.51875L256.07812 20.95625L256.9375 20.95625L256.9375 26.51875L258.09375 26.51875L258.09375 27.4875L256.9375 27.4875L256.9375 29.55L255.875 29.55ZM255.875 26.51875L255.875 22.659374L253.1875 26.51875L255.875 26.51875ZM260.09375 29.55L260.09375 28.346874L261.29688 28.346874L261.29688 29.55L260.09375 29.55ZM266.46875 29.55L265.42188 29.55L265.42188 22.83125Q265.03125 23.190624 264.40625 23.565624Q263.79688 23.925 263.3125 24.096874L263.3125 23.08125Q264.1875 22.659374 264.84375 22.08125Q265.51562 21.4875 265.79688 20.925L266.46875 20.925L266.46875 29.55ZM269.375 26.971874L269.375 25.909374L272.625 25.909374L272.625 26.971874L269.375 26.971874ZM273.79688 29.55L273.79688 23.33125L274.73438 23.33125L274.73438 24.20625Q275.03125 23.7375 275.51562 23.471874Q276.0 23.190624 276.625 23.190624Q277.3125 23.190624 277.75 23.471874Q278.20312 23.753124 278.375 24.26875Q279.125 23.190624 280.29688 23.190624Q281.23438 23.190624 281.71875 23.70625Q282.21875 24.20625 282.21875 25.284374L282.21875 29.55L281.17188 29.55L281.17188 25.628124Q281.17188 25.003124 281.0625 24.721874Q280.96875 24.440624 280.70312 24.26875Q280.4375 24.096874 280.0625 24.096874Q279.40625 24.096874 278.96875 24.534374Q278.54688 24.971874 278.54688 25.940624L278.54688 29.55L277.48438 29.55L277.48438 25.503124Q277.48438 24.8 277.21875 24.45625Q276.96875 24.096874 276.39062 24.096874Q275.9375 24.096874 275.5625 24.33125Q275.1875 24.565624 275.01562 25.01875Q274.84375 25.471874 274.84375 26.315624L274.84375 29.55L273.79688 29.55ZM284.79688 22.175L284.79688 20.95625L285.85938 20.95625L285.85938 22.175L284.79688 22.175ZM284.79688 29.55L284.79688 23.33125L285.85938 23.33125L285.85938 29.55L284.79688 29.55ZM287.79688 29.55L287.79688 23.33125L288.73438 23.33125L288.73438 24.20625Q289.42188 23.190624 290.71875 23.190624Q291.28125 23.190624 291.75 23.39375Q292.23438 23.596874 292.46875 23.925Q292.70312 24.253124 292.79688 24.690624Q292.84375 24.9875 292.84375 25.721874L292.84375 29.55L291.79688 29.55L291.79688 25.76875Q291.79688 25.1125 291.67188 24.8Q291.54688 24.4875 291.23438 24.3Q290.92188 24.096874 290.5 24.096874Q289.82812 24.096874 289.32812 24.534374Q288.84375 24.95625 288.84375 26.14375L288.84375 29.55L287.79688 29.55ZM294.79688 22.175L294.79688 20.95625L295.85938 20.95625L295.85938 22.175L294.79688 22.175ZM294.79688 29.55L294.79688 23.33125L295.85938 23.33125L295.85938 29.55L294.79688 29.55Z" fill-rule="nonzero"/><path fill="#ea4335" d="M313.0 20.55C313.0 19.997715 313.44772 19.55 314.0 19.55L324.0 19.55C324.55228 19.55 325.0 19.997715 325.0 20.55L325.0 30.55C325.0 31.102285 324.55228 31.55 324.0 31.55L314.0 31.55C313.44772 31.55 313.0 31.102285 313.0 30.55Z" fill-rule="nonzero"/><path fill="#1a1a1a" d="M333.59375 30.065624L334.625 30.221874Q334.6875 30.690624 334.98438 30.909374Q335.375 31.20625 336.04688 31.20625Q336.78125 31.20625 337.17188 30.909374Q337.57812 30.6125 337.71875 30.096874Q337.8125 29.76875 337.79688 28.7375Q337.10938 29.55 336.07812 29.55Q334.79688 29.55 334.09375 28.628124Q333.39062 27.690624 333.39062 26.409374Q333.39062 25.51875 333.70312 24.76875Q334.03125 24.003124 334.64062 23.596874Q335.25 23.190624 336.07812 23.190624Q337.1875 23.190624 337.90625 24.08125L337.90625 23.33125L338.875 23.33125L338.875 28.70625Q338.875 30.159374 338.57812 30.76875Q338.28125 31.378124 337.64062 31.721874Q337.0 32.08125 336.0625 32.08125Q334.95312 32.08125 334.26562 31.58125Q333.57812 31.08125 333.59375 30.065624ZM334.46875 26.33125Q334.46875 27.55 334.95312 28.1125Q335.4375 28.675 336.17188 28.675Q336.90625 28.675 337.39062 28.1125Q337.89062 27.55 337.89062 26.3625Q337.89062 25.221874 337.375 24.64375Q336.875 24.065624 336.15625 24.065624Q335.45312 24.065624 334.95312 24.64375Q334.46875 25.20625 334.46875 26.33125ZM340.79688 31.940624L340.79688 23.33125L341.75 23.33125L341.75 24.128124Q342.09375 23.659374 342.51562 23.425Q342.95312 23.190624 343.5625 23.190624Q344.35938 23.190624 344.96875 23.596874Q345.57812 24.003124 345.875 24.753124Q346.1875 25.503124 346.1875 26.39375Q346.1875 27.346874 345.84375 28.1125Q345.51562 28.878124 344.85938 29.284374Q344.20312 29.690624 343.48438 29.690624Q342.95312 29.690624 342.53125 29.471874Q342.10938 29.2375 341.84375 28.909374L341.84375 31.940624L340.79688 31.940624ZM341.75 26.471874Q341.75 27.675 342.23438 28.253124Q342.71875 28.815624 343.40625 28.815624Q344.10938 28.815624 344.60938 28.221874Q345.10938 27.628124 345.10938 26.378124Q345.10938 25.190624 344.625 24.6125Q344.14062 24.01875 343.45312 24.01875Q342.78125 24.01875 342.26562 24.64375Q341.75 25.26875 341.75 26.471874ZM350.09375 28.6125L350.25 29.534374Q349.79688 29.628124 349.45312 29.628124Q348.875 29.628124 348.5625 29.45625Q348.25 29.26875 348.10938 28.971874Q347.98438 28.675 347.98438 27.721874L347.98438 24.14375L347.21875 24.14375L347.21875 23.33125L347.98438 23.33125L347.98438 21.784374L349.03125 21.159374L349.03125 23.33125L350.09375 23.33125L350.09375 24.14375L349.03125 24.14375L349.03125 27.784374Q349.03125 28.2375 349.07812 28.3625Q349.14062 28.4875 349.26562 28.565624Q349.39062 28.64375 349.625 28.64375Q349.8125 28.64375 350.09375 28.6125ZM353.5 27.3L354.60938 27.20625Q354.73438 28.01875 355.17188 28.425Q355.625 28.83125 356.26562 28.83125Q357.01562 28.83125 357.54688 28.253124Q358.07812 27.675 358.07812 26.7375Q358.07812 25.83125 357.5625 25.315624Q357.0625 24.784374 356.23438 24.784374Q355.73438 24.784374 355.3125 25.01875Q354.90625 25.253124 354.67188 25.6125L353.6875 25.4875L354.51562 21.08125L358.79688 21.08125L358.79688 22.08125L355.35938 22.08125L354.90625 24.39375Q355.67188 23.846874 356.51562 23.846874Q357.64062 23.846874 358.40625 24.628124Q359.1875 25.409374 359.1875 26.64375Q359.1875 27.8 358.51562 28.659374Q357.6875 29.690624 356.26562 29.690624Q355.09375 29.690624 354.34375 29.034374Q353.60938 28.378124 353.5 27.3ZM360.375 26.971874L360.375 25.909374L363.625 25.909374L363.625 26.971874L360.375 26.971874ZM364.79688 29.55L364.79688 23.33125L365.73438 23.33125L365.73438 24.20625Q366.03125 23.7375 366.51562 23.471874Q367.0 23.190624 367.625 23.190624Q368.3125 23.190624 368.75 23.471874Q369.20312 23.753124 369.375 24.26875Q370.125 23.190624 371.29688 23.190624Q372.23438 23.190624 372.71875 23.70625Q373.21875 24.20625 373.21875 25.284374L373.21875 29.55L372.17188 29.55L372.17188 25.628124Q372.17188 25.003124 372.0625 24.721874Q371.96875 24.440624 371.70312 24.26875Q371.4375 24.096874 371.0625 24.096874Q370.40625 24.096874 369.96875 24.534374Q369.54688 24.971874 369.54688 25.940624L369.54688 29.55L368.48438 29.55L368.48438 25.503124Q368.48438 24.8 368.21875 24.45625Q367.96875 24.096874 367.39062 24.096874Q366.9375 24.096874 366.5625 24.33125Q366.1875 24.565624 366.01562 25.01875Q365.84375 25.471874 365.84375 26.315624L365.84375 29.55L364.79688 29.55ZM375.79688 22.175L375.79688 20.95625L376.85938 20.95625L376.85938 22.175L375.79688 22.175ZM375.79688 29.55L375.79688 23.33125L376.85938 23.33125L376.85938 29.55L375.79688 29.55ZM378.79688 29.55L378.79688 23.33125L379.73438 23.33125L379.73438 24.20625Q380.42188 23.190624 381.71875 23.190624Q382.28125 23.190624 382.75 23.39375Q383.23438 23.596874 383.46875 23.925Q383.70312 24.253124 383.79688 24.690624Q383.84375 24.9875 383.84375 25.721874L383.84375 29.55L382.79688 29.55L382.79688 25.76875Q382.79688 25.1125 382.67188 24.8Q382.54688 24.4875 382.23438 24.3Q381.92188 24.096874 381.5 24.096874Q380.82812 24.096874 380.32812 24.534374Q379.84375 24.95625 379.84375 26.14375L379.84375 29.55L378.79688 29.55ZM385.79688 22.175L385.79688 20.95625L386.85938 20.95625L386.85938 22.175L385.79688 22.175ZM385.79688 29.55L385.79688 23.33125L386.85938 23.33125L386.85938 29.55L385.79688 29.55Z" fill-rule="nonzero"/></svg>
