<svg version="1.1" viewBox="0.0 0.0 600.0 371.0" fill="none" stroke="none" stroke-linecap="square" stroke-miterlimit="10" width="600" height="371" xmlns:xlink="http://www.w3.org/1999/xlink" xmlns="http://www.w3.org/2000/svg"><path fill="#ffffff" d="M0 0L600.0 0L600.0 371.0L0 371.0L0 0Z" fill-rule="nonzero"/><path stroke="#333333" stroke-width="1.0" stroke-linecap="butt" d="M98.5 332.5L581.5 332.5" fill-rule="nonzero"/><path stroke="#cccccc" stroke-width="1.0" stroke-linecap="butt" d="M98.5 255.5L581.5 255.5" fill-rule="nonzero"/><path stroke="#cccccc" stroke-width="1.0" stroke-linecap="butt" d="M98.5 179.5L581.5 179.5" fill-rule="nonzero"/><path stroke="#cccccc" stroke-width="1.0" stroke-linecap="butt" d="M98.5 102.5L581.5 102.5" fill-rule="nonzero"/><path stroke="#cccccc" stroke-width="1.0" stroke-linecap="butt" d="M98.5 25.5L581.5 25.5" fill-rule="nonzero"/><clipPath id="id_0"><path d="M98.55 25.55L581.45 25.55L581.45 332.45L98.55 332.45L98.55 25.55Z" clip-rule="nonzero"/></clipPath><path stroke="#000000" stroke-width="2.0" stroke-linecap="butt" stroke-opacity="0.0" clip-path="url(#id_0)" d="M243.0 332.0L149.0 332.0L149.0 79.0C149.0 77.89543 149.89543 77.0 151.0 77.0L241.0 77.0C242.10457 77.0 243.0 77.89543 243.0 79.0Z" fill-rule="nonzero"/><path fill="#4285f4" clip-path="url(#id_0)" d="M243.0 332.0L149.0 332.0L149.0 79.0C149.0 77.89543 149.89543 77.0 151.0 77.0L241.0 77.0C242.10457 77.0 243.0 77.89543 243.0 79.0Z" fill-rule="nonzero"/><path stroke="#000000" stroke-width="2.0" stroke-linecap="butt" stroke-opacity="0.0" clip-path="url(#id_0)" d="M387.0 332.0L293.0 332.0L293.0 53.0C293.0 51.89543 293.89542 51.0 295.0 51.0L385.0 51.0C386.10458 51.0 387.0 51.89543 387.0 53.0Z" fill-rule="nonzero"/><path fill="#4285f4" clip-path="url(#id_0)" d="M387.0 332.0L293.0 332.0L293.0 53.0C293.0 51.89543 293.89542 51.0 295.0 51.0L385.0 51.0C386.10458 51.0 387.0 51.89543 387.0 53.0Z" fill-rule="nonzero"/><path stroke="#000000" stroke-width="2.0" stroke-linecap="butt" stroke-opacity="0.0" clip-path="url(#id_0)" d="M531.0 332.0L437.0 332.0L437.0 40.0C437.0 38.89543 437.89542 38.0 439.0 38.0L529.0 38.0C530.10455 38.0 531.0 38.89543 531.0 40.0Z" fill-rule="nonzero"/><path fill="#4285f4" clip-path="url(#id_0)" d="M531.0 332.0L437.0 332.0L437.0 40.0C437.0 38.89543 437.89542 38.0 439.0 38.0L529.0 38.0C530.10455 38.0 531.0 38.89543 531.0 40.0Z" fill-rule="nonzero"/><path stroke="#4285f4" stroke-width="3.0" stroke-linejoin="round" stroke-linecap="round" d="M180.875 84.953125L180.96875 84.953125L180.96875 85.875L180.875 85.875Q180.01562 85.875 179.42188 86.15625Q178.84375 86.4375 178.5 86.90625Q178.17188 87.359375 178.01562 87.953125Q177.875 88.53125 177.875 89.125L177.875 90.375Q177.875 90.9375 178.0 91.375Q178.14062 91.8125 178.375 92.125Q178.60938 92.421875 178.90625 92.578125Q179.20312 92.71875 179.51562 92.71875Q179.89062 92.71875 180.1875 92.578125Q180.48438 92.4375 180.6875 92.171875Q180.89062 91.90625 180.98438 91.5625Q181.09375 91.203125 181.09375 90.765625Q181.09375 90.390625 181.0 90.03125Q180.90625 89.671875 180.71875 89.40625Q180.53125 89.125 180.23438 88.96875Q179.9375 88.796875 179.54688 88.796875Q179.09375 88.796875 178.70312 89.015625Q178.3125 89.234375 178.0625 89.59375Q177.8125 89.953125 177.78125 90.359375L177.20312 90.359375Q177.29688 89.703125 177.51562 89.234375Q177.73438 88.765625 178.07812 88.46875Q178.42188 88.171875 178.82812 88.046875Q179.25 87.90625 179.71875 87.90625Q180.35938 87.90625 180.8125 88.15625Q181.28125 88.390625 181.57812 88.796875Q181.89062 89.1875 182.03125 89.6875Q182.17188 90.1875 182.17188 90.71875Q182.17188 91.3125 182.0 91.84375Q181.82812 92.375 181.48438 92.78125Q181.15625 93.171875 180.65625 93.40625Q180.17188 93.625 179.51562 93.625Q178.82812 93.625 178.3125 93.34375Q177.79688 93.046875 177.45312 92.578125Q177.125 92.09375 176.95312 91.515625Q176.78125 90.9375 176.78125 90.34375L176.78125 89.828125Q176.78125 88.921875 176.95312 88.0625Q177.14062 87.1875 177.59375 86.484375Q178.04688 85.78125 178.84375 85.375Q179.64062 84.953125 180.875 84.953125ZM187.875 84.953125L187.96875 84.953125L187.96875 85.875L187.875 85.875Q187.01562 85.875 186.42188 86.15625Q185.84375 86.4375 185.5 86.90625Q185.17188 87.359375 185.01562 87.953125Q184.875 88.53125 184.875 89.125L184.875 90.375Q184.875 90.9375 185.0 91.375Q185.14062 91.8125 185.375 92.125Q185.60938 92.421875 185.90625 92.578125Q186.20312 92.71875 186.51562 92.71875Q186.89062 92.71875 187.1875 92.578125Q187.48438 92.4375 187.6875 92.171875Q187.89062 91.90625 187.98438 91.5625Q188.09375 91.203125 188.09375 90.765625Q188.09375 90.390625 188.0 90.03125Q187.90625 89.671875 187.71875 89.40625Q187.53125 89.125 187.23438 88.96875Q186.9375 88.796875 186.54688 88.796875Q186.09375 88.796875 185.70312 89.015625Q185.3125 89.234375 185.0625 89.59375Q184.8125 89.953125 184.78125 90.359375L184.20312 90.359375Q184.29688 89.703125 184.51562 89.234375Q184.73438 88.765625 185.07812 88.46875Q185.42188 88.171875 185.82812 88.046875Q186.25 87.90625 186.71875 87.90625Q187.35938 87.90625 187.8125 88.15625Q188.28125 88.390625 188.57812 88.796875Q188.89062 89.1875 189.03125 89.6875Q189.17188 90.1875 189.17188 90.71875Q189.17188 91.3125 189.0 91.84375Q188.82812 92.375 188.48438 92.78125Q188.15625 93.171875 187.65625 93.40625Q187.17188 93.625 186.51562 93.625Q185.82812 93.625 185.3125 93.34375Q184.79688 93.046875 184.45312 92.578125Q184.125 92.09375 183.95312 91.515625Q183.78125 90.9375 183.78125 90.34375L183.78125 89.828125Q183.78125 88.921875 183.95312 88.0625Q184.14062 87.1875 184.59375 86.484375Q185.04688 85.78125 185.84375 85.375Q186.64062 84.953125 187.875 84.953125ZM190.84375 92.921875Q190.84375 92.65625 191.01562 92.46875Q191.1875 92.265625 191.51562 92.265625Q191.84375 92.265625 192.01562 92.46875Q192.1875 92.65625 192.1875 92.921875Q192.1875 93.1875 192.01562 93.390625Q191.84375 93.578125 191.51562 93.578125Q191.1875 93.578125 191.01562 93.390625Q190.84375 93.1875 190.84375 92.921875ZM197.875 84.953125L197.96875 84.953125L197.96875 85.875L197.875 85.875Q197.01562 85.875 196.42188 86.15625Q195.84375 86.4375 195.5 86.90625Q195.17188 87.359375 195.01562 87.953125Q194.875 88.53125 194.875 89.125L194.875 90.375Q194.875 90.9375 195.0 91.375Q195.14062 91.8125 195.375 92.125Q195.60938 92.421875 195.90625 92.578125Q196.20312 92.71875 196.51562 92.71875Q196.89062 92.71875 197.1875 92.578125Q197.48438 92.4375 197.6875 92.171875Q197.89062 91.90625 197.98438 91.5625Q198.09375 91.203125 198.09375 90.765625Q198.09375 90.390625 198.0 90.03125Q197.90625 89.671875 197.71875 89.40625Q197.53125 89.125 197.23438 88.96875Q196.9375 88.796875 196.54688 88.796875Q196.09375 88.796875 195.70312 89.015625Q195.3125 89.234375 195.0625 89.59375Q194.8125 89.953125 194.78125 90.359375L194.20312 90.359375Q194.29688 89.703125 194.51562 89.234375Q194.73438 88.765625 195.07812 88.46875Q195.42188 88.171875 195.82812 88.046875Q196.25 87.90625 196.71875 87.90625Q197.35938 87.90625 197.8125 88.15625Q198.28125 88.390625 198.57812 88.796875Q198.89062 89.1875 199.03125 89.6875Q199.17188 90.1875 199.17188 90.71875Q199.17188 91.3125 199.0 91.84375Q198.82812 92.375 198.48438 92.78125Q198.15625 93.171875 197.65625 93.40625Q197.17188 93.625 196.51562 93.625Q195.82812 93.625 195.3125 93.34375Q194.79688 93.046875 194.45312 92.578125Q194.125 92.09375 193.95312 91.515625Q193.78125 90.9375 193.78125 90.34375L193.78125 89.828125Q193.78125 88.921875 193.95312 88.0625Q194.14062 87.1875 194.59375 86.484375Q195.04688 85.78125 195.84375 85.375Q196.64062 84.953125 197.875 84.953125ZM206.21875 84.96875L206.21875 85.578125L202.6875 93.5L201.54688 93.5L205.07812 85.859375L200.45312 85.859375L200.45312 84.96875L206.21875 84.96875ZM207.60938 87.0625L207.60938 86.609375Q207.60938 86.125 207.8125 85.734375Q208.03125 85.328125 208.42188 85.09375Q208.82812 84.84375 209.35938 84.84375Q209.90625 84.84375 210.29688 85.09375Q210.6875 85.328125 210.89062 85.734375Q211.10938 86.125 211.10938 86.609375L211.10938 87.0625Q211.10938 87.53125 210.90625 87.9375Q210.70312 88.328125 210.3125 88.578125Q209.92188 88.8125 209.375 88.8125Q208.82812 88.8125 208.42188 88.578125Q208.03125 88.328125 207.8125 87.9375Q207.60938 87.53125 207.60938 87.0625ZM208.4375 86.609375L208.4375 87.0625Q208.4375 87.328125 208.53125 87.578125Q208.64062 87.8125 208.84375 87.96875Q209.0625 88.109375 209.375 88.109375Q209.6875 88.109375 209.89062 87.96875Q210.09375 87.8125 210.1875 87.578125Q210.29688 87.328125 210.29688 87.0625L210.29688 86.609375Q210.29688 86.328125 210.1875 86.09375Q210.09375 85.84375 209.875 85.703125Q209.67188 85.546875 209.35938 85.546875Q209.04688 85.546875 208.84375 85.703125Q208.64062 85.84375 208.53125 86.09375Q208.4375 86.328125 208.4375 86.609375ZM211.76562 91.859375L211.76562 91.40625Q211.76562 90.921875 211.96875 90.53125Q212.1875 90.125 212.57812 89.890625Q212.98438 89.65625 213.51562 89.65625Q214.0625 89.65625 214.45312 89.890625Q214.84375 90.125 215.04688 90.53125Q215.26562 90.921875 215.26562 91.40625L215.26562 91.859375Q215.26562 92.34375 215.0625 92.75Q214.85938 93.140625 214.46875 93.390625Q214.07812 93.625 213.53125 93.625Q212.98438 93.625 212.59375 93.390625Q212.20312 93.140625 211.98438 92.75Q211.76562 92.34375 211.76562 91.859375ZM212.57812 91.40625L212.57812 91.859375Q212.57812 92.140625 212.6875 92.390625Q212.79688 92.625 213.0 92.78125Q213.21875 92.921875 213.53125 92.921875Q213.84375 92.921875 214.04688 92.78125Q214.26562 92.625 214.35938 92.390625Q214.45312 92.140625 214.45312 91.859375L214.45312 91.40625Q214.45312 91.125 214.34375 90.890625Q214.25 90.65625 214.04688 90.515625Q213.84375 90.359375 213.51562 90.359375Q213.20312 90.359375 213.0 90.515625Q212.79688 90.65625 212.6875 90.890625Q212.57812 91.125 212.57812 91.40625ZM213.78125 86.1875L209.625 92.84375L209.01562 92.46875L213.17188 85.796875L213.78125 86.1875Z" fill-rule="nonzero"/><path fill="#ffffff" d="M180.875 84.953125L180.96875 84.953125L180.96875 85.875L180.875 85.875Q180.01562 85.875 179.42188 86.15625Q178.84375 86.4375 178.5 86.90625Q178.17188 87.359375 178.01562 87.953125Q177.875 88.53125 177.875 89.125L177.875 90.375Q177.875 90.9375 178.0 91.375Q178.14062 91.8125 178.375 92.125Q178.60938 92.421875 178.90625 92.578125Q179.20312 92.71875 179.51562 92.71875Q179.89062 92.71875 180.1875 92.578125Q180.48438 92.4375 180.6875 92.171875Q180.89062 91.90625 180.98438 91.5625Q181.09375 91.203125 181.09375 90.765625Q181.09375 90.390625 181.0 90.03125Q180.90625 89.671875 180.71875 89.40625Q180.53125 89.125 180.23438 88.96875Q179.9375 88.796875 179.54688 88.796875Q179.09375 88.796875 178.70312 89.015625Q178.3125 89.234375 178.0625 89.59375Q177.8125 89.953125 177.78125 90.359375L177.20312 90.359375Q177.29688 89.703125 177.51562 89.234375Q177.73438 88.765625 178.07812 88.46875Q178.42188 88.171875 178.82812 88.046875Q179.25 87.90625 179.71875 87.90625Q180.35938 87.90625 180.8125 88.15625Q181.28125 88.390625 181.57812 88.796875Q181.89062 89.1875 182.03125 89.6875Q182.17188 90.1875 182.17188 90.71875Q182.17188 91.3125 182.0 91.84375Q181.82812 92.375 181.48438 92.78125Q181.15625 93.171875 180.65625 93.40625Q180.17188 93.625 179.51562 93.625Q178.82812 93.625 178.3125 93.34375Q177.79688 93.046875 177.45312 92.578125Q177.125 92.09375 176.95312 91.515625Q176.78125 90.9375 176.78125 90.34375L176.78125 89.828125Q176.78125 88.921875 176.95312 88.0625Q177.14062 87.1875 177.59375 86.484375Q178.04688 85.78125 178.84375 85.375Q179.64062 84.953125 180.875 84.953125ZM187.875 84.953125L187.96875 84.953125L187.96875 85.875L187.875 85.875Q187.01562 85.875 186.42188 86.15625Q185.84375 86.4375 185.5 86.90625Q185.17188 87.359375 185.01562 87.953125Q184.875 88.53125 184.875 89.125L184.875 90.375Q184.875 90.9375 185.0 91.375Q185.14062 91.8125 185.375 92.125Q185.60938 92.421875 185.90625 92.578125Q186.20312 92.71875 186.51562 92.71875Q186.89062 92.71875 187.1875 92.578125Q187.48438 92.4375 187.6875 92.171875Q187.89062 91.90625 187.98438 91.5625Q188.09375 91.203125 188.09375 90.765625Q188.09375 90.390625 188.0 90.03125Q187.90625 89.671875 187.71875 89.40625Q187.53125 89.125 187.23438 88.96875Q186.9375 88.796875 186.54688 88.796875Q186.09375 88.796875 185.70312 89.015625Q185.3125 89.234375 185.0625 89.59375Q184.8125 89.953125 184.78125 90.359375L184.20312 90.359375Q184.29688 89.703125 184.51562 89.234375Q184.73438 88.765625 185.07812 88.46875Q185.42188 88.171875 185.82812 88.046875Q186.25 87.90625 186.71875 87.90625Q187.35938 87.90625 187.8125 88.15625Q188.28125 88.390625 188.57812 88.796875Q188.89062 89.1875 189.03125 89.6875Q189.17188 90.1875 189.17188 90.71875Q189.17188 91.3125 189.0 91.84375Q188.82812 92.375 188.48438 92.78125Q188.15625 93.171875 187.65625 93.40625Q187.17188 93.625 186.51562 93.625Q185.82812 93.625 185.3125 93.34375Q184.79688 93.046875 184.45312 92.578125Q184.125 92.09375 183.95312 91.515625Q183.78125 90.9375 183.78125 90.34375L183.78125 89.828125Q183.78125 88.921875 183.95312 88.0625Q184.14062 87.1875 184.59375 86.484375Q185.04688 85.78125 185.84375 85.375Q186.64062 84.953125 187.875 84.953125ZM190.84375 92.921875Q190.84375 92.65625 191.01562 92.46875Q191.1875 92.265625 191.51562 92.265625Q191.84375 92.265625 192.01562 92.46875Q192.1875 92.65625 192.1875 92.921875Q192.1875 93.1875 192.01562 93.390625Q191.84375 93.578125 191.51562 93.578125Q191.1875 93.578125 191.01562 93.390625Q190.84375 93.1875 190.84375 92.921875ZM197.875 84.953125L197.96875 84.953125L197.96875 85.875L197.875 85.875Q197.01562 85.875 196.42188 86.15625Q195.84375 86.4375 195.5 86.90625Q195.17188 87.359375 195.01562 87.953125Q194.875 88.53125 194.875 89.125L194.875 90.375Q194.875 90.9375 195.0 91.375Q195.14062 91.8125 195.375 92.125Q195.60938 92.421875 195.90625 92.578125Q196.20312 92.71875 196.51562 92.71875Q196.89062 92.71875 197.1875 92.578125Q197.48438 92.4375 197.6875 92.171875Q197.89062 91.90625 197.98438 91.5625Q198.09375 91.203125 198.09375 90.765625Q198.09375 90.390625 198.0 90.03125Q197.90625 89.671875 197.71875 89.40625Q197.53125 89.125 197.23438 88.96875Q196.9375 88.796875 196.54688 88.796875Q196.09375 88.796875 195.70312 89.015625Q195.3125 89.234375 195.0625 89.59375Q194.8125 89.953125 194.78125 90.359375L194.20312 90.359375Q194.29688 89.703125 194.51562 89.234375Q194.73438 88.765625 195.07812 88.46875Q195.42188 88.171875 195.82812 88.046875Q196.25 87.90625 196.71875 87.90625Q197.35938 87.90625 197.8125 88.15625Q198.28125 88.390625 198.57812 88.796875Q198.89062 89.1875 199.03125 89.6875Q199.17188 90.1875 199.17188 90.71875Q199.17188 91.3125 199.0 91.84375Q198.82812 92.375 198.48438 92.78125Q198.15625 93.171875 197.65625 93.40625Q197.17188 93.625 196.51562 93.625Q195.82812 93.625 195.3125 93.34375Q194.79688 93.046875 194.45312 92.578125Q194.125 92.09375 193.95312 91.515625Q193.78125 90.9375 193.78125 90.34375L193.78125 89.828125Q193.78125 88.921875 193.95312 88.0625Q194.14062 87.1875 194.59375 86.484375Q195.04688 85.78125 195.84375 85.375Q196.64062 84.953125 197.875 84.953125ZM206.21875 84.96875L206.21875 85.578125L202.6875 93.5L201.54688 93.5L205.07812 85.859375L200.45312 85.859375L200.45312 84.96875L206.21875 84.96875ZM207.60938 87.0625L207.60938 86.609375Q207.60938 86.125 207.8125 85.734375Q208.03125 85.328125 208.42188 85.09375Q208.82812 84.84375 209.35938 84.84375Q209.90625 84.84375 210.29688 85.09375Q210.6875 85.328125 210.89062 85.734375Q211.10938 86.125 211.10938 86.609375L211.10938 87.0625Q211.10938 87.53125 210.90625 87.9375Q210.70312 88.328125 210.3125 88.578125Q209.92188 88.8125 209.375 88.8125Q208.82812 88.8125 208.42188 88.578125Q208.03125 88.328125 207.8125 87.9375Q207.60938 87.53125 207.60938 87.0625ZM208.4375 86.609375L208.4375 87.0625Q208.4375 87.328125 208.53125 87.578125Q208.64062 87.8125 208.84375 87.96875Q209.0625 88.109375 209.375 88.109375Q209.6875 88.109375 209.89062 87.96875Q210.09375 87.8125 210.1875 87.578125Q210.29688 87.328125 210.29688 87.0625L210.29688 86.609375Q210.29688 86.328125 210.1875 86.09375Q210.09375 85.84375 209.875 85.703125Q209.67188 85.546875 209.35938 85.546875Q209.04688 85.546875 208.84375 85.703125Q208.64062 85.84375 208.53125 86.09375Q208.4375 86.328125 208.4375 86.609375ZM211.76562 91.859375L211.76562 91.40625Q211.76562 90.921875 211.96875 90.53125Q212.1875 90.125 212.57812 89.890625Q212.98438 89.65625 213.51562 89.65625Q214.0625 89.65625 214.45312 89.890625Q214.84375 90.125 215.04688 90.53125Q215.26562 90.921875 215.26562 91.40625L215.26562 91.859375Q215.26562 92.34375 215.0625 92.75Q214.85938 93.140625 214.46875 93.390625Q214.07812 93.625 213.53125 93.625Q212.98438 93.625 212.59375 93.390625Q212.20312 93.140625 211.98438 92.75Q211.76562 92.34375 211.76562 91.859375ZM212.57812 91.40625L212.57812 91.859375Q212.57812 92.140625 212.6875 92.390625Q212.79688 92.625 213.0 92.78125Q213.21875 92.921875 213.53125 92.921875Q213.84375 92.921875 214.04688 92.78125Q214.26562 92.625 214.35938 92.390625Q214.45312 92.140625 214.45312 91.859375L214.45312 91.40625Q214.45312 91.125 214.34375 90.890625Q214.25 90.65625 214.04688 90.515625Q213.84375 90.359375 213.51562 90.359375Q213.20312 90.359375 213.0 90.515625Q212.79688 90.65625 212.6875 90.890625Q212.57812 91.125 212.57812 91.40625ZM213.78125 86.1875L209.625 92.84375L209.01562 92.46875L213.17188 85.796875L213.78125 86.1875Z" fill-rule="nonzero"/><path stroke="#4285f4" stroke-width="3.0" stroke-linejoin="round" stroke-linecap="round" d="M326.21875 59.39375L326.21875 60.003124L322.6875 67.925L321.54688 67.925L325.07812 60.284374L320.45312 60.284374L320.45312 59.39375L326.21875 59.39375ZM329.29688 63.128124L330.0625 63.128124Q330.64062 63.128124 331.0 62.940624Q331.375 62.7375 331.5625 62.409374Q331.75 62.08125 331.75 61.659374Q331.75 61.175 331.57812 60.846874Q331.42188 60.503124 331.09375 60.33125Q330.76562 60.159374 330.26562 60.159374Q329.79688 60.159374 329.45312 60.346874Q329.10938 60.51875 328.90625 60.846874Q328.71875 61.175 328.71875 61.628124L327.625 61.628124Q327.625 60.971874 327.95312 60.440624Q328.28125 59.909374 328.875 59.596874Q329.46875 59.26875 330.26562 59.26875Q331.03125 59.26875 331.60938 59.55Q332.1875 59.815624 332.51562 60.3625Q332.84375 60.89375 332.84375 61.690624Q332.84375 62.01875 332.6875 62.378124Q332.53125 62.7375 332.21875 63.065624Q331.90625 63.378124 331.40625 63.58125Q330.92188 63.784374 330.21875 63.784374L329.29688 63.784374L329.29688 63.128124ZM329.29688 64.01875L329.29688 63.3625L330.21875 63.3625Q331.03125 63.3625 331.5625 63.565624Q332.09375 63.753124 332.40625 64.08125Q332.71875 64.39375 332.84375 64.78438Q332.96875 65.15938 332.96875 65.55Q332.96875 66.14375 332.76562 66.6125Q332.5625 67.06563 332.1875 67.39375Q331.82812 67.70625 331.32812 67.87813Q330.84375 68.05 330.26562 68.05Q329.70312 68.05 329.21875 67.89375Q328.73438 67.72188 328.35938 67.425Q327.98438 67.12813 327.76562 66.69063Q327.5625 66.2375 327.5625 65.675L328.64062 65.675Q328.64062 66.1125 328.82812 66.45625Q329.03125 66.78438 329.39062 66.97188Q329.76562 67.14375 330.26562 67.14375Q330.76562 67.14375 331.125 66.97188Q331.48438 66.8 331.67188 66.45625Q331.875 66.09688 331.875 65.56563Q331.875 65.03438 331.65625 64.69063Q331.4375 64.34688 331.01562 64.19063Q330.60938 64.01875 330.0625 64.01875L329.29688 64.01875ZM334.84375 67.34688Q334.84375 67.08125 335.01562 66.89375Q335.1875 66.69063 335.51562 66.69063Q335.84375 66.69063 336.01562 66.89375Q336.1875 67.08125 336.1875 67.34688Q336.1875 67.6125 336.01562 67.81563Q335.84375 68.00313 335.51562 68.00313Q335.1875 68.00313 335.01562 67.81563Q334.84375 67.6125 334.84375 67.34688ZM339.29688 63.128124L340.0625 63.128124Q340.64062 63.128124 341.0 62.940624Q341.375 62.7375 341.5625 62.409374Q341.75 62.08125 341.75 61.659374Q341.75 61.175 341.57812 60.846874Q341.42188 60.503124 341.09375 60.33125Q340.76562 60.159374 340.26562 60.159374Q339.79688 60.159374 339.45312 60.346874Q339.10938 60.51875 338.90625 60.846874Q338.71875 61.175 338.71875 61.628124L337.625 61.628124Q337.625 60.971874 337.95312 60.440624Q338.28125 59.909374 338.875 59.596874Q339.46875 59.26875 340.26562 59.26875Q341.03125 59.26875 341.60938 59.55Q342.1875 59.815624 342.51562 60.3625Q342.84375 60.89375 342.84375 61.690624Q342.84375 62.01875 342.6875 62.378124Q342.53125 62.7375 342.21875 63.065624Q341.90625 63.378124 341.40625 63.58125Q340.92188 63.784374 340.21875 63.784374L339.29688 63.784374L339.29688 63.128124ZM339.29688 64.01875L339.29688 63.3625L340.21875 63.3625Q341.03125 63.3625 341.5625 63.565624Q342.09375 63.753124 342.40625 64.08125Q342.71875 64.39375 342.84375 64.78438Q342.96875 65.15938 342.96875 65.55Q342.96875 66.14375 342.76562 66.6125Q342.5625 67.06563 342.1875 67.39375Q341.82812 67.70625 341.32812 67.87813Q340.84375 68.05 340.26562 68.05Q339.70312 68.05 339.21875 67.89375Q338.73438 67.72188 338.35938 67.425Q337.98438 67.12813 337.76562 66.69063Q337.5625 66.2375 337.5625 65.675L338.64062 65.675Q338.64062 66.1125 338.82812 66.45625Q339.03125 66.78438 339.39062 66.97188Q339.76562 67.14375 340.26562 67.14375Q340.76562 67.14375 341.125 66.97188Q341.48438 66.8 341.67188 66.45625Q341.875 66.09688 341.875 65.56563Q341.875 65.03438 341.65625 64.69063Q341.4375 64.34688 341.01562 64.19063Q340.60938 64.01875 340.0625 64.01875L339.29688 64.01875ZM346.29688 63.128124L347.0625 63.128124Q347.64062 63.128124 348.0 62.940624Q348.375 62.7375 348.5625 62.409374Q348.75 62.08125 348.75 61.659374Q348.75 61.175 348.57812 60.846874Q348.42188 60.503124 348.09375 60.33125Q347.76562 60.159374 347.26562 60.159374Q346.79688 60.159374 346.45312 60.346874Q346.10938 60.51875 345.90625 60.846874Q345.71875 61.175 345.71875 61.628124L344.625 61.628124Q344.625 60.971874 344.95312 60.440624Q345.28125 59.909374 345.875 59.596874Q346.46875 59.26875 347.26562 59.26875Q348.03125 59.26875 348.60938 59.55Q349.1875 59.815624 349.51562 60.3625Q349.84375 60.89375 349.84375 61.690624Q349.84375 62.01875 349.6875 62.378124Q349.53125 62.7375 349.21875 63.065624Q348.90625 63.378124 348.40625 63.58125Q347.92188 63.784374 347.21875 63.784374L346.29688 63.784374L346.29688 63.128124ZM346.29688 64.01875L346.29688 63.3625L347.21875 63.3625Q348.03125 63.3625 348.5625 63.565624Q349.09375 63.753124 349.40625 64.08125Q349.71875 64.39375 349.84375 64.78438Q349.96875 65.15938 349.96875 65.55Q349.96875 66.14375 349.76562 66.6125Q349.5625 67.06563 349.1875 67.39375Q348.82812 67.70625 348.32812 67.87813Q347.84375 68.05 347.26562 68.05Q346.70312 68.05 346.21875 67.89375Q345.73438 67.72188 345.35938 67.425Q344.98438 67.12813 344.76562 66.69063Q344.5625 66.2375 344.5625 65.675L345.64062 65.675Q345.64062 66.1125 345.82812 66.45625Q346.03125 66.78438 346.39062 66.97188Q346.76562 67.14375 347.26562 67.14375Q347.76562 67.14375 348.125 66.97188Q348.48438 66.8 348.67188 66.45625Q348.875 66.09688 348.875 65.56563Q348.875 65.03438 348.65625 64.69063Q348.4375 64.34688 348.01562 64.19063Q347.60938 64.01875 347.0625 64.01875L346.29688 64.01875ZM351.60938 61.4875L351.60938 61.034374Q351.60938 60.55 351.8125 60.159374Q352.03125 59.753124 352.42188 59.51875Q352.82812 59.26875 353.35938 59.26875Q353.90625 59.26875 354.29688 59.51875Q354.6875 59.753124 354.89062 60.159374Q355.10938 60.55 355.10938 61.034374L355.10938 61.4875Q355.10938 61.95625 354.90625 62.3625Q354.70312 62.753124 354.3125 63.003124Q353.92188 63.2375 353.375 63.2375Q352.82812 63.2375 352.42188 63.003124Q352.03125 62.753124 351.8125 62.3625Q351.60938 61.95625 351.60938 61.4875ZM352.4375 61.034374L352.4375 61.4875Q352.4375 61.753124 352.53125 62.003124Q352.64062 62.2375 352.84375 62.39375Q353.0625 62.534374 353.375 62.534374Q353.6875 62.534374 353.89062 62.39375Q354.09375 62.2375 354.1875 62.003124Q354.29688 61.753124 354.29688 61.4875L354.29688 61.034374Q354.29688 60.753124 354.1875 60.51875Q354.09375 60.26875 353.875 60.128124Q353.67188 59.971874 353.35938 59.971874Q353.04688 59.971874 352.84375 60.128124Q352.64062 60.26875 352.53125 60.51875Q352.4375 60.753124 352.4375 61.034374ZM355.76562 66.28438L355.76562 65.83125Q355.76562 65.34688 355.96875 64.95625Q356.1875 64.55 356.57812 64.31563Q356.98438 64.08125 357.51562 64.08125Q358.0625 64.08125 358.45312 64.31563Q358.84375 64.55 359.04688 64.95625Q359.26562 65.34688 359.26562 65.83125L359.26562 66.28438Q359.26562 66.76875 359.0625 67.175Q358.85938 67.56563 358.46875 67.81563Q358.07812 68.05 357.53125 68.05Q356.98438 68.05 356.59375 67.81563Q356.20312 67.56563 355.98438 67.175Q355.76562 66.76875 355.76562 66.28438ZM356.57812 65.83125L356.57812 66.28438Q356.57812 66.56563 356.6875 66.81563Q356.79688 67.05 357.0 67.20625Q357.21875 67.34688 357.53125 67.34688Q357.84375 67.34688 358.04688 67.20625Q358.26562 67.05 358.35938 66.81563Q358.45312 66.56563 358.45312 66.28438L358.45312 65.83125Q358.45312 65.55 358.34375 65.31563Q358.25 65.08125 358.04688 64.94063Q357.84375 64.78438 357.51562 64.78438Q357.20312 64.78438 357.0 64.94063Q356.79688 65.08125 356.6875 65.31563Q356.57812 65.55 356.57812 65.83125ZM357.78125 60.6125L353.625 67.26875L353.01562 66.89375L357.17188 60.221874L357.78125 60.6125Z" fill-rule="nonzero"/><path fill="#ffffff" d="M326.21875 59.393753L326.21875 60.003128L322.6875 67.925L321.54688 67.925L325.07812 60.284378L320.45312 60.284378L320.45312 59.393753L326.21875 59.393753ZM329.29688 63.128128L330.0625 63.128128Q330.64062 63.128128 331.0 62.940628Q331.375 62.737503 331.5625 62.409378Q331.75 62.081253 331.75 61.659378Q331.75 61.175003 331.57812 60.846878Q331.42188 60.503128 331.09375 60.331253Q330.76562 60.159378 330.26562 60.159378Q329.79688 60.159378 329.45312 60.346878Q329.10938 60.518753 328.90625 60.846878Q328.71875 61.175003 328.71875 61.628128L327.625 61.628128Q327.625 60.971878 327.95312 60.440628Q328.28125 59.909378 328.875 59.596878Q329.46875 59.268753 330.26562 59.268753Q331.03125 59.268753 331.60938 59.550003Q332.1875 59.815628 332.51562 60.362503Q332.84375 60.893753 332.84375 61.690628Q332.84375 62.018753 332.6875 62.378128Q332.53125 62.737503 332.21875 63.065628Q331.90625 63.378128 331.40625 63.581253Q330.92188 63.784378 330.21875 63.784378L329.29688 63.784378L329.29688 63.128128ZM329.29688 64.01875L329.29688 63.362503L330.21875 63.362503Q331.03125 63.362503 331.5625 63.565628Q332.09375 63.753128 332.40625 64.08125Q332.71875 64.39375 332.84375 64.78438Q332.96875 65.15938 332.96875 65.55Q332.96875 66.14375 332.76562 66.6125Q332.5625 67.06563 332.1875 67.39375Q331.82812 67.70625 331.32812 67.87813Q330.84375 68.05 330.26562 68.05Q329.70312 68.05 329.21875 67.89375Q328.73438 67.72188 328.35938 67.425Q327.98438 67.12813 327.76562 66.69063Q327.5625 66.2375 327.5625 65.675L328.64062 65.675Q328.64062 66.1125 328.82812 66.45625Q329.03125 66.78438 329.39062 66.97188Q329.76562 67.14375 330.26562 67.14375Q330.76562 67.14375 331.125 66.97188Q331.48438 66.8 331.67188 66.45625Q331.875 66.09688 331.875 65.56563Q331.875 65.03438 331.65625 64.69063Q331.4375 64.34688 331.01562 64.19063Q330.60938 64.01875 330.0625 64.01875L329.29688 64.01875ZM334.84375 67.34688Q334.84375 67.08125 335.01562 66.89375Q335.1875 66.69063 335.51562 66.69063Q335.84375 66.69063 336.01562 66.89375Q336.1875 67.08125 336.1875 67.34688Q336.1875 67.6125 336.01562 67.81563Q335.84375 68.00313 335.51562 68.00313Q335.1875 68.00313 335.01562 67.81563Q334.84375 67.6125 334.84375 67.34688ZM339.29688 63.128128L340.0625 63.128128Q340.64062 63.128128 341.0 62.940628Q341.375 62.737503 341.5625 62.409378Q341.75 62.081253 341.75 61.659378Q341.75 61.175003 341.57812 60.846878Q341.42188 60.503128 341.09375 60.331253Q340.76562 60.159378 340.26562 60.159378Q339.79688 60.159378 339.45312 60.346878Q339.10938 60.518753 338.90625 60.846878Q338.71875 61.175003 338.71875 61.628128L337.625 61.628128Q337.625 60.971878 337.95312 60.440628Q338.28125 59.909378 338.875 59.596878Q339.46875 59.268753 340.26562 59.268753Q341.03125 59.268753 341.60938 59.550003Q342.1875 59.815628 342.51562 60.362503Q342.84375 60.893753 342.84375 61.690628Q342.84375 62.018753 342.6875 62.378128Q342.53125 62.737503 342.21875 63.065628Q341.90625 63.378128 341.40625 63.581253Q340.92188 63.784378 340.21875 63.784378L339.29688 63.784378L339.29688 63.128128ZM339.29688 64.01875L339.29688 63.362503L340.21875 63.362503Q341.03125 63.362503 341.5625 63.565628Q342.09375 63.753128 342.40625 64.08125Q342.71875 64.39375 342.84375 64.78438Q342.96875 65.15938 342.96875 65.55Q342.96875 66.14375 342.76562 66.6125Q342.5625 67.06563 342.1875 67.39375Q341.82812 67.70625 341.32812 67.87813Q340.84375 68.05 340.26562 68.05Q339.70312 68.05 339.21875 67.89375Q338.73438 67.72188 338.35938 67.425Q337.98438 67.12813 337.76562 66.69063Q337.5625 66.2375 337.5625 65.675L338.64062 65.675Q338.64062 66.1125 338.82812 66.45625Q339.03125 66.78438 339.39062 66.97188Q339.76562 67.14375 340.26562 67.14375Q340.76562 67.14375 341.125 66.97188Q341.48438 66.8 341.67188 66.45625Q341.875 66.09688 341.875 65.56563Q341.875 65.03438 341.65625 64.69063Q341.4375 64.34688 341.01562 64.19063Q340.60938 64.01875 340.0625 64.01875L339.29688 64.01875ZM346.29688 63.128128L347.0625 63.128128Q347.64062 63.128128 348.0 62.940628Q348.375 62.737503 348.5625 62.409378Q348.75 62.081253 348.75 61.659378Q348.75 61.175003 348.57812 60.846878Q348.42188 60.503128 348.09375 60.331253Q347.76562 60.159378 347.26562 60.159378Q346.79688 60.159378 346.45312 60.346878Q346.10938 60.518753 345.90625 60.846878Q345.71875 61.175003 345.71875 61.628128L344.625 61.628128Q344.625 60.971878 344.95312 60.440628Q345.28125 59.909378 345.875 59.596878Q346.46875 59.268753 347.26562 59.268753Q348.03125 59.268753 348.60938 59.550003Q349.1875 59.815628 349.51562 60.362503Q349.84375 60.893753 349.84375 61.690628Q349.84375 62.018753 349.6875 62.378128Q349.53125 62.737503 349.21875 63.065628Q348.90625 63.378128 348.40625 63.581253Q347.92188 63.784378 347.21875 63.784378L346.29688 63.784378L346.29688 63.128128ZM346.29688 64.01875L346.29688 63.362503L347.21875 63.362503Q348.03125 63.362503 348.5625 63.565628Q349.09375 63.753128 349.40625 64.08125Q349.71875 64.39375 349.84375 64.78438Q349.96875 65.15938 349.96875 65.55Q349.96875 66.14375 349.76562 66.6125Q349.5625 67.06563 349.1875 67.39375Q348.82812 67.70625 348.32812 67.87813Q347.84375 68.05 347.26562 68.05Q346.70312 68.05 346.21875 67.89375Q345.73438 67.72188 345.35938 67.425Q344.98438 67.12813 344.76562 66.69063Q344.5625 66.2375 344.5625 65.675L345.64062 65.675Q345.64062 66.1125 345.82812 66.45625Q346.03125 66.78438 346.39062 66.97188Q346.76562 67.14375 347.26562 67.14375Q347.76562 67.14375 348.125 66.97188Q348.48438 66.8 348.67188 66.45625Q348.875 66.09688 348.875 65.56563Q348.875 65.03438 348.65625 64.69063Q348.4375 64.34688 348.01562 64.19063Q347.60938 64.01875 347.0625 64.01875L346.29688 64.01875ZM351.60938 61.487503L351.60938 61.034378Q351.60938 60.550003 351.8125 60.159378Q352.03125 59.753128 352.42188 59.518753Q352.82812 59.268753 353.35938 59.268753Q353.90625 59.268753 354.29688 59.518753Q354.6875 59.753128 354.89062 60.159378Q355.10938 60.550003 355.10938 61.034378L355.10938 61.487503Q355.10938 61.956253 354.90625 62.362503Q354.70312 62.753128 354.3125 63.003128Q353.92188 63.237503 353.375 63.237503Q352.82812 63.237503 352.42188 63.003128Q352.03125 62.753128 351.8125 62.362503Q351.60938 61.956253 351.60938 61.487503ZM352.4375 61.034378L352.4375 61.487503Q352.4375 61.753128 352.53125 62.003128Q352.64062 62.237503 352.84375 62.393753Q353.0625 62.534378 353.375 62.534378Q353.6875 62.534378 353.89062 62.393753Q354.09375 62.237503 354.1875 62.003128Q354.29688 61.753128 354.29688 61.487503L354.29688 61.034378Q354.29688 60.753128 354.1875 60.518753Q354.09375 60.268753 353.875 60.128128Q353.67188 59.971878 353.35938 59.971878Q353.04688 59.971878 352.84375 60.128128Q352.64062 60.268753 352.53125 60.518753Q352.4375 60.753128 352.4375 61.034378ZM355.76562 66.28438L355.76562 65.83125Q355.76562 65.34688 355.96875 64.95625Q356.1875 64.55 356.57812 64.31563Q356.98438 64.08125 357.51562 64.08125Q358.0625 64.08125 358.45312 64.31563Q358.84375 64.55 359.04688 64.95625Q359.26562 65.34688 359.26562 65.83125L359.26562 66.28438Q359.26562 66.76875 359.0625 67.175Q358.85938 67.56563 358.46875 67.81563Q358.07812 68.05 357.53125 68.05Q356.98438 68.05 356.59375 67.81563Q356.20312 67.56563 355.98438 67.175Q355.76562 66.76875 355.76562 66.28438ZM356.57812 65.83125L356.57812 66.28438Q356.57812 66.56563 356.6875 66.81563Q356.79688 67.05 357.0 67.20625Q357.21875 67.34688 357.53125 67.34688Q357.84375 67.34688 358.04688 67.20625Q358.26562 67.05 358.35938 66.81563Q358.45312 66.56563 358.45312 66.28438L358.45312 65.83125Q358.45312 65.55 358.34375 65.31563Q358.25 65.08125 358.04688 64.94063Q357.84375 64.78438 357.51562 64.78438Q357.20312 64.78438 357.0 64.94063Q356.79688 65.08125 356.6875 65.31563Q356.57812 65.55 356.57812 65.83125ZM357.78125 60.612503L353.625 67.26875L353.01562 66.89375L357.17188 60.221878L357.78125 60.612503Z" fill-rule="nonzero"/><path stroke="#4285f4" stroke-width="3.0" stroke-linejoin="round" stroke-linecap="round" d="M470.21875 46.593464L470.21875 47.20284L466.6875 55.124714L465.54688 55.124714L469.07812 47.48409L464.45312 47.48409L464.45312 46.593464L470.21875 46.593464ZM475.875 46.57784L475.96875 46.57784L475.96875 47.499714L475.875 47.499714Q475.01562 47.499714 474.42188 47.780964Q473.84375 48.062214 473.5 48.530964Q473.17188 48.98409 473.01562 49.57784Q472.875 50.155964 472.875 50.749714L472.875 51.999714Q472.875 52.562214 473.0 52.999714Q473.14062 53.437214 473.375 53.749714Q473.60938 54.04659 473.90625 54.20284Q474.20312 54.343464 474.51562 54.343464Q474.89062 54.343464 475.1875 54.20284Q475.48438 54.062214 475.6875 53.79659Q475.89062 53.530964 475.98438 53.187214Q476.09375 52.82784 476.09375 52.39034Q476.09375 52.01534 476.0 51.655964Q475.90625 51.29659 475.71875 51.030964Q475.53125 50.749714 475.23438 50.593464Q474.9375 50.42159 474.54688 50.42159Q474.09375 50.42159 473.70312 50.64034Q473.3125 50.85909 473.0625 51.218464Q472.8125 51.57784 472.78125 51.98409L472.20312 51.98409Q472.29688 51.32784 472.51562 50.85909Q472.73438 50.39034 473.07812 50.093464Q473.42188 49.79659 473.82812 49.67159Q474.25 49.530964 474.71875 49.530964Q475.35938 49.530964 475.8125 49.780964Q476.28125 50.01534 476.57812 50.42159Q476.89062 50.812214 477.03125 51.312214Q477.17188 51.812214 477.17188 52.343464Q477.17188 52.937214 477.0 53.468464Q476.82812 53.999714 476.48438 54.405964Q476.15625 54.79659 475.65625 55.030964Q475.17188 55.249714 474.51562 55.249714Q473.82812 55.249714 473.3125 54.968464Q472.79688 54.67159 472.45312 54.20284Q472.125 53.718464 471.95312 53.14034Q471.78125 52.562214 471.78125 51.968464L471.78125 51.45284Q471.78125 50.54659 471.95312 49.687214Q472.14062 48.812214 472.59375 48.10909Q473.04688 47.405964 473.84375 46.999714Q474.64062 46.57784 475.875 46.57784ZM478.84375 54.54659Q478.84375 54.280964 479.01562 54.093464Q479.1875 53.89034 479.51562 53.89034Q479.84375 53.89034 480.01562 54.093464Q480.1875 54.280964 480.1875 54.54659Q480.1875 54.812214 480.01562 55.01534Q479.84375 55.20284 479.51562 55.20284Q479.1875 55.20284 479.01562 55.01534Q478.84375 54.812214 478.84375 54.54659ZM485.875 46.57784L485.96875 46.57784L485.96875 47.499714L485.875 47.499714Q485.01562 47.499714 484.42188 47.780964Q483.84375 48.062214 483.5 48.530964Q483.17188 48.98409 483.01562 49.57784Q482.875 50.155964 482.875 50.749714L482.875 51.999714Q482.875 52.562214 483.0 52.999714Q483.14062 53.437214 483.375 53.749714Q483.60938 54.04659 483.90625 54.20284Q484.20312 54.343464 484.51562 54.343464Q484.89062 54.343464 485.1875 54.20284Q485.48438 54.062214 485.6875 53.79659Q485.89062 53.530964 485.98438 53.187214Q486.09375 52.82784 486.09375 52.39034Q486.09375 52.01534 486.0 51.655964Q485.90625 51.29659 485.71875 51.030964Q485.53125 50.749714 485.23438 50.593464Q484.9375 50.42159 484.54688 50.42159Q484.09375 50.42159 483.70312 50.64034Q483.3125 50.85909 483.0625 51.218464Q482.8125 51.57784 482.78125 51.98409L482.20312 51.98409Q482.29688 51.32784 482.51562 50.85909Q482.73438 50.39034 483.07812 50.093464Q483.42188 49.79659 483.82812 49.67159Q484.25 49.530964 484.71875 49.530964Q485.35938 49.530964 485.8125 49.780964Q486.28125 50.01534 486.57812 50.42159Q486.89062 50.812214 487.03125 51.312214Q487.17188 51.812214 487.17188 52.343464Q487.17188 52.937214 487.0 53.468464Q486.82812 53.999714 486.48438 54.405964Q486.15625 54.79659 485.65625 55.030964Q485.17188 55.249714 484.51562 55.249714Q483.82812 55.249714 483.3125 54.968464Q482.79688 54.67159 482.45312 54.20284Q482.125 53.718464 481.95312 53.14034Q481.78125 52.562214 481.78125 51.968464L481.78125 51.45284Q481.78125 50.54659 481.95312 49.687214Q482.14062 48.812214 482.59375 48.10909Q483.04688 47.405964 483.84375 46.999714Q484.64062 46.57784 485.875 46.57784ZM494.21875 46.593464L494.21875 47.20284L490.6875 55.124714L489.54688 55.124714L493.07812 47.48409L488.45312 47.48409L488.45312 46.593464L494.21875 46.593464ZM495.60938 48.687214L495.60938 48.23409Q495.60938 47.749714 495.8125 47.35909Q496.03125 46.95284 496.42188 46.718464Q496.82812 46.468464 497.35938 46.468464Q497.90625 46.468464 498.29688 46.718464Q498.6875 46.95284 498.89062 47.35909Q499.10938 47.749714 499.10938 48.23409L499.10938 48.687214Q499.10938 49.155964 498.90625 49.562214Q498.70312 49.95284 498.3125 50.20284Q497.92188 50.437214 497.375 50.437214Q496.82812 50.437214 496.42188 50.20284Q496.03125 49.95284 495.8125 49.562214Q495.60938 49.155964 495.60938 48.687214ZM496.4375 48.23409L496.4375 48.687214Q496.4375 48.95284 496.53125 49.20284Q496.64062 49.437214 496.84375 49.593464Q497.0625 49.73409 497.375 49.73409Q497.6875 49.73409 497.89062 49.593464Q498.09375 49.437214 498.1875 49.20284Q498.29688 48.95284 498.29688 48.687214L498.29688 48.23409Q498.29688 47.95284 498.1875 47.718464Q498.09375 47.468464 497.875 47.32784Q497.67188 47.17159 497.35938 47.17159Q497.04688 47.17159 496.84375 47.32784Q496.64062 47.468464 496.53125 47.718464Q496.4375 47.95284 496.4375 48.23409ZM499.76562 53.48409L499.76562 53.030964Q499.76562 52.54659 499.96875 52.155964Q500.1875 51.749714 500.57812 51.51534Q500.98438 51.280964 501.51562 51.280964Q502.0625 51.280964 502.45312 51.51534Q502.84375 51.749714 503.04688 52.155964Q503.26562 52.54659 503.26562 53.030964L503.26562 53.48409Q503.26562 53.968464 503.0625 54.374714Q502.85938 54.76534 502.46875 55.01534Q502.07812 55.249714 501.53125 55.249714Q500.98438 55.249714 500.59375 55.01534Q500.20312 54.76534 499.98438 54.374714Q499.76562 53.968464 499.76562 53.48409ZM500.57812 53.030964L500.57812 53.48409Q500.57812 53.76534 500.6875 54.01534Q500.79688 54.249714 501.0 54.405964Q501.21875 54.54659 501.53125 54.54659Q501.84375 54.54659 502.04688 54.405964Q502.26562 54.249714 502.35938 54.01534Q502.45312 53.76534 502.45312 53.48409L502.45312 53.030964Q502.45312 52.749714 502.34375 52.51534Q502.25 52.280964 502.04688 52.14034Q501.84375 51.98409 501.51562 51.98409Q501.20312 51.98409 501.0 52.14034Q500.79688 52.280964 500.6875 52.51534Q500.57812 52.749714 500.57812 53.030964ZM501.78125 47.812214L497.625 54.468464L497.01562 54.093464L501.17188 47.42159L501.78125 47.812214Z" fill-rule="nonzero"/><path fill="#ffffff" d="M470.21875 46.593464L470.21875 47.20284L466.6875 55.124714L465.54688 55.124714L469.07812 47.48409L464.45312 47.48409L464.45312 46.593464L470.21875 46.593464ZM475.875 46.57784L475.96875 46.57784L475.96875 47.499714L475.875 47.499714Q475.01562 47.499714 474.42188 47.780964Q473.84375 48.062214 473.5 48.530964Q473.17188 48.98409 473.01562 49.57784Q472.875 50.155964 472.875 50.749714L472.875 51.999714Q472.875 52.562214 473.0 52.999714Q473.14062 53.437214 473.375 53.749714Q473.60938 54.04659 473.90625 54.20284Q474.20312 54.343464 474.51562 54.343464Q474.89062 54.343464 475.1875 54.20284Q475.48438 54.062214 475.6875 53.79659Q475.89062 53.530964 475.98438 53.187214Q476.09375 52.82784 476.09375 52.39034Q476.09375 52.01534 476.0 51.655964Q475.90625 51.29659 475.71875 51.030964Q475.53125 50.749714 475.23438 50.593464Q474.9375 50.42159 474.54688 50.42159Q474.09375 50.42159 473.70312 50.64034Q473.3125 50.85909 473.0625 51.218464Q472.8125 51.57784 472.78125 51.98409L472.20312 51.98409Q472.29688 51.32784 472.51562 50.85909Q472.73438 50.39034 473.07812 50.093464Q473.42188 49.79659 473.82812 49.67159Q474.25 49.530964 474.71875 49.530964Q475.35938 49.530964 475.8125 49.780964Q476.28125 50.01534 476.57812 50.42159Q476.89062 50.812214 477.03125 51.312214Q477.17188 51.812214 477.17188 52.343464Q477.17188 52.937214 477.0 53.468464Q476.82812 53.999714 476.48438 54.405964Q476.15625 54.79659 475.65625 55.030964Q475.17188 55.249714 474.51562 55.249714Q473.82812 55.249714 473.3125 54.968464Q472.79688 54.67159 472.45312 54.20284Q472.125 53.718464 471.95312 53.14034Q471.78125 52.562214 471.78125 51.968464L471.78125 51.45284Q471.78125 50.54659 471.95312 49.687214Q472.14062 48.812214 472.59375 48.10909Q473.04688 47.405964 473.84375 46.999714Q474.64062 46.57784 475.875 46.57784ZM478.84375 54.54659Q478.84375 54.280964 479.01562 54.093464Q479.1875 53.89034 479.51562 53.89034Q479.84375 53.89034 480.01562 54.093464Q480.1875 54.280964 480.1875 54.54659Q480.1875 54.812214 480.01562 55.01534Q479.84375 55.20284 479.51562 55.20284Q479.1875 55.20284 479.01562 55.01534Q478.84375 54.812214 478.84375 54.54659ZM485.875 46.57784L485.96875 46.57784L485.96875 47.499714L485.875 47.499714Q485.01562 47.499714 484.42188 47.780964Q483.84375 48.062214 483.5 48.530964Q483.17188 48.98409 483.01562 49.57784Q482.875 50.155964 482.875 50.749714L482.875 51.999714Q482.875 52.562214 483.0 52.999714Q483.14062 53.437214 483.375 53.749714Q483.60938 54.04659 483.90625 54.20284Q484.20312 54.343464 484.51562 54.343464Q484.89062 54.343464 485.1875 54.20284Q485.48438 54.062214 485.6875 53.79659Q485.89062 53.530964 485.98438 53.187214Q486.09375 52.82784 486.09375 52.39034Q486.09375 52.01534 486.0 51.655964Q485.90625 51.29659 485.71875 51.030964Q485.53125 50.749714 485.23438 50.593464Q484.9375 50.42159 484.54688 50.42159Q484.09375 50.42159 483.70312 50.64034Q483.3125 50.85909 483.0625 51.218464Q482.8125 51.57784 482.78125 51.98409L482.20312 51.98409Q482.29688 51.32784 482.51562 50.85909Q482.73438 50.39034 483.07812 50.093464Q483.42188 49.79659 483.82812 49.67159Q484.25 49.530964 484.71875 49.530964Q485.35938 49.530964 485.8125 49.780964Q486.28125 50.01534 486.57812 50.42159Q486.89062 50.812214 487.03125 51.312214Q487.17188 51.812214 487.17188 52.343464Q487.17188 52.937214 487.0 53.468464Q486.82812 53.999714 486.48438 54.405964Q486.15625 54.79659 485.65625 55.030964Q485.17188 55.249714 484.51562 55.249714Q483.82812 55.249714 483.3125 54.968464Q482.79688 54.67159 482.45312 54.20284Q482.125 53.718464 481.95312 53.14034Q481.78125 52.562214 481.78125 51.968464L481.78125 51.45284Q481.78125 50.54659 481.95312 49.687214Q482.14062 48.812214 482.59375 48.10909Q483.04688 47.405964 483.84375 46.999714Q484.64062 46.57784 485.875 46.57784ZM494.21875 46.593464L494.21875 47.20284L490.6875 55.124714L489.54688 55.124714L493.07812 47.48409L488.45312 47.48409L488.45312 46.593464L494.21875 46.593464ZM495.60938 48.687214L495.60938 48.23409Q495.60938 47.749714 495.8125 47.35909Q496.03125 46.95284 496.42188 46.718464Q496.82812 46.468464 497.35938 46.468464Q497.90625 46.468464 498.29688 46.718464Q498.6875 46.95284 498.89062 47.35909Q499.10938 47.749714 499.10938 48.23409L499.10938 48.687214Q499.10938 49.155964 498.90625 49.562214Q498.70312 49.95284 498.3125 50.20284Q497.92188 50.437214 497.375 50.437214Q496.82812 50.437214 496.42188 50.20284Q496.03125 49.95284 495.8125 49.562214Q495.60938 49.155964 495.60938 48.687214ZM496.4375 48.23409L496.4375 48.687214Q496.4375 48.95284 496.53125 49.20284Q496.64062 49.437214 496.84375 49.593464Q497.0625 49.73409 497.375 49.73409Q497.6875 49.73409 497.89062 49.593464Q498.09375 49.437214 498.1875 49.20284Q498.29688 48.95284 498.29688 48.687214L498.29688 48.23409Q498.29688 47.95284 498.1875 47.718464Q498.09375 47.468464 497.875 47.32784Q497.67188 47.17159 497.35938 47.17159Q497.04688 47.17159 496.84375 47.32784Q496.64062 47.468464 496.53125 47.718464Q496.4375 47.95284 496.4375 48.23409ZM499.76562 53.48409L499.76562 53.030964Q499.76562 52.54659 499.96875 52.155964Q500.1875 51.749714 500.57812 51.51534Q500.98438 51.280964 501.51562 51.280964Q502.0625 51.280964 502.45312 51.51534Q502.84375 51.749714 503.04688 52.155964Q503.26562 52.54659 503.26562 53.030964L503.26562 53.48409Q503.26562 53.968464 503.0625 54.374714Q502.85938 54.76534 502.46875 55.01534Q502.07812 55.249714 501.53125 55.249714Q500.98438 55.249714 500.59375 55.01534Q500.20312 54.76534 499.98438 54.374714Q499.76562 53.968464 499.76562 53.48409ZM500.57812 53.030964L500.57812 53.48409Q500.57812 53.76534 500.6875 54.01534Q500.79688 54.249714 501.0 54.405964Q501.21875 54.54659 501.53125 54.54659Q501.84375 54.54659 502.04688 54.405964Q502.26562 54.249714 502.35938 54.01534Q502.45312 53.76534 502.45312 53.48409L502.45312 53.030964Q502.45312 52.749714 502.34375 52.51534Q502.25 52.280964 502.04688 52.14034Q501.84375 51.98409 501.51562 51.98409Q501.20312 51.98409 501.0 52.14034Q500.79688 52.280964 500.6875 52.51534Q500.57812 52.749714 500.57812 53.030964ZM501.78125 47.812214L497.625 54.468464L497.01562 54.093464L501.17188 47.42159L501.78125 47.812214Z" fill-rule="nonzero"/><path fill="#000000" d="M27.112513 238.65625L26.971888 237.625Q27.956263 237.59375 28.315638 237.26562Q28.675013 236.9375 28.675013 236.34375Q28.675013 235.92188 28.487513 235.60938Q28.284388 235.29688 27.956263 235.1875Q27.612513 235.0625 26.878138 235.0625L20.956263 235.0625L20.956263 233.9375L26.815638 233.9375Q27.893763 233.9375 28.487513 234.20312Q29.081263 234.45312 29.393763 235.01562Q29.690638 235.57812 29.690638 236.34375Q29.690638 237.46875 29.050013 238.07812Q28.393763 238.67188 27.112513 238.65625ZM29.550013 228.125L28.628138 228.125Q29.690638 228.85938 29.690638 230.10938Q29.690638 230.65625 29.487513 231.14062Q29.268763 231.60938 28.956263 231.84375Q28.628138 232.07812 28.159388 232.17188Q27.862513 232.23438 27.175013 232.23438L23.331263 232.23438L23.331263 231.17188L26.784388 231.17188Q27.596888 231.17188 27.893763 231.10938Q28.300013 231.01562 28.550013 230.70312Q28.784388 230.375 28.784388 229.89062Q28.784388 229.42188 28.550013 229.01562Q28.300013 228.59375 27.878138 228.42188Q27.456263 228.23438 26.659388 228.23438L23.331263 228.23438L23.331263 227.1875L29.550013 227.1875L29.550013 228.125ZM29.550013 221.17188L28.768763 221.17188Q29.690638 221.76562 29.690638 222.90625Q29.690638 223.65625 29.284388 224.28125Q28.862513 224.90625 28.128138 225.25Q27.393763 225.59375 26.440638 225.59375Q25.518763 225.59375 24.753138 225.28125Q23.987513 224.96875 23.596888 224.34375Q23.190638 223.71875 23.190638 222.95312Q23.190638 222.39062 23.425013 221.95312Q23.659388 221.51562 24.034388 221.23438L20.956263 221.23438L20.956263 220.1875L29.550013 220.1875L29.550013 221.17188ZM26.440638 224.5Q27.643763 224.5 28.237513 224.0Q28.815638 223.5 28.815638 222.8125Q28.815638 222.125 28.253138 221.64062Q27.690638 221.15625 26.534388 221.15625Q25.253138 221.15625 24.659388 221.65625Q24.065638 222.14062 24.065638 222.85938Q24.065638 223.5625 24.643763 224.03125Q25.206263 224.5 26.440638 224.5ZM30.065638 218.40625L30.221888 217.375Q30.690638 217.3125 30.909388 217.01562Q31.206263 216.625 31.206263 215.95312Q31.206263 215.21875 30.909388 214.82812Q30.612513 214.42188 30.096888 214.28125Q29.768763 214.1875 28.737513 214.20312Q29.550013 214.89062 29.550013 215.92188Q29.550013 217.20312 28.628138 217.90625Q27.690638 218.60938 26.409388 218.60938Q25.518763 218.60938 24.768763 218.29688Q24.003138 217.96875 23.596888 217.35938Q23.190638 216.75 23.190638 215.92188Q23.190638 214.8125 24.081263 214.09375L23.331263 214.09375L23.331263 213.125L28.706263 213.125Q30.159388 213.125 30.768763 213.42188Q31.378138 213.71875 31.721888 214.35938Q32.08126 215.0 32.08126 215.9375Q32.08126 217.04688 31.581263 217.73438Q31.081263 218.42188 30.065638 218.40625ZM26.331263 217.53125Q27.550013 217.53125 28.112513 217.04688Q28.675013 216.5625 28.675013 215.82812Q28.675013 215.09375 28.112513 214.60938Q27.550013 214.10938 26.362513 214.10938Q25.221888 214.10938 24.643763 214.625Q24.065638 215.125 24.065638 215.84375Q24.065638 216.54688 24.643763 217.04688Q25.206263 217.53125 26.331263 217.53125ZM27.550013 206.95312L27.675013 205.85938Q28.628138 206.10938 29.159388 206.8125Q29.690638 207.51562 29.690638 208.59375Q29.690638 209.95312 28.846888 210.76562Q28.003138 211.5625 26.487513 211.5625Q24.925013 211.5625 24.065638 210.75Q23.190638 209.9375 23.190638 208.65625Q23.190638 207.40625 24.034388 206.625Q24.878138 205.82812 26.425013 205.82812Q26.518763 205.82812 26.706263 205.82812L26.706263 210.46875Q27.737513 210.40625 28.284388 209.89062Q28.815638 209.375 28.815638 208.59375Q28.815638 208.01562 28.518763 207.60938Q28.206263 207.1875 27.550013 206.95312ZM25.846888 210.40625L25.846888 206.9375Q25.050013 207.0 24.659388 207.32812Q24.050013 207.84375 24.050013 208.64062Q24.050013 209.375 24.534388 209.875Q25.018763 210.35938 25.846888 210.40625ZM29.550013 202.01562L20.956263 198.71875L20.956263 197.5L29.550013 193.98438L29.550013 195.26562L26.940638 196.28125L26.940638 199.85938L29.550013 200.8125L29.550013 202.01562ZM26.018763 199.53125L26.018763 196.625L23.643763 197.51562Q22.565638 197.9375 21.862513 198.125Q22.690638 198.29688 23.503138 198.59375L26.018763 199.53125ZM27.268763 190.14062L27.409388 189.10938Q28.471888 189.28125 29.081263 189.98438Q29.690638 190.6875 29.690638 191.70312Q29.690638 192.98438 28.862513 193.76562Q28.018763 194.53125 26.456263 194.53125Q25.456263 194.53125 24.706263 194.20312Q23.940638 193.85938 23.565638 193.1875Q23.190638 192.5 23.190638 191.6875Q23.190638 190.6875 23.706263 190.04688Q24.206263 189.39062 25.159388 189.20312L25.315638 190.23438Q24.690638 190.375 24.378138 190.75Q24.050013 191.125 24.050013 191.65625Q24.050013 192.45312 24.628138 192.95312Q25.190638 193.45312 26.425013 193.45312Q27.690638 193.45312 28.253138 192.96875Q28.815638 192.48438 28.815638 191.71875Q28.815638 191.09375 28.440638 190.6875Q28.065638 190.26562 27.268763 190.14062ZM27.268763 184.14062L27.409388 183.10938Q28.471888 183.28125 29.081263 183.98438Q29.690638 184.6875 29.690638 185.70312Q29.690638 186.98438 28.862513 187.76562Q28.018763 188.53125 26.456263 188.53125Q25.456263 188.53125 24.706263 188.20312Q23.940638 187.85938 23.565638 187.1875Q23.190638 186.5 23.190638 185.6875Q23.190638 184.6875 23.706263 184.04688Q24.206263 183.39062 25.159388 183.20312L25.315638 184.23438Q24.690638 184.375 24.378138 184.75Q24.050013 185.125 24.050013 185.65625Q24.050013 186.45312 24.628138 186.95312Q25.190638 187.45312 26.425013 187.45312Q27.690638 187.45312 28.253138 186.96875Q28.815638 186.48438 28.815638 185.71875Q28.815638 185.09375 28.440638 184.6875Q28.065638 184.26562 27.268763 184.14062ZM29.550013 178.125L28.628138 178.125Q29.690638 178.85938 29.690638 180.10938Q29.690638 180.65625 29.487513 181.14062Q29.268763 181.60938 28.956263 181.84375Q28.628138 182.07812 28.159388 182.17188Q27.862513 182.23438 27.175013 182.23438L23.331263 182.23438L23.331263 181.17188L26.784388 181.17188Q27.596888 181.17188 27.893763 181.10938Q28.300013 181.01562 28.550013 180.70312Q28.784388 180.375 28.784388 179.89062Q28.784388 179.42188 28.550013 179.01562Q28.300013 178.59375 27.878138 178.42188Q27.456263 178.23438 26.659388 178.23438L23.331263 178.23438L23.331263 177.1875L29.550013 177.1875L29.550013 178.125ZM29.550013 175.21875L23.331263 175.21875L23.331263 174.26562L24.268763 174.26562Q23.612513 173.90625 23.409388 173.60938Q23.190638 173.29688 23.190638 172.92188Q23.190638 172.39062 23.518763 171.84375L24.503138 172.20312Q24.268763 172.59375 24.268763 172.96875Q24.268763 173.32812 24.487513 173.60938Q24.690638 173.875 25.065638 173.98438Q25.628138 174.17188 26.284388 174.17188L29.550013 174.17188L29.550013 175.21875ZM28.784388 167.14062Q29.284388 167.73438 29.487513 168.28125Q29.690638 168.8125 29.690638 169.4375Q29.690638 170.46875 29.190638 171.01562Q28.690638 171.5625 27.909388 171.5625Q27.456263 171.5625 27.081263 171.35938Q26.690638 171.15625 26.471888 170.8125Q26.237513 170.46875 26.128138 170.04688Q26.034388 169.75 25.956263 169.10938Q25.815638 167.84375 25.596888 167.23438Q25.378138 167.23438 25.331263 167.23438Q24.675013 167.23438 24.409388 167.53125Q24.065638 167.9375 24.065638 168.73438Q24.065638 169.46875 24.331263 169.82812Q24.581263 170.1875 25.237513 170.35938L25.096888 171.39062Q24.440638 171.25 24.034388 170.92188Q23.628138 170.59375 23.409388 169.98438Q23.190638 169.375 23.190638 168.57812Q23.190638 167.78125 23.378138 167.28125Q23.565638 166.78125 23.846888 166.54688Q24.128138 166.3125 24.565638 166.21875Q24.831263 166.17188 25.534388 166.17188L26.940638 166.17188Q28.409388 166.17188 28.800013 166.10938Q29.190638 166.03125 29.550013 165.82812L29.550013 166.9375Q29.221888 167.09375 28.784388 167.14062ZM26.425013 167.23438Q26.659388 167.8125 26.831263 168.95312Q26.925013 169.60938 27.050013 169.875Q27.159388 170.14062 27.378138 170.29688Q27.596888 170.4375 27.878138 170.4375Q28.300013 170.4375 28.581263 170.125Q28.862513 169.79688 28.862513 169.1875Q28.862513 168.57812 28.596888 168.10938Q28.331263 167.625 27.862513 167.40625Q27.503138 167.23438 26.815638 167.23438L26.425013 167.23438ZM27.268763 160.14062L27.409388 159.10938Q28.471888 159.28125 29.081263 159.98438Q29.690638 160.6875 29.690638 161.70312Q29.690638 162.98438 28.862513 163.76562Q28.018763 164.53125 26.456263 164.53125Q25.456263 164.53125 24.706263 164.20312Q23.940638 163.85938 23.565638 163.1875Q23.190638 162.5 23.190638 161.6875Q23.190638 160.6875 23.706263 160.04688Q24.206263 159.39062 25.159388 159.20312L25.315638 160.23438Q24.690638 160.375 24.378138 160.75Q24.050013 161.125 24.050013 161.65625Q24.050013 162.45312 24.628138 162.95312Q25.190638 163.45312 26.425013 163.45312Q27.690638 163.45312 28.253138 162.96875Q28.815638 162.48438 28.815638 161.71875Q28.815638 161.09375 28.440638 160.6875Q28.065638 160.26562 27.268763 160.14062ZM31.940638 158.25L30.956263 158.375Q31.050013 158.03125 31.050013 157.76562Q31.050013 157.42188 30.925013 157.21875Q30.815638 157.0 30.612513 156.85938Q30.440638 156.76562 29.815638 156.53125Q29.737513 156.51562 29.565638 156.4375L23.331263 158.8125L23.331263 157.67188L26.925013 156.375Q27.612513 156.125 28.378138 155.92188Q27.643763 155.73438 26.956263 155.48438L23.331263 154.15625L23.331263 153.10938L29.659388 155.46875Q30.675013 155.85938 31.065638 156.0625Q31.596888 156.34375 31.831263 156.71875Q32.08126 157.07812 32.08126 157.57812Q32.08126 157.875 31.940638 158.25ZM32.08126 148.1875Q30.971888 149.0625 29.503138 149.67188Q28.018763 150.26562 26.440638 150.26562Q25.050013 150.26562 23.768763 149.82812Q22.284388 149.29688 20.815638 148.1875L20.815638 147.4375Q22.034388 148.14062 22.550013 148.375Q23.362513 148.73438 24.237513 148.9375Q25.331263 149.1875 26.440638 149.1875Q29.268763 149.1875 32.08126 147.4375L32.08126 148.1875ZM23.018763 146.29688Q22.096888 146.29688 21.456263 145.84375Q20.815638 145.375 20.815638 144.5Q20.815638 143.6875 21.393763 143.15625Q21.971888 142.625 23.081263 142.625Q24.175013 142.625 24.768763 143.17188Q25.346888 143.70312 25.346888 144.48438Q25.346888 145.26562 24.768763 145.78125Q24.190638 146.29688 23.018763 146.29688ZM21.534388 144.46875Q21.534388 144.85938 21.878138 145.125Q22.221888 145.375 23.128138 145.375Q23.956263 145.375 24.300013 145.125Q24.628138 144.85938 24.628138 144.46875Q24.628138 144.0625 24.284388 143.8125Q23.940638 143.54688 23.050013 143.54688Q22.206263 143.54688 21.878138 143.8125Q21.534388 144.07812 21.534388 144.46875ZM29.862513 144.46875L20.815638 139.76562L20.815638 138.90625L29.862513 143.59375L29.862513 144.46875ZM27.534388 140.75Q26.612513 140.75 25.971888 140.29688Q25.331263 139.82812 25.331263 138.9375Q25.331263 138.125 25.909388 137.59375Q26.471888 137.0625 27.596888 137.0625Q28.690638 137.0625 29.284388 137.60938Q29.862513 138.14062 29.862513 138.9375Q29.862513 139.70312 29.284388 140.23438Q28.706263 140.75 27.534388 140.75ZM26.050013 138.90625Q26.050013 139.3125 26.393763 139.57812Q26.737513 139.82812 27.643763 139.82812Q28.456263 139.82812 28.800013 139.5625Q29.143763 139.29688 29.143763 138.90625Q29.143763 138.51562 28.800013 138.25Q28.456263 137.98438 27.550013 137.98438Q26.721888 137.98438 26.393763 138.25Q26.050013 138.51562 26.050013 138.90625ZM32.08126 134.51562L32.08126 135.26562Q29.268763 133.51562 26.440638 133.51562Q25.346888 133.51562 24.253138 133.76562Q23.378138 133.96875 22.565638 134.32812Q22.050013 134.5625 20.815638 135.26562L20.815638 134.51562Q22.284388 133.42188 23.768763 132.89062Q25.050013 132.4375 26.440638 132.4375Q28.018763 132.4375 29.503138 133.04688Q30.971888 133.65625 32.08126 134.51562Z" fill-rule="nonzero"/><path fill="#000000" d="M58.05 332.21564Q58.05 330.6844 58.3625 329.7625Q58.675 328.825 59.284374 328.325Q59.909374 327.825 60.846874 327.825Q61.534374 327.825 62.05 328.10626Q62.58125 328.3875 62.925 328.91876Q63.26875 329.4344 63.45625 330.1844Q63.64375 330.9344 63.64375 332.21564Q63.64375 333.73126 63.33125 334.65314Q63.034374 335.575 62.409374 336.09064Q61.8 336.59064 60.846874 336.59064Q59.6125 336.59064 58.89375 335.7Q58.05 334.6375 58.05 332.21564ZM59.128124 332.21564Q59.128124 334.325 59.628124 335.02814Q60.128124 335.73126 60.846874 335.73126Q61.58125 335.73126 62.065624 335.02814Q62.565624 334.325 62.565624 332.21564Q62.565624 330.09064 62.065624 329.40314Q61.58125 328.7 60.83125 328.7Q60.1125 328.7 59.675 329.3094Q59.128124 330.09064 59.128124 332.21564ZM65.64375 336.45L65.64375 335.2469L66.84688 335.2469L66.84688 336.45L65.64375 336.45ZM68.05 332.21564Q68.05 330.6844 68.3625 329.7625Q68.675 328.825 69.28438 328.325Q69.90938 327.825 70.84688 327.825Q71.53438 327.825 72.05 328.10626Q72.58125 328.3875 72.925 328.91876Q73.26875 329.4344 73.45625 330.1844Q73.64375 330.9344 73.64375 332.21564Q73.64375 333.73126 73.33125 334.65314Q73.03438 335.575 72.40938 336.09064Q71.8 336.59064 70.84688 336.59064Q69.6125 336.59064 68.89375 335.7Q68.05 334.6375 68.05 332.21564ZM69.12813 332.21564Q69.12813 334.325 69.62813 335.02814Q70.12813 335.73126 70.84688 335.73126Q71.58125 335.73126 72.06563 335.02814Q72.56563 334.325 72.56563 332.21564Q72.56563 330.09064 72.06563 329.40314Q71.58125 328.7 70.83125 328.7Q70.1125 328.7 69.675 329.3094Q69.12813 330.09064 69.12813 332.21564ZM75.05 332.21564Q75.05 330.6844 75.3625 329.7625Q75.675 328.825 76.28438 328.325Q76.90938 327.825 77.84688 327.825Q78.53438 327.825 79.05 328.10626Q79.58125 328.3875 79.925 328.91876Q80.26875 329.4344 80.45625 330.1844Q80.64375 330.9344 80.64375 332.21564Q80.64375 333.73126 80.33125 334.65314Q80.03438 335.575 79.40938 336.09064Q78.8 336.59064 77.84688 336.59064Q76.6125 336.59064 75.89375 335.7Q75.05 334.6375 75.05 332.21564ZM76.12813 332.21564Q76.12813 334.325 76.62813 335.02814Q77.12813 335.73126 77.84688 335.73126Q78.58125 335.73126 79.06563 335.02814Q79.56563 334.325 79.56563 332.21564Q79.56563 330.09064 79.06563 329.40314Q78.58125 328.7 77.83125 328.7Q77.1125 328.7 76.675 329.3094Q76.12813 330.09064 76.12813 332.21564ZM82.25313 329.91876Q82.25313 328.9969 82.70625 328.35626Q83.175 327.71564 84.05 327.71564Q84.8625 327.71564 85.39375 328.29376Q85.925 328.8719 85.925 329.98126Q85.925 331.075 85.37813 331.66876Q84.84688 332.2469 84.06563 332.2469Q83.28438 332.2469 82.76875 331.66876Q82.25313 331.09064 82.25313 329.91876ZM84.08125 328.4344Q83.69063 328.4344 83.425 328.77814Q83.175 329.1219 83.175 330.02814Q83.175 330.85626 83.425 331.2Q83.69063 331.52814 84.08125 331.52814Q84.4875 331.52814 84.7375 331.1844Q85.00313 330.84064 85.00313 329.95Q85.00313 329.10626 84.7375 328.77814Q84.47188 328.4344 84.08125 328.4344ZM84.08125 336.7625L88.78438 327.71564L89.64375 327.71564L84.95625 336.7625L84.08125 336.7625ZM87.8 334.4344Q87.8 333.5125 88.25313 332.8719Q88.72188 332.23126 89.6125 332.23126Q90.425 332.23126 90.95625 332.8094Q91.4875 333.3719 91.4875 334.4969Q91.4875 335.59064 90.94063 336.1844Q90.40938 336.7625 89.6125 336.7625Q88.84688 336.7625 88.31563 336.1844Q87.8 335.60626 87.8 334.4344ZM89.64375 332.95Q89.2375 332.95 88.97188 333.29376Q88.72188 333.6375 88.72188 334.54376Q88.72188 335.35626 88.9875 335.7Q89.25313 336.04376 89.64375 336.04376Q90.03438 336.04376 90.3 335.7Q90.56563 335.35626 90.56563 334.45Q90.56563 333.6219 90.3 333.29376Q90.03438 332.95 89.64375 332.95Z" fill-rule="nonzero"/><path fill="#000000" d="M56.596874 258.70938L56.596874 259.725L50.909374 259.725Q50.909374 259.35 51.034374 258.99063Q51.253124 258.4125 51.721874 257.85Q52.20625 257.2875 53.1125 256.55313Q54.51875 255.39688 55.003124 254.725Q55.503124 254.05313 55.503124 253.45938Q55.503124 252.83438 55.05 252.4125Q54.596874 251.975 53.878124 251.975Q53.1125 251.975 52.659374 252.42813Q52.20625 252.88126 52.190624 253.69376L51.1125 253.58438Q51.221874 252.36563 51.940624 251.74063Q52.675 251.1 53.909374 251.1Q55.14375 251.1 55.8625 251.7875Q56.58125 252.475 56.58125 253.49063Q56.58125 254.00626 56.3625 254.50626Q56.159374 254.99063 55.659374 255.55313Q55.175 256.1 54.05 257.05313Q53.096874 257.85 52.815624 258.14688Q52.55 258.42813 52.378124 258.70938L56.596874 258.70938ZM58.05 255.49063Q58.05 253.95938 58.3625 253.0375Q58.675 252.1 59.284374 251.6Q59.909374 251.1 60.846874 251.1Q61.534374 251.1 62.05 251.38126Q62.58125 251.6625 62.925 252.19376Q63.26875 252.70938 63.45625 253.45938Q63.64375 254.20938 63.64375 255.49063Q63.64375 257.00626 63.33125 257.92813Q63.034374 258.85 62.409374 259.36563Q61.8 259.86563 60.846874 259.86563Q59.6125 259.86563 58.89375 258.975Q58.05 257.9125 58.05 255.49063ZM59.128124 255.49063Q59.128124 257.6 59.628124 258.30313Q60.128124 259.00626 60.846874 259.00626Q61.58125 259.00626 62.065624 258.30313Q62.565624 257.6 62.565624 255.49063Q62.565624 253.36563 62.065624 252.67813Q61.58125 251.975 60.83125 251.975Q60.1125 251.975 59.675 252.58438Q59.128124 253.36563 59.128124 255.49063ZM65.64375 259.725L65.64375 258.52188L66.84688 258.52188L66.84688 259.725L65.64375 259.725ZM68.05 255.49063Q68.05 253.95938 68.3625 253.0375Q68.675 252.1 69.28438 251.6Q69.90938 251.1 70.84688 251.1Q71.53438 251.1 72.05 251.38126Q72.58125 251.6625 72.925 252.19376Q73.26875 252.70938 73.45625 253.45938Q73.64375 254.20938 73.64375 255.49063Q73.64375 257.00626 73.33125 257.92813Q73.03438 258.85 72.40938 259.36563Q71.8 259.86563 70.84688 259.86563Q69.6125 259.86563 68.89375 258.975Q68.05 257.9125 68.05 255.49063ZM69.12813 255.49063Q69.12813 257.6 69.62813 258.30313Q70.12813 259.00626 70.84688 259.00626Q71.58125 259.00626 72.06563 258.30313Q72.56563 257.6 72.56563 255.49063Q72.56563 253.36563 72.06563 252.67813Q71.58125 251.975 70.83125 251.975Q70.1125 251.975 69.675 252.58438Q69.12813 253.36563 69.12813 255.49063ZM75.05 255.49063Q75.05 253.95938 75.3625 253.0375Q75.675 252.1 76.28438 251.6Q76.90938 251.1 77.84688 251.1Q78.53438 251.1 79.05 251.38126Q79.58125 251.6625 79.925 252.19376Q80.26875 252.70938 80.45625 253.45938Q80.64375 254.20938 80.64375 255.49063Q80.64375 257.00626 80.33125 257.92813Q80.03438 258.85 79.40938 259.36563Q78.8 259.86563 77.84688 259.86563Q76.6125 259.86563 75.89375 258.975Q75.05 257.9125 75.05 255.49063ZM76.12813 255.49063Q76.12813 257.6 76.62813 258.30313Q77.12813 259.00626 77.84688 259.00626Q78.58125 259.00626 79.06563 258.30313Q79.56563 257.6 79.56563 255.49063Q79.56563 253.36563 79.06563 252.67813Q78.58125 251.975 77.83125 251.975Q77.1125 251.975 76.675 252.58438Q76.12813 253.36563 76.12813 255.49063ZM82.25313 253.19376Q82.25313 252.27188 82.70625 251.63126Q83.175 250.99063 84.05 250.99063Q84.8625 250.99063 85.39375 251.56876Q85.925 252.14688 85.925 253.25626Q85.925 254.35 85.37813 254.94376Q84.84688 255.52188 84.06563 255.52188Q83.28438 255.52188 82.76875 254.94376Q82.25313 254.36563 82.25313 253.19376ZM84.08125 251.70938Q83.69063 251.70938 83.425 252.05313Q83.175 252.39688 83.175 253.30313Q83.175 254.13126 83.425 254.475Q83.69063 254.80313 84.08125 254.80313Q84.4875 254.80313 84.7375 254.45938Q85.00313 254.11563 85.00313 253.225Q85.00313 252.38126 84.7375 252.05313Q84.47188 251.70938 84.08125 251.70938ZM84.08125 260.0375L88.78438 250.99063L89.64375 250.99063L84.95625 260.0375L84.08125 260.0375ZM87.8 257.70938Q87.8 256.7875 88.25313 256.14688Q88.72188 255.50626 89.6125 255.50626Q90.425 255.50626 90.95625 256.08438Q91.4875 256.64688 91.4875 257.77188Q91.4875 258.86563 90.94063 259.45938Q90.40938 260.0375 89.6125 260.0375Q88.84688 260.0375 88.31563 259.45938Q87.8 258.88126 87.8 257.70938ZM89.64375 256.225Q89.2375 256.225 88.97188 256.56876Q88.72188 256.9125 88.72188 257.81876Q88.72188 258.63126 88.9875 258.975Q89.25313 259.31876 89.64375 259.31876Q90.03438 259.31876 90.3 258.975Q90.56563 258.63126 90.56563 257.725Q90.56563 256.89688 90.3 256.56876Q90.03438 256.225 89.64375 256.225Z" fill-rule="nonzero"/><path fill="#000000" d="M54.425 183.0L54.425 180.9375L50.70625 180.9375L50.70625 179.96875L54.628124 174.40625L55.4875 174.40625L55.4875 179.96875L56.64375 179.96875L56.64375 180.9375L55.4875 180.9375L55.4875 183.0L54.425 183.0ZM54.425 179.96875L54.425 176.10938L51.7375 179.96875L54.425 179.96875ZM58.05 178.76562Q58.05 177.23438 58.3625 176.3125Q58.675 175.375 59.284374 174.875Q59.909374 174.375 60.846874 174.375Q61.534374 174.375 62.05 174.65625Q62.58125 174.9375 62.925 175.46875Q63.26875 175.98438 63.45625 176.73438Q63.64375 177.48438 63.64375 178.76562Q63.64375 180.28125 63.33125 181.20312Q63.034374 182.125 62.409374 182.64062Q61.8 183.14062 60.846874 183.14062Q59.6125 183.14062 58.89375 182.25Q58.05 181.1875 58.05 178.76562ZM59.128124 178.76562Q59.128124 180.875 59.628124 181.57812Q60.128124 182.28125 60.846874 182.28125Q61.58125 182.28125 62.065624 181.57812Q62.565624 180.875 62.565624 178.76562Q62.565624 176.64062 62.065624 175.95312Q61.58125 175.25 60.83125 175.25Q60.1125 175.25 59.675 175.85938Q59.128124 176.64062 59.128124 178.76562ZM65.64375 183.0L65.64375 181.79688L66.84688 181.79688L66.84688 183.0L65.64375 183.0ZM68.05 178.76562Q68.05 177.23438 68.3625 176.3125Q68.675 175.375 69.28438 174.875Q69.90938 174.375 70.84688 174.375Q71.53438 174.375 72.05 174.65625Q72.58125 174.9375 72.925 175.46875Q73.26875 175.98438 73.45625 176.73438Q73.64375 177.48438 73.64375 178.76562Q73.64375 180.28125 73.33125 181.20312Q73.03438 182.125 72.40938 182.64062Q71.8 183.14062 70.84688 183.14062Q69.6125 183.14062 68.89375 182.25Q68.05 181.1875 68.05 178.76562ZM69.12813 178.76562Q69.12813 180.875 69.62813 181.57812Q70.12813 182.28125 70.84688 182.28125Q71.58125 182.28125 72.06563 181.57812Q72.56563 180.875 72.56563 178.76562Q72.56563 176.64062 72.06563 175.95312Q71.58125 175.25 70.83125 175.25Q70.1125 175.25 69.675 175.85938Q69.12813 176.64062 69.12813 178.76562ZM75.05 178.76562Q75.05 177.23438 75.3625 176.3125Q75.675 175.375 76.28438 174.875Q76.90938 174.375 77.84688 174.375Q78.53438 174.375 79.05 174.65625Q79.58125 174.9375 79.925 175.46875Q80.26875 175.98438 80.45625 176.73438Q80.64375 177.48438 80.64375 178.76562Q80.64375 180.28125 80.33125 181.20312Q80.03438 182.125 79.40938 182.64062Q78.8 183.14062 77.84688 183.14062Q76.6125 183.14062 75.89375 182.25Q75.05 181.1875 75.05 178.76562ZM76.12813 178.76562Q76.12813 180.875 76.62813 181.57812Q77.12813 182.28125 77.84688 182.28125Q78.58125 182.28125 79.06563 181.57812Q79.56563 180.875 79.56563 178.76562Q79.56563 176.64062 79.06563 175.95312Q78.58125 175.25 77.83125 175.25Q77.1125 175.25 76.675 175.85938Q76.12813 176.64062 76.12813 178.76562ZM82.25313 176.46875Q82.25313 175.54688 82.70625 174.90625Q83.175 174.26562 84.05 174.26562Q84.8625 174.26562 85.39375 174.84375Q85.925 175.42188 85.925 176.53125Q85.925 177.625 85.37813 178.21875Q84.84688 178.79688 84.06563 178.79688Q83.28438 178.79688 82.76875 178.21875Q82.25313 177.64062 82.25313 176.46875ZM84.08125 174.98438Q83.69063 174.98438 83.425 175.32812Q83.175 175.67188 83.175 176.57812Q83.175 177.40625 83.425 177.75Q83.69063 178.07812 84.08125 178.07812Q84.4875 178.07812 84.7375 177.73438Q85.00313 177.39062 85.00313 176.5Q85.00313 175.65625 84.7375 175.32812Q84.47188 174.98438 84.08125 174.98438ZM84.08125 183.3125L88.78438 174.26562L89.64375 174.26562L84.95625 183.3125L84.08125 183.3125ZM87.8 180.98438Q87.8 180.0625 88.25313 179.42188Q88.72188 178.78125 89.6125 178.78125Q90.425 178.78125 90.95625 179.35938Q91.4875 179.92188 91.4875 181.04688Q91.4875 182.14062 90.94063 182.73438Q90.40938 183.3125 89.6125 183.3125Q88.84688 183.3125 88.31563 182.73438Q87.8 182.15625 87.8 180.98438ZM89.64375 179.5Q89.2375 179.5 88.97188 179.84375Q88.72188 180.1875 88.72188 181.09375Q88.72188 181.90625 88.9875 182.25Q89.25313 182.59375 89.64375 182.59375Q90.03438 182.59375 90.3 182.25Q90.56563 181.90625 90.56563 181.0Q90.56563 180.17188 90.3 179.84375Q90.03438 179.5 89.64375 179.5Z" fill-rule="nonzero"/><path fill="#000000" d="M56.51875 99.79063L55.471874 99.86875Q55.33125 99.24375 55.08125 98.9625Q54.64375 98.50938 54.01875 98.50938Q53.51875 98.50938 53.128124 98.79063Q52.64375 99.16563 52.346874 99.86875Q52.065624 100.55625 52.05 101.8375Q52.425 101.25938 52.971874 100.97813Q53.534374 100.69688 54.14375 100.69688Q55.190624 100.69688 55.925 101.47813Q56.675 102.25938 56.675 103.47813Q56.675 104.29063 56.315624 104.99375Q55.971874 105.68125 55.3625 106.05625Q54.753124 106.41563 53.9875 106.41563Q52.659374 106.41563 51.83125 105.44688Q51.003124 104.47813 51.003124 102.25938Q51.003124 99.75938 51.925 98.63438Q52.721874 97.65 54.08125 97.65Q55.096874 97.65 55.7375 98.22813Q56.39375 98.79063 56.51875 99.79063ZM52.221874 103.49375Q52.221874 104.04063 52.440624 104.54063Q52.675 105.025 53.08125 105.29063Q53.503124 105.55625 53.971874 105.55625Q54.628124 105.55625 55.1125 105.025Q55.596874 104.47813 55.596874 103.55625Q55.596874 102.66563 55.1125 102.15Q54.64375 101.63438 53.925 101.63438Q53.20625 101.63438 52.70625 102.15Q52.221874 102.66563 52.221874 103.49375ZM58.05 102.04063Q58.05 100.50938 58.3625 99.5875Q58.675 98.65 59.284374 98.15Q59.909374 97.65 60.846874 97.65Q61.534374 97.65 62.05 97.93125Q62.58125 98.2125 62.925 98.74375Q63.26875 99.25938 63.45625 100.00938Q63.64375 100.75938 63.64375 102.04063Q63.64375 103.55625 63.33125 104.47813Q63.034374 105.4 62.409374 105.91563Q61.8 106.41563 60.846874 106.41563Q59.6125 106.41563 58.89375 105.525Q58.05 104.4625 58.05 102.04063ZM59.128124 102.04063Q59.128124 104.15 59.628124 104.85313Q60.128124 105.55625 60.846874 105.55625Q61.58125 105.55625 62.065624 104.85313Q62.565624 104.15 62.565624 102.04063Q62.565624 99.91563 62.065624 99.22813Q61.58125 98.525 60.83125 98.525Q60.1125 98.525 59.675 99.13438Q59.128124 99.91563 59.128124 102.04063ZM65.64375 106.275L65.64375 105.07188L66.84688 105.07188L66.84688 106.275L65.64375 106.275ZM68.05 102.04063Q68.05 100.50938 68.3625 99.5875Q68.675 98.65 69.28438 98.15Q69.90938 97.65 70.84688 97.65Q71.53438 97.65 72.05 97.93125Q72.58125 98.2125 72.925 98.74375Q73.26875 99.25938 73.45625 100.00938Q73.64375 100.75938 73.64375 102.04063Q73.64375 103.55625 73.33125 104.47813Q73.03438 105.4 72.40938 105.91563Q71.8 106.41563 70.84688 106.41563Q69.6125 106.41563 68.89375 105.525Q68.05 104.4625 68.05 102.04063ZM69.12813 102.04063Q69.12813 104.15 69.62813 104.85313Q70.12813 105.55625 70.84688 105.55625Q71.58125 105.55625 72.06563 104.85313Q72.56563 104.15 72.56563 102.04063Q72.56563 99.91563 72.06563 99.22813Q71.58125 98.525 70.83125 98.525Q70.1125 98.525 69.675 99.13438Q69.12813 99.91563 69.12813 102.04063ZM75.05 102.04063Q75.05 100.50938 75.3625 99.5875Q75.675 98.65 76.28438 98.15Q76.90938 97.65 77.84688 97.65Q78.53438 97.65 79.05 97.93125Q79.58125 98.2125 79.925 98.74375Q80.26875 99.25938 80.45625 100.00938Q80.64375 100.75938 80.64375 102.04063Q80.64375 103.55625 80.33125 104.47813Q80.03438 105.4 79.40938 105.91563Q78.8 106.41563 77.84688 106.41563Q76.6125 106.41563 75.89375 105.525Q75.05 104.4625 75.05 102.04063ZM76.12813 102.04063Q76.12813 104.15 76.62813 104.85313Q77.12813 105.55625 77.84688 105.55625Q78.58125 105.55625 79.06563 104.85313Q79.56563 104.15 79.56563 102.04063Q79.56563 99.91563 79.06563 99.22813Q78.58125 98.525 77.83125 98.525Q77.1125 98.525 76.675 99.13438Q76.12813 99.91563 76.12813 102.04063ZM82.25313 99.74375Q82.25313 98.82188 82.70625 98.18125Q83.175 97.54063 84.05 97.54063Q84.8625 97.54063 85.39375 98.11875Q85.925 98.69688 85.925 99.80625Q85.925 100.9 85.37813 101.49375Q84.84688 102.07188 84.06563 102.07188Q83.28438 102.07188 82.76875 101.49375Q82.25313 100.91563 82.25313 99.74375ZM84.08125 98.25938Q83.69063 98.25938 83.425 98.60313Q83.175 98.94688 83.175 99.85313Q83.175 100.68125 83.425 101.025Q83.69063 101.35313 84.08125 101.35313Q84.4875 101.35313 84.7375 101.00938Q85.00313 100.66563 85.00313 99.775Q85.00313 98.93125 84.7375 98.60313Q84.47188 98.25938 84.08125 98.25938ZM84.08125 106.5875L88.78438 97.54063L89.64375 97.54063L84.95625 106.5875L84.08125 106.5875ZM87.8 104.25938Q87.8 103.3375 88.25313 102.69688Q88.72188 102.05625 89.6125 102.05625Q90.425 102.05625 90.95625 102.63438Q91.4875 103.19688 91.4875 104.32188Q91.4875 105.41563 90.94063 106.00938Q90.40938 106.5875 89.6125 106.5875Q88.84688 106.5875 88.31563 106.00938Q87.8 105.43125 87.8 104.25938ZM89.64375 102.775Q89.2375 102.775 88.97188 103.11875Q88.72188 103.4625 88.72188 104.36875Q88.72188 105.18125 88.9875 105.525Q89.25313 105.86875 89.64375 105.86875Q90.03438 105.86875 90.3 105.525Q90.56563 105.18125 90.56563 104.275Q90.56563 103.44688 90.3 103.11875Q90.03438 102.775 89.64375 102.775Z" fill-rule="nonzero"/><path fill="#000000" d="M52.675 24.89375Q52.01875 24.64375 51.690624 24.20625Q51.378124 23.753124 51.378124 23.14375Q51.378124 22.20625 52.05 21.565624Q52.7375 20.925 53.846874 20.925Q54.971874 20.925 55.659374 21.58125Q56.346874 22.2375 56.346874 23.175Q56.346874 23.76875 56.034374 24.20625Q55.721874 24.64375 55.08125 24.89375Q55.878124 25.14375 56.284374 25.721874Q56.690624 26.3 56.690624 27.096874Q56.690624 28.190624 55.909374 28.940624Q55.14375 29.690624 53.8625 29.690624Q52.596874 29.690624 51.815624 28.940624Q51.034374 28.190624 51.034374 27.065624Q51.034374 26.221874 51.45625 25.659374Q51.89375 25.096874 52.675 24.89375ZM52.45625 23.096874Q52.45625 23.70625 52.846874 24.096874Q53.253124 24.4875 53.878124 24.4875Q54.4875 24.4875 54.878124 24.1125Q55.26875 23.721874 55.26875 23.159374Q55.26875 22.58125 54.8625 22.190624Q54.45625 21.784374 53.8625 21.784374Q53.253124 21.784374 52.846874 22.175Q52.45625 22.565624 52.45625 23.096874ZM52.128124 27.065624Q52.128124 27.51875 52.33125 27.940624Q52.55 28.3625 52.971874 28.596874Q53.39375 28.83125 53.878124 28.83125Q54.628124 28.83125 55.1125 28.346874Q55.6125 27.8625 55.6125 27.1125Q55.6125 26.346874 55.1125 25.846874Q54.6125 25.346874 53.846874 25.346874Q53.096874 25.346874 52.6125 25.846874Q52.128124 26.33125 52.128124 27.065624ZM58.05 25.315624Q58.05 23.784374 58.3625 22.8625Q58.675 21.925 59.284374 21.425Q59.909374 20.925 60.846874 20.925Q61.534374 20.925 62.05 21.20625Q62.58125 21.4875 62.925 22.01875Q63.26875 22.534374 63.45625 23.284374Q63.64375 24.034374 63.64375 25.315624Q63.64375 26.83125 63.33125 27.753124Q63.034374 28.675 62.409374 29.190624Q61.8 29.690624 60.846874 29.690624Q59.6125 29.690624 58.89375 28.8Q58.05 27.7375 58.05 25.315624ZM59.128124 25.315624Q59.128124 27.425 59.628124 28.128124Q60.128124 28.83125 60.846874 28.83125Q61.58125 28.83125 62.065624 28.128124Q62.565624 27.425 62.565624 25.315624Q62.565624 23.190624 62.065624 22.503124Q61.58125 21.8 60.83125 21.8Q60.1125 21.8 59.675 22.409374Q59.128124 23.190624 59.128124 25.315624ZM65.64375 29.55L65.64375 28.346874L66.84688 28.346874L66.84688 29.55L65.64375 29.55ZM68.05 25.315624Q68.05 23.784374 68.3625 22.8625Q68.675 21.925 69.28438 21.425Q69.90938 20.925 70.84688 20.925Q71.53438 20.925 72.05 21.20625Q72.58125 21.4875 72.925 22.01875Q73.26875 22.534374 73.45625 23.284374Q73.64375 24.034374 73.64375 25.315624Q73.64375 26.83125 73.33125 27.753124Q73.03438 28.675 72.40938 29.190624Q71.8 29.690624 70.84688 29.690624Q69.6125 29.690624 68.89375 28.8Q68.05 27.7375 68.05 25.315624ZM69.12813 25.315624Q69.12813 27.425 69.62813 28.128124Q70.12813 28.83125 70.84688 28.83125Q71.58125 28.83125 72.06563 28.128124Q72.56563 27.425 72.56563 25.315624Q72.56563 23.190624 72.06563 22.503124Q71.58125 21.8 70.83125 21.8Q70.1125 21.8 69.675 22.409374Q69.12813 23.190624 69.12813 25.315624ZM75.05 25.315624Q75.05 23.784374 75.3625 22.8625Q75.675 21.925 76.28438 21.425Q76.90938 20.925 77.84688 20.925Q78.53438 20.925 79.05 21.20625Q79.58125 21.4875 79.925 22.01875Q80.26875 22.534374 80.45625 23.284374Q80.64375 24.034374 80.64375 25.315624Q80.64375 26.83125 80.33125 27.753124Q80.03438 28.675 79.40938 29.190624Q78.8 29.690624 77.84688 29.690624Q76.6125 29.690624 75.89375 28.8Q75.05 27.7375 75.05 25.315624ZM76.12813 25.315624Q76.12813 27.425 76.62813 28.128124Q77.12813 28.83125 77.84688 28.83125Q78.58125 28.83125 79.06563 28.128124Q79.56563 27.425 79.56563 25.315624Q79.56563 23.190624 79.06563 22.503124Q78.58125 21.8 77.83125 21.8Q77.1125 21.8 76.675 22.409374Q76.12813 23.190624 76.12813 25.315624ZM82.25313 23.01875Q82.25313 22.096874 82.70625 21.45625Q83.175 20.815624 84.05 20.815624Q84.8625 20.815624 85.39375 21.39375Q85.925 21.971874 85.925 23.08125Q85.925 24.175 85.37813 24.76875Q84.84688 25.346874 84.06563 25.346874Q83.28438 25.346874 82.76875 24.76875Q82.25313 24.190624 82.25313 23.01875ZM84.08125 21.534374Q83.69063 21.534374 83.425 21.878124Q83.175 22.221874 83.175 23.128124Q83.175 23.95625 83.425 24.3Q83.69063 24.628124 84.08125 24.628124Q84.4875 24.628124 84.7375 24.284374Q85.00313 23.940624 85.00313 23.05Q85.00313 22.20625 84.7375 21.878124Q84.47188 21.534374 84.08125 21.534374ZM84.08125 29.8625L88.78438 20.815624L89.64375 20.815624L84.95625 29.8625L84.08125 29.8625ZM87.8 27.534374Q87.8 26.6125 88.25313 25.971874Q88.72188 25.33125 89.6125 25.33125Q90.425 25.33125 90.95625 25.909374Q91.4875 26.471874 91.4875 27.596874Q91.4875 28.690624 90.94063 29.284374Q90.40938 29.8625 89.6125 29.8625Q88.84688 29.8625 88.31563 29.284374Q87.8 28.70625 87.8 27.534374ZM89.64375 26.05Q89.2375 26.05 88.97188 26.39375Q88.72188 26.7375 88.72188 27.64375Q88.72188 28.45625 88.9875 28.8Q89.25313 29.14375 89.64375 29.14375Q90.03438 29.14375 90.3 28.8Q90.56563 28.45625 90.56563 27.55Q90.56563 26.721874 90.3 26.39375Q90.03438 26.05 89.64375 26.05Z" fill-rule="nonzero"/><path fill="#000000" d="M172.39763 348.4344L172.39763 349.45L166.71013 349.45Q166.71013 349.075 166.83513 348.71564Q167.05388 348.1375 167.52263 347.575Q168.007 347.0125 168.91325 346.27814Q170.3195 345.1219 170.80388 344.45Q171.30388 343.77814 171.30388 343.1844Q171.30388 342.5594 170.85075 342.1375Q170.39763 341.7 169.67888 341.7Q168.91325 341.7 168.46013 342.15314Q168.007 342.60626 167.99138 343.41876L166.91325 343.3094Q167.02263 342.09064 167.74138 341.46564Q168.47575 340.825 169.71013 340.825Q170.9445 340.825 171.66325 341.5125Q172.382 342.2 172.382 343.21564Q172.382 343.73126 172.16325 344.23126Q171.96013 344.71564 171.46013 345.27814Q170.97575 345.825 169.85075 346.77814Q168.89763 347.575 168.61638 347.8719Q168.35075 348.15314 168.17888 348.4344L172.39763 348.4344ZM181.17888 349.45L181.17888 348.66876Q180.58513 349.59064 179.4445 349.59064Q178.6945 349.59064 178.0695 349.1844Q177.4445 348.7625 177.10075 348.02814Q176.757 347.29376 176.757 346.34064Q176.757 345.41876 177.0695 344.65314Q177.382 343.8875 178.007 343.4969Q178.632 343.09064 179.39763 343.09064Q179.96013 343.09064 180.39763 343.325Q180.83513 343.5594 181.11638 343.9344L181.11638 340.85626L182.16325 340.85626L182.16325 349.45L181.17888 349.45ZM177.85075 346.34064Q177.85075 347.54376 178.35075 348.1375Q178.85075 348.71564 179.53825 348.71564Q180.22575 348.71564 180.71013 348.15314Q181.1945 347.59064 181.1945 346.4344Q181.1945 345.15314 180.6945 344.5594Q180.21013 343.96564 179.49138 343.96564Q178.78825 343.96564 178.3195 344.54376Q177.85075 345.10626 177.85075 346.34064ZM188.39763 347.45L189.49138 347.575Q189.24138 348.52814 188.53825 349.0594Q187.83513 349.59064 186.757 349.59064Q185.39763 349.59064 184.58513 348.7469Q183.78825 347.90314 183.78825 346.3875Q183.78825 344.825 184.60075 343.96564Q185.41325 343.09064 186.6945 343.09064Q187.9445 343.09064 188.72575 343.9344Q189.52263 344.77814 189.52263 346.325Q189.52263 346.41876 189.52263 346.60626L184.882 346.60626Q184.9445 347.6375 185.46013 348.1844Q185.97575 348.71564 186.757 348.71564Q187.33513 348.71564 187.74138 348.41876Q188.16325 348.10626 188.39763 347.45ZM184.9445 345.7469L188.41325 345.7469Q188.35075 344.95 188.02263 344.5594Q187.507 343.95 186.71013 343.95Q185.97575 343.95 185.47575 344.4344Q184.99138 344.91876 184.9445 345.7469ZM192.11638 349.45L191.132 349.45L191.132 340.85626L192.1945 340.85626L192.1945 343.91876Q192.86638 343.09064 193.89763 343.09064Q194.47575 343.09064 194.97575 343.325Q195.49138 343.54376 195.8195 343.96564Q196.16325 344.3875 196.35075 344.98126Q196.53825 345.575 196.53825 346.2469Q196.53825 347.84064 195.74138 348.71564Q194.9445 349.59064 193.85075 349.59064Q192.74138 349.59064 192.11638 348.66876L192.11638 349.45ZM192.10075 346.29376Q192.10075 347.40314 192.41325 347.90314Q192.91325 348.71564 193.757 348.71564Q194.4445 348.71564 194.9445 348.1219Q195.46013 347.52814 195.46013 346.325Q195.46013 345.10626 194.97575 344.52814Q194.49138 343.95 193.80388 343.95Q193.11638 343.95 192.60075 344.5594Q192.10075 345.15314 192.10075 346.29376ZM202.21013 348.6844Q201.61638 349.1844 201.0695 349.3875Q200.53825 349.59064 199.91325 349.59064Q198.882 349.59064 198.33513 349.09064Q197.78825 348.59064 197.78825 347.8094Q197.78825 347.35626 197.99138 346.98126Q198.1945 346.59064 198.53825 346.3719Q198.882 346.1375 199.30388 346.02814Q199.60075 345.9344 200.24138 345.85626Q201.507 345.71564 202.11638 345.4969Q202.11638 345.27814 202.11638 345.23126Q202.11638 344.575 201.8195 344.3094Q201.41325 343.96564 200.61638 343.96564Q199.882 343.96564 199.52263 344.23126Q199.16325 344.48126 198.99138 345.1375L197.96013 344.9969Q198.10075 344.34064 198.42888 343.9344Q198.757 343.52814 199.36638 343.3094Q199.97575 343.09064 200.77263 343.09064Q201.5695 343.09064 202.0695 343.27814Q202.5695 343.46564 202.80388 343.7469Q203.03825 344.02814 203.132 344.46564Q203.17888 344.73126 203.17888 345.4344L203.17888 346.84064Q203.17888 348.3094 203.24138 348.7Q203.3195 349.09064 203.52263 349.45L202.41325 349.45Q202.257 349.1219 202.21013 348.6844ZM202.11638 346.325Q201.53825 346.5594 200.39763 346.73126Q199.74138 346.825 199.47575 346.95Q199.21013 347.0594 199.05388 347.27814Q198.91325 347.4969 198.91325 347.77814Q198.91325 348.2 199.22575 348.48126Q199.55388 348.7625 200.16325 348.7625Q200.77263 348.7625 201.24138 348.4969Q201.72575 348.23126 201.9445 347.7625Q202.11638 347.40314 202.11638 346.71564L202.11638 346.325ZM207.4445 348.5125L207.60075 349.4344Q207.14763 349.52814 206.80388 349.52814Q206.22575 349.52814 205.91325 349.35626Q205.60075 349.16876 205.46013 348.8719Q205.33513 348.575 205.33513 347.6219L205.33513 344.04376L204.5695 344.04376L204.5695 343.23126L205.33513 343.23126L205.33513 341.6844L206.382 341.0594L206.382 343.23126L207.4445 343.23126L207.4445 344.04376L206.382 344.04376L206.382 347.6844Q206.382 348.1375 206.42888 348.2625Q206.49138 348.3875 206.61638 348.46564Q206.74138 348.54376 206.97575 348.54376Q207.16325 348.54376 207.4445 348.5125ZM212.39763 347.45L213.49138 347.575Q213.24138 348.52814 212.53825 349.0594Q211.83513 349.59064 210.757 349.59064Q209.39763 349.59064 208.58513 348.7469Q207.78825 347.90314 207.78825 346.3875Q207.78825 344.825 208.60075 343.96564Q209.41325 343.09064 210.6945 343.09064Q211.9445 343.09064 212.72575 343.9344Q213.52263 344.77814 213.52263 346.325Q213.52263 346.41876 213.52263 346.60626L208.882 346.60626Q208.9445 347.6375 209.46013 348.1844Q209.97575 348.71564 210.757 348.71564Q211.33513 348.71564 211.74138 348.41876Q212.16325 348.10626 212.39763 347.45ZM208.9445 345.7469L212.41325 345.7469Q212.35075 344.95 212.02263 344.5594Q211.507 343.95 210.71013 343.95Q209.97575 343.95 209.47575 344.4344Q208.99138 344.91876 208.9445 345.7469ZM215.132 349.45L215.132 343.23126L216.08513 343.23126L216.08513 344.16876Q216.4445 343.5125 216.74138 343.3094Q217.05388 343.09064 217.42888 343.09064Q217.96013 343.09064 218.507 343.41876L218.14763 344.40314Q217.757 344.16876 217.382 344.16876Q217.02263 344.16876 216.74138 344.3875Q216.47575 344.59064 216.36638 344.96564Q216.17888 345.52814 216.17888 346.1844L216.17888 349.45L215.132 349.45ZM218.72575 347.59064L219.757 347.4344Q219.85075 348.0594 220.24138 348.3875Q220.64763 348.71564 221.382 348.71564Q222.10075 348.71564 222.4445 348.4344Q222.80388 348.1375 222.80388 347.73126Q222.80388 347.3719 222.49138 347.16876Q222.27263 347.02814 221.41325 346.8094Q220.257 346.5125 219.80388 346.3094Q219.36638 346.09064 219.132 345.71564Q218.89763 345.34064 218.89763 344.8719Q218.89763 344.46564 219.08513 344.10626Q219.27263 343.7469 219.60075 343.5125Q219.85075 343.34064 220.27263 343.21564Q220.6945 343.09064 221.1945 343.09064Q221.91325 343.09064 222.46013 343.3094Q223.02263 343.5125 223.28825 343.8719Q223.55388 344.23126 223.64763 344.825L222.61638 344.96564Q222.55388 344.4969 222.21013 344.23126Q221.882 343.95 221.257 343.95Q220.53825 343.95 220.22575 344.2Q219.91325 344.4344 219.91325 344.7625Q219.91325 344.96564 220.03825 345.1219Q220.17888 345.29376 220.4445 345.40314Q220.60075 345.46564 221.382 345.66876Q222.507 345.98126 222.9445 346.16876Q223.382 346.35626 223.632 346.71564Q223.882 347.075 223.882 347.6219Q223.882 348.15314 223.5695 348.6219Q223.27263 349.075 222.6945 349.34064Q222.11638 349.59064 221.382 349.59064Q220.16325 349.59064 219.52263 349.09064Q218.89763 348.575 218.72575 347.59064Z" fill-rule="nonzero"/><path fill="#000000" d="M314.375 349.45L314.375 347.3875L310.65625 347.3875L310.65625 346.41876L314.57812 340.85626L315.4375 340.85626L315.4375 346.41876L316.59375 346.41876L316.59375 347.3875L315.4375 347.3875L315.4375 349.45L314.375 349.45ZM314.375 346.41876L314.375 342.5594L311.6875 346.41876L314.375 346.41876ZM325.32812 349.45L325.32812 348.66876Q324.73438 349.59064 323.59375 349.59064Q322.84375 349.59064 322.21875 349.1844Q321.59375 348.7625 321.25 348.02814Q320.90625 347.29376 320.90625 346.34064Q320.90625 345.41876 321.21875 344.65314Q321.53125 343.8875 322.15625 343.4969Q322.78125 343.09064 323.54688 343.09064Q324.10938 343.09064 324.54688 343.325Q324.98438 343.5594 325.26562 343.9344L325.26562 340.85626L326.3125 340.85626L326.3125 349.45L325.32812 349.45ZM322.0 346.34064Q322.0 347.54376 322.5 348.1375Q323.0 348.71564 323.6875 348.71564Q324.375 348.71564 324.85938 348.15314Q325.34375 347.59064 325.34375 346.4344Q325.34375 345.15314 324.84375 344.5594Q324.35938 343.96564 323.64062 343.96564Q322.9375 343.96564 322.46875 344.54376Q322.0 345.10626 322.0 346.34064ZM332.54688 347.45L333.64062 347.575Q333.39062 348.52814 332.6875 349.0594Q331.98438 349.59064 330.90625 349.59064Q329.54688 349.59064 328.73438 348.7469Q327.9375 347.90314 327.9375 346.3875Q327.9375 344.825 328.75 343.96564Q329.5625 343.09064 330.84375 343.09064Q332.09375 343.09064 332.875 343.9344Q333.67188 344.77814 333.67188 346.325Q333.67188 346.41876 333.67188 346.60626L329.03125 346.60626Q329.09375 347.6375 329.60938 348.1844Q330.125 348.71564 330.90625 348.71564Q331.48438 348.71564 331.89062 348.41876Q332.3125 348.10626 332.54688 347.45ZM329.09375 345.7469L332.5625 345.7469Q332.5 344.95 332.17188 344.5594Q331.65625 343.95 330.85938 343.95Q330.125 343.95 329.625 344.4344Q329.14062 344.91876 329.09375 345.7469ZM336.26562 349.45L335.28125 349.45L335.28125 340.85626L336.34375 340.85626L336.34375 343.91876Q337.01562 343.09064 338.04688 343.09064Q338.625 343.09064 339.125 343.325Q339.64062 343.54376 339.96875 343.96564Q340.3125 344.3875 340.5 344.98126Q340.6875 345.575 340.6875 346.2469Q340.6875 347.84064 339.89062 348.71564Q339.09375 349.59064 338.0 349.59064Q336.89062 349.59064 336.26562 348.66876L336.26562 349.45ZM336.25 346.29376Q336.25 347.40314 336.5625 347.90314Q337.0625 348.71564 337.90625 348.71564Q338.59375 348.71564 339.09375 348.1219Q339.60938 347.52814 339.60938 346.325Q339.60938 345.10626 339.125 344.52814Q338.64062 343.95 337.95312 343.95Q337.26562 343.95 336.75 344.5594Q336.25 345.15314 336.25 346.29376ZM346.35938 348.6844Q345.76562 349.1844 345.21875 349.3875Q344.6875 349.59064 344.0625 349.59064Q343.03125 349.59064 342.48438 349.09064Q341.9375 348.59064 341.9375 347.8094Q341.9375 347.35626 342.14062 346.98126Q342.34375 346.59064 342.6875 346.3719Q343.03125 346.1375 343.45312 346.02814Q343.75 345.9344 344.39062 345.85626Q345.65625 345.71564 346.26562 345.4969Q346.26562 345.27814 346.26562 345.23126Q346.26562 344.575 345.96875 344.3094Q345.5625 343.96564 344.76562 343.96564Q344.03125 343.96564 343.67188 344.23126Q343.3125 344.48126 343.14062 345.1375L342.10938 344.9969Q342.25 344.34064 342.57812 343.9344Q342.90625 343.52814 343.51562 343.3094Q344.125 343.09064 344.92188 343.09064Q345.71875 343.09064 346.21875 343.27814Q346.71875 343.46564 346.95312 343.7469Q347.1875 344.02814 347.28125 344.46564Q347.32812 344.73126 347.32812 345.4344L347.32812 346.84064Q347.32812 348.3094 347.39062 348.7Q347.46875 349.09064 347.67188 349.45L346.5625 349.45Q346.40625 349.1219 346.35938 348.6844ZM346.26562 346.325Q345.6875 346.5594 344.54688 346.73126Q343.89062 346.825 343.625 346.95Q343.35938 347.0594 343.20312 347.27814Q343.0625 347.4969 343.0625 347.77814Q343.0625 348.2 343.375 348.48126Q343.70312 348.7625 344.3125 348.7625Q344.92188 348.7625 345.39062 348.4969Q345.875 348.23126 346.09375 347.7625Q346.26562 347.40314 346.26562 346.71564L346.26562 346.325ZM351.59375 348.5125L351.75 349.4344Q351.29688 349.52814 350.95312 349.52814Q350.375 349.52814 350.0625 349.35626Q349.75 349.16876 349.60938 348.8719Q349.48438 348.575 349.48438 347.6219L349.48438 344.04376L348.71875 344.04376L348.71875 343.23126L349.48438 343.23126L349.48438 341.6844L350.53125 341.0594L350.53125 343.23126L351.59375 343.23126L351.59375 344.04376L350.53125 344.04376L350.53125 347.6844Q350.53125 348.1375 350.57812 348.2625Q350.64062 348.3875 350.76562 348.46564Q350.89062 348.54376 351.125 348.54376Q351.3125 348.54376 351.59375 348.5125ZM356.54688 347.45L357.64062 347.575Q357.39062 348.52814 356.6875 349.0594Q355.98438 349.59064 354.90625 349.59064Q353.54688 349.59064 352.73438 348.7469Q351.9375 347.90314 351.9375 346.3875Q351.9375 344.825 352.75 343.96564Q353.5625 343.09064 354.84375 343.09064Q356.09375 343.09064 356.875 343.9344Q357.67188 344.77814 357.67188 346.325Q357.67188 346.41876 357.67188 346.60626L353.03125 346.60626Q353.09375 347.6375 353.60938 348.1844Q354.125 348.71564 354.90625 348.71564Q355.48438 348.71564 355.89062 348.41876Q356.3125 348.10626 356.54688 347.45ZM353.09375 345.7469L356.5625 345.7469Q356.5 344.95 356.17188 344.5594Q355.65625 343.95 354.85938 343.95Q354.125 343.95 353.625 344.4344Q353.14062 344.91876 353.09375 345.7469ZM359.28125 349.45L359.28125 343.23126L360.23438 343.23126L360.23438 344.16876Q360.59375 343.5125 360.89062 343.3094Q361.20312 343.09064 361.57812 343.09064Q362.10938 343.09064 362.65625 343.41876L362.29688 344.40314Q361.90625 344.16876 361.53125 344.16876Q361.17188 344.16876 360.89062 344.3875Q360.625 344.59064 360.51562 344.96564Q360.32812 345.52814 360.32812 346.1844L360.32812 349.45L359.28125 349.45ZM362.875 347.59064L363.90625 347.4344Q364.0 348.0594 364.39062 348.3875Q364.79688 348.71564 365.53125 348.71564Q366.25 348.71564 366.59375 348.4344Q366.95312 348.1375 366.95312 347.73126Q366.95312 347.3719 366.64062 347.16876Q366.42188 347.02814 365.5625 346.8094Q364.40625 346.5125 363.95312 346.3094Q363.51562 346.09064 363.28125 345.71564Q363.04688 345.34064 363.04688 344.8719Q363.04688 344.46564 363.23438 344.10626Q363.42188 343.7469 363.75 343.5125Q364.0 343.34064 364.42188 343.21564Q364.84375 343.09064 365.34375 343.09064Q366.0625 343.09064 366.60938 343.3094Q367.17188 343.5125 367.4375 343.8719Q367.70312 344.23126 367.79688 344.825L366.76562 344.96564Q366.70312 344.4969 366.35938 344.23126Q366.03125 343.95 365.40625 343.95Q364.6875 343.95 364.375 344.2Q364.0625 344.4344 364.0625 344.7625Q364.0625 344.96564 364.1875 345.1219Q364.32812 345.29376 364.59375 345.40314Q364.75 345.46564 365.53125 345.66876Q366.65625 345.98126 367.09375 346.16876Q367.53125 346.35626 367.78125 346.71564Q368.03125 347.075 368.03125 347.6219Q368.03125 348.15314 367.71875 348.6219Q367.42188 349.075 366.84375 349.34064Q366.26562 349.59064 365.53125 349.59064Q364.3125 349.59064 363.67188 349.09064Q363.04688 348.575 362.875 347.59064Z" fill-rule="nonzero"/><path fill="#000000" d="M460.618 342.96564L459.57114 343.04376Q459.4305 342.41876 459.1805 342.1375Q458.743 341.6844 458.118 341.6844Q457.618 341.6844 457.2274 341.96564Q456.743 342.34064 456.44614 343.04376Q456.1649 343.73126 456.14926 345.0125Q456.52426 344.4344 457.07114 344.15314Q457.63364 343.8719 458.243 343.8719Q459.2899 343.8719 460.02426 344.65314Q460.77426 345.4344 460.77426 346.65314Q460.77426 347.46564 460.4149 348.16876Q460.07114 348.85626 459.46176 349.23126Q458.8524 349.59064 458.08676 349.59064Q456.75864 349.59064 455.9305 348.6219Q455.1024 347.65314 455.1024 345.4344Q455.1024 342.9344 456.02426 341.8094Q456.82114 340.825 458.1805 340.825Q459.19614 340.825 459.83676 341.40314Q460.493 341.96564 460.618 342.96564ZM456.32114 346.66876Q456.32114 347.21564 456.5399 347.71564Q456.77426 348.2 457.1805 348.46564Q457.6024 348.73126 458.07114 348.73126Q458.7274 348.73126 459.21176 348.2Q459.69614 347.65314 459.69614 346.73126Q459.69614 345.84064 459.21176 345.325Q458.743 344.8094 458.02426 344.8094Q457.3055 344.8094 456.8055 345.325Q456.32114 345.84064 456.32114 346.66876ZM469.4774 349.45L469.4774 348.66876Q468.88364 349.59064 467.743 349.59064Q466.993 349.59064 466.368 349.1844Q465.743 348.7625 465.39926 348.02814Q465.0555 347.29376 465.0555 346.34064Q465.0555 345.41876 465.368 344.65314Q465.6805 343.8875 466.3055 343.4969Q466.9305 343.09064 467.69614 343.09064Q468.25864 343.09064 468.69614 343.325Q469.13364 343.5594 469.4149 343.9344L469.4149 340.85626L470.46176 340.85626L470.46176 349.45L469.4774 349.45ZM466.14926 346.34064Q466.14926 347.54376 466.64926 348.1375Q467.14926 348.71564 467.83676 348.71564Q468.52426 348.71564 469.00864 348.15314Q469.493 347.59064 469.493 346.4344Q469.493 345.15314 468.993 344.5594Q468.50864 343.96564 467.7899 343.96564Q467.08676 343.96564 466.618 344.54376Q466.14926 345.10626 466.14926 346.34064ZM476.69614 347.45L477.7899 347.575Q477.5399 348.52814 476.83676 349.0594Q476.13364 349.59064 475.0555 349.59064Q473.69614 349.59064 472.88364 348.7469Q472.08676 347.90314 472.08676 346.3875Q472.08676 344.825 472.89926 343.96564Q473.71176 343.09064 474.993 343.09064Q476.243 343.09064 477.02426 343.9344Q477.82114 344.77814 477.82114 346.325Q477.82114 346.41876 477.82114 346.60626L473.1805 346.60626Q473.243 347.6375 473.75864 348.1844Q474.27426 348.71564 475.0555 348.71564Q475.63364 348.71564 476.0399 348.41876Q476.46176 348.10626 476.69614 347.45ZM473.243 345.7469L476.71176 345.7469Q476.64926 344.95 476.32114 344.5594Q475.8055 343.95 475.00864 343.95Q474.27426 343.95 473.77426 344.4344Q473.2899 344.91876 473.243 345.7469ZM480.4149 349.45L479.4305 349.45L479.4305 340.85626L480.493 340.85626L480.493 343.91876Q481.1649 343.09064 482.19614 343.09064Q482.77426 343.09064 483.27426 343.325Q483.7899 343.54376 484.118 343.96564Q484.46176 344.3875 484.64926 344.98126Q484.83676 345.575 484.83676 346.2469Q484.83676 347.84064 484.0399 348.71564Q483.243 349.59064 482.14926 349.59064Q481.0399 349.59064 480.4149 348.66876L480.4149 349.45ZM480.39926 346.29376Q480.39926 347.40314 480.71176 347.90314Q481.21176 348.71564 482.0555 348.71564Q482.743 348.71564 483.243 348.1219Q483.75864 347.52814 483.75864 346.325Q483.75864 345.10626 483.27426 344.52814Q482.7899 343.95 482.1024 343.95Q481.4149 343.95 480.89926 344.5594Q480.39926 345.15314 480.39926 346.29376ZM490.50864 348.6844Q489.9149 349.1844 489.368 349.3875Q488.83676 349.59064 488.21176 349.59064Q487.1805 349.59064 486.63364 349.09064Q486.08676 348.59064 486.08676 347.8094Q486.08676 347.35626 486.2899 346.98126Q486.493 346.59064 486.83676 346.3719Q487.1805 346.1375 487.6024 346.02814Q487.89926 345.9344 488.5399 345.85626Q489.8055 345.71564 490.4149 345.4969Q490.4149 345.27814 490.4149 345.23126Q490.4149 344.575 490.118 344.3094Q489.71176 343.96564 488.9149 343.96564Q488.1805 343.96564 487.82114 344.23126Q487.46176 344.48126 487.2899 345.1375L486.25864 344.9969Q486.39926 344.34064 486.7274 343.9344Q487.0555 343.52814 487.6649 343.3094Q488.27426 343.09064 489.07114 343.09064Q489.868 343.09064 490.368 343.27814Q490.868 343.46564 491.1024 343.7469Q491.33676 344.02814 491.4305 344.46564Q491.4774 344.73126 491.4774 345.4344L491.4774 346.84064Q491.4774 348.3094 491.5399 348.7Q491.618 349.09064 491.82114 349.45L490.71176 349.45Q490.5555 349.1219 490.50864 348.6844ZM490.4149 346.325Q489.83676 346.5594 488.69614 346.73126Q488.0399 346.825 487.77426 346.95Q487.50864 347.0594 487.3524 347.27814Q487.21176 347.4969 487.21176 347.77814Q487.21176 348.2 487.52426 348.48126Q487.8524 348.7625 488.46176 348.7625Q489.07114 348.7625 489.5399 348.4969Q490.02426 348.23126 490.243 347.7625Q490.4149 347.40314 490.4149 346.71564L490.4149 346.325ZM495.743 348.5125L495.89926 349.4344Q495.44614 349.52814 495.1024 349.52814Q494.52426 349.52814 494.21176 349.35626Q493.89926 349.16876 493.75864 348.8719Q493.63364 348.575 493.63364 347.6219L493.63364 344.04376L492.868 344.04376L492.868 343.23126L493.63364 343.23126L493.63364 341.6844L494.6805 341.0594L494.6805 343.23126L495.743 343.23126L495.743 344.04376L494.6805 344.04376L494.6805 347.6844Q494.6805 348.1375 494.7274 348.2625Q494.7899 348.3875 494.9149 348.46564Q495.0399 348.54376 495.27426 348.54376Q495.46176 348.54376 495.743 348.5125ZM500.69614 347.45L501.7899 347.575Q501.5399 348.52814 500.83676 349.0594Q500.13364 349.59064 499.0555 349.59064Q497.69614 349.59064 496.88364 348.7469Q496.08676 347.90314 496.08676 346.3875Q496.08676 344.825 496.89926 343.96564Q497.71176 343.09064 498.993 343.09064Q500.243 343.09064 501.02426 343.9344Q501.82114 344.77814 501.82114 346.325Q501.82114 346.41876 501.82114 346.60626L497.1805 346.60626Q497.243 347.6375 497.75864 348.1844Q498.27426 348.71564 499.0555 348.71564Q499.63364 348.71564 500.0399 348.41876Q500.46176 348.10626 500.69614 347.45ZM497.243 345.7469L500.71176 345.7469Q500.64926 344.95 500.32114 344.5594Q499.8055 343.95 499.00864 343.95Q498.27426 343.95 497.77426 344.4344Q497.2899 344.91876 497.243 345.7469ZM503.4305 349.45L503.4305 343.23126L504.38364 343.23126L504.38364 344.16876Q504.743 343.5125 505.0399 343.3094Q505.3524 343.09064 505.7274 343.09064Q506.25864 343.09064 506.8055 343.41876L506.44614 344.40314Q506.0555 344.16876 505.6805 344.16876Q505.32114 344.16876 505.0399 344.3875Q504.77426 344.59064 504.6649 344.96564Q504.4774 345.52814 504.4774 346.1844L504.4774 349.45L503.4305 349.45ZM507.02426 347.59064L508.0555 347.4344Q508.14926 348.0594 508.5399 348.3875Q508.94614 348.71564 509.6805 348.71564Q510.39926 348.71564 510.743 348.4344Q511.1024 348.1375 511.1024 347.73126Q511.1024 347.3719 510.7899 347.16876Q510.57114 347.02814 509.71176 346.8094Q508.5555 346.5125 508.1024 346.3094Q507.6649 346.09064 507.4305 345.71564Q507.19614 345.34064 507.19614 344.8719Q507.19614 344.46564 507.38364 344.10626Q507.57114 343.7469 507.89926 343.5125Q508.14926 343.34064 508.57114 343.21564Q508.993 343.09064 509.493 343.09064Q510.21176 343.09064 510.75864 343.3094Q511.32114 343.5125 511.58676 343.8719Q511.8524 344.23126 511.94614 344.825L510.9149 344.96564Q510.8524 344.4969 510.50864 344.23126Q510.1805 343.95 509.5555 343.95Q508.83676 343.95 508.52426 344.2Q508.21176 344.4344 508.21176 344.7625Q508.21176 344.96564 508.33676 345.1219Q508.4774 345.29376 508.743 345.40314Q508.89926 345.46564 509.6805 345.66876Q510.8055 345.98126 511.243 346.16876Q511.6805 346.35626 511.9305 346.71564Q512.18054 347.075 512.18054 347.6219Q512.18054 348.15314 511.868 348.6219Q511.57114 349.075 510.993 349.34064Q510.4149 349.59064 509.6805 349.59064Q508.46176 349.59064 507.82114 349.09064Q507.19614 348.575 507.02426 347.59064Z" fill-rule="nonzero"/></svg>
